<svg width="38" height="51" viewBox="0 0 38 51" fill="none" xmlns="http://www.w3.org/2000/svg">
<path d="M15.0014 2.68966C15.3898 14.4643 15.6812 26.239 15.8661 38.0181C15.9216 41.3727 15.9633 44.7273 16.0002 48.0819C16.0141 49.4883 17.2673 50.8364 18.7749 50.7692C20.2639 50.7065 21.568 49.5868 21.5495 48.0819C21.42 36.3028 21.1888 24.5236 20.8558 12.749C20.7634 9.39437 20.657 6.03978 20.546 2.68966C20.4998 1.28781 19.302 -0.0647787 17.7714 0.00240266C16.3147 0.0651053 14.9505 1.1848 15.0014 2.68966Z" fill="#086788"/>
<path d="M32 29C28.0751 33.4092 24.4919 38.2356 20.4215 42.5046C19.2643 43.7224 18.0973 44.9304 16.927 46.1353C16.4352 46.6392 16.8405 47.9863 17.9305 49.0132C19.0058 50.0288 20.3272 50.5439 20.8509 50.0021C24.9605 45.7718 28.9982 41.4706 32.9623 37.1C34.0934 35.8565 35.8836 33.2548 37 32C37.4673 31.4751 38.1063 28.6945 37 27.6515C35.9476 26.6585 32.5008 28.4356 32 29Z" fill="#086788"/>
<path d="M0.883395 32.0718C5.04079 36.2727 9.12452 40.5357 13.129 44.8684C14.2716 46.1005 16 49 16.5322 48.5854C17.0041 49.1079 18.3785 49.5747 19.5 48.5854C20.609 47.6096 21.2494 45.594 20.7417 45.0372C16.7793 40.669 12.7397 36.3659 8.62438 32.1295C7.45373 30.9211 6.27256 29.7215 5.08935 28.5265C3.90614 27.3316 2.02246 27.5224 0.883394 28.5265C-0.201021 29.4816 0.351131 31.5357 0.883395 32.0718Z" fill="#086788"/>
</svg>
