<svg width="73" height="73" viewBox="0 0 73 73" fill="none" xmlns="http://www.w3.org/2000/svg">
<path fill-rule="evenodd" clip-rule="evenodd" d="M21.1971 44.0096C21.409 43.7971 21.6607 43.6286 21.9379 43.5136C22.215 43.3986 22.5121 43.3394 22.8122 43.3394C23.1123 43.3394 23.4094 43.3986 23.6865 43.5136C23.9637 43.6286 24.2154 43.7971 24.4273 44.0096L36.4997 56.0865L48.5721 44.0096C49.0004 43.5812 49.5814 43.3406 50.1872 43.3406C50.793 43.3406 51.374 43.5812 51.8023 44.0096C52.2307 44.4379 52.4713 45.0189 52.4713 45.6247C52.4713 46.2305 52.2307 46.8115 51.8023 47.2398L38.1148 60.9273C37.9029 61.1398 37.6512 61.3083 37.374 61.4233C37.0969 61.5383 36.7998 61.5975 36.4997 61.5975C36.1996 61.5975 35.9025 61.5383 35.6254 61.4233C35.3482 61.3083 35.0965 61.1398 34.8846 60.9273L21.1971 47.2398C20.9846 47.0279 20.8161 46.7762 20.7011 46.499C20.5861 46.2219 20.5269 45.9248 20.5269 45.6247C20.5269 45.3246 20.5861 45.0275 20.7011 44.7504C20.8161 44.4732 20.9846 44.2215 21.1971 44.0096Z" fill="#086788"/>
<path fill-rule="evenodd" clip-rule="evenodd" d="M36.5 11.4063C37.105 11.4063 37.6853 11.6466 38.1131 12.0744C38.5409 12.5022 38.7812 13.0825 38.7812 13.6875V54.75C38.7812 55.355 38.5409 55.9353 38.1131 56.3631C37.6853 56.7909 37.105 57.0312 36.5 57.0312C35.895 57.0312 35.3147 56.7909 34.8869 56.3631C34.4591 55.9353 34.2188 55.355 34.2188 54.75V13.6875C34.2188 13.0825 34.4591 12.5022 34.8869 12.0744C35.3147 11.6466 35.895 11.4062 36.5 11.4063Z" fill="#086788"/>
</svg>
