<svg width="154" height="200" viewBox="0 0 154 200" fill="none" xmlns="http://www.w3.org/2000/svg">
<g clip-path="url(#clip0)">
<path d="M131.104 199.838H122.306C122.224 199.766 122.136 199.702 122.042 199.649C117.119 197.551 117.044 191.749 120.335 188.676C122.143 186.991 124.235 185.863 126.478 184.945C129.319 183.774 132.277 182.885 134.921 181.259C139.048 178.722 140.216 174.93 138.034 170.635C135.81 166.259 132.26 163.16 128.091 160.691C127.53 160.36 127.161 160.41 126.663 160.871C124.339 163.053 121.738 164.924 118.927 166.432C110.933 170.683 102.4 172.09 93.4251 171.363C88.1939 170.94 83.194 169.643 78.3125 167.801C79.1574 166.975 79.6484 165.854 79.6834 164.674C79.7559 163.037 80.6334 161.876 82.1028 161.15C82.8269 160.796 83.589 160.528 84.3753 160.351C86.4232 159.881 88.5128 159.811 90.5981 159.693C94.0278 159.506 97.3475 158.85 100.515 157.485C102.037 156.826 102.765 155.692 102.774 154.059C102.785 151.742 101.703 150.495 99.1732 149.812C95.2489 148.748 92.3887 146.461 91.3923 142.412C90.4773 138.697 91.5837 135.469 94.3515 132.842C95.9899 131.285 98.0161 130.454 100.222 130.052C101.52 129.815 102.6 129.284 103.111 127.983C104.197 125.22 101.667 121.856 98.7112 122.215C95.7466 122.542 92.9093 123.597 90.4556 125.288C82.3649 130.928 80.6509 142.808 86.7403 150.94C86.9601 151.243 87.3581 151.467 87.3363 151.952C85.5324 152.113 83.7376 152.27 82.0104 152.766C81.0097 153.054 80.8273 152.784 80.8973 151.823C81.4499 144.197 81.7332 136.566 81.4318 128.916C81.2277 123.763 80.9656 118.614 80.3103 113.499C79.9757 110.865 77.2986 109.25 74.7428 109.957C73.0753 110.415 72.1912 111.616 72.3494 113.519C72.7498 118.364 73.1852 123.205 73.3568 128.069C73.6297 135.934 73.4292 143.784 72.9431 151.638C72.7873 154.145 71.8433 156.686 72.9231 159.208C72.9962 159.381 72.8132 159.686 72.7033 159.91C71.7691 161.87 71.4411 164.065 71.7618 166.212C71.2406 166.531 71.0033 167.09 70.6403 167.542C68.491 170.218 65.8005 171.695 62.2808 171.524C59.4455 171.383 57.1424 169.937 56.3659 167.422C56.0095 166.267 55.3408 166.087 54.3861 166.048C52.5207 165.973 50.6466 165.901 48.7944 165.78C47.0654 165.669 47.0962 165.653 46.4164 167.264C45.2462 170.042 43.9044 172.7 41.456 174.64C39.0077 176.58 35.9061 176.874 33.4644 175.348C31.3855 174.052 30.6047 172 30.1647 169.757C29.3068 165.26 29.925 160.808 30.7102 156.385C31.9553 149.363 32.7582 142.309 33.4093 135.229C33.8493 130.325 34.2298 125.413 34.4938 120.495C34.804 114.664 35.0789 108.824 35.1537 102.985C35.2682 94.7259 35.3165 86.4655 34.9821 78.2075C34.8957 76.0553 34.8223 73.9024 34.7622 71.7489C34.749 71.2595 34.6368 70.926 34.1023 70.7568C31.423 69.8921 29.0428 68.4528 26.7969 66.8069C28.1168 65.9598 29.4366 65.1302 30.7564 64.2631C32.8506 62.874 33.3522 60.6293 32.0587 58.5573C30.7653 56.4857 28.5985 56.0467 26.3702 57.4008C24.7819 58.3635 23.1952 59.332 21.6099 60.3064C21.2447 59.1959 20.4792 58.226 20.4198 57.0145C20.818 56.9882 21.2183 56.9663 21.6165 56.9312C23.9504 56.7249 25.5761 54.8638 25.444 52.5815C25.301 50.264 23.7502 48.877 21.3085 48.8814C20.5826 48.8814 19.8567 48.8683 19.1286 48.8617C18.9856 42.787 21.2051 37.5134 24.6807 32.681C27.3337 28.9941 30.6201 25.9392 34.3464 23.3628C34.9536 22.9437 35.5189 22.5333 35.6135 21.6905C36.0534 17.8763 36.8739 14.1368 37.8308 10.4214C38.4684 7.94529 39.2319 5.50318 40.1186 3.10461C40.4551 2.18947 40.7521 1.09656 42.05 1C41.39 1.93051 40.8687 2.89393 40.7895 4.07242C40.4903 8.62178 40.1054 13.1668 39.8392 17.7162C39.6918 20.2048 41.5792 21.8244 44.0693 21.504C46.3967 21.2209 47.7341 19.8339 47.9167 17.4704C48.0245 16.0899 48.0531 14.7008 48.1895 13.3226C48.4248 10.97 48.4094 8.59544 48.8054 6.25822C49.1353 6.54353 49.1815 6.96051 49.2915 7.33798C50.365 11.0183 51.4231 14.703 52.4922 18.3833C53.1147 20.523 53.1807 20.6876 55.3672 20.5076C60.1011 20.117 64.7932 19.373 69.4808 18.6027C70.3825 18.4557 70.7086 18.0365 70.8318 17.2026C71.4725 13.049 72.6387 8.9932 74.3025 5.1324C74.4674 4.74835 74.5356 4.25457 75.0333 4.10095C74.9451 4.60131 74.782 5.10168 74.7802 5.60204C74.7579 9.73441 74.7379 13.8669 74.7802 17.9992C74.7977 19.7132 75.9923 21.0343 77.6682 21.414C80.5392 22.0724 82.7278 20.3737 82.7544 17.4506C82.787 13.5003 82.787 9.55012 82.8003 5.59985C83.0002 6.33502 83.1983 7.07242 83.4006 7.80758C84.7624 12.7739 85.9745 17.7776 86.852 22.8515C86.9951 23.6766 87.3122 24.0146 88.0973 24.2209C95.2489 26.0951 99.791 30.6993 102.077 37.6342C100.977 38.0138 99.8484 38.3408 98.777 38.7841C96.7074 39.6334 95.8383 41.885 96.6675 44.1016C97.4508 46.2018 99.1732 47.0029 101.437 46.3291C101.927 46.1821 102.422 46.0614 102.915 45.9275C102.915 47.3189 102.499 48.6444 102.255 49.9941C101.694 49.836 101.135 49.6736 100.574 49.52C99.8019 49.3115 99.0452 49.0153 98.2184 49.1426C96.496 49.4059 95.2507 50.7753 94.9427 52.7592C94.8002 53.5728 94.9319 54.4105 95.3178 55.1414C95.7037 55.8721 96.3215 56.4545 97.0746 56.7973C97.5625 57.0167 98.0753 57.2032 98.5771 57.403C97.8995 58.8712 96.6542 59.8675 95.5503 60.9737C95.0309 61.4957 94.9168 61.8516 95.563 62.3695C97.7498 64.1405 99.9033 65.955 102.064 67.7592C108.61 73.2281 114.923 78.9338 120.57 85.3507C125.85 91.3465 130.405 97.8051 133.676 105.102C137.699 114.085 139.6 123.464 138.863 133.342C138.487 138.854 137.099 144.25 134.767 149.261C134.422 149.997 134.605 150.253 135.269 150.556C136.666 151.197 138.049 151.873 139.391 152.617C143.617 154.963 147.444 157.798 150.405 161.685C152.02 163.803 153.089 166.191 154 168.666V179.42C153.925 179.498 153.861 179.585 153.811 179.681C150.99 187.473 145.341 192.719 138.366 196.777C136.065 198.115 133.579 198.96 131.104 199.838ZM61.6165 117.234C61.5682 114.675 61.6606 112.114 61.3967 109.553C61.3273 108.764 61.0174 108.015 60.5089 107.408C60.0006 106.799 59.3178 106.361 58.5525 106.151C56.1745 105.438 53.2379 106.673 53.3962 110.119C53.8268 118.924 53.4934 127.748 52.3998 136.496C51.6885 142.001 50.6989 147.468 49.4345 152.874C49.2532 153.548 49.2661 154.259 49.4719 154.926C49.7785 155.793 50.353 156.541 51.1128 157.061C51.8726 157.582 52.7784 157.849 53.6998 157.823C55.5542 157.785 56.7619 156.745 57.2502 154.702C60.187 142.429 61.6528 129.852 61.6165 117.234ZM40.1054 43.3379C40.1582 40.9238 38.6008 39.2362 36.2624 39.1967C33.9241 39.1572 32.3315 40.7329 32.2853 43.0833C32.2369 45.5083 33.7723 47.1609 36.1326 47.2267C38.4181 47.2904 40.046 45.6971 40.0988 43.3379H40.1054ZM83.15 41.4199C85.4841 41.4352 87.0742 39.8661 87.1099 37.5157C87.1467 35.1016 85.5699 33.4513 83.2073 33.4491C80.9106 33.4491 79.3048 35.0665 79.2831 37.3994C79.2607 39.7322 80.8756 41.4044 83.15 41.4199Z" fill="#74A3D7"/>
<path d="M20.4225 57.0899C16.0229 57.1718 11.6294 57.253 7.24156 57.3335C6.54427 57.3467 5.84473 57.3335 5.15621 57.4169C2.95646 57.678 1.13287 57.1294 0 55.0643V51.9919C1.09987 49.8412 2.94986 49.3145 5.242 49.3276C9.4765 49.3496 13.711 49.174 17.9434 49.0731C18.3415 49.0731 18.7353 48.9831 19.1312 48.937C19.8594 48.937 20.5853 48.9568 21.3112 48.9568C23.7529 48.9568 25.3037 50.3394 25.4467 52.6568C25.5897 54.9392 23.953 56.8002 21.6191 57.0065C21.221 57.0416 20.8206 57.0635 20.4225 57.0899Z" fill="#295463"/>
<path d="M78.3115 167.859C76.9478 168.737 75.496 169.027 73.9385 168.463C72.8847 168.083 72.2179 167.282 71.7608 166.29C71.4431 164.141 71.7746 161.947 72.7131 159.987C72.8188 159.768 73.0012 159.458 72.933 159.285C71.8532 156.756 72.7965 154.222 72.9529 151.716C73.4391 143.862 73.639 136.011 73.3666 128.146C73.1951 123.283 72.759 118.442 72.3586 113.596C72.2004 111.693 73.0846 110.493 74.752 110.034C77.3084 109.327 79.9856 110.953 80.3195 113.576C80.9796 118.692 81.2369 123.84 81.4416 128.993C81.743 136.643 81.4591 144.274 80.9071 151.9C80.8365 152.862 81.0195 153.131 82.0202 152.844C83.7468 152.348 85.5398 152.185 87.3456 152.03C87.3679 151.544 86.976 151.321 86.7495 151.018C80.6608 142.885 82.3747 131.005 90.4648 125.366C92.9192 123.675 95.7564 122.619 98.7204 122.293C101.671 121.933 104.2 125.297 103.12 128.06C102.61 129.362 101.53 129.893 100.232 130.13C98.032 130.532 95.9998 131.363 94.3607 132.919C91.5935 135.553 90.4872 138.775 91.4021 142.49C92.3901 146.53 95.2497 148.817 99.1697 149.874C101.699 150.557 102.781 151.804 102.77 154.121C102.77 155.754 102.034 156.891 100.511 157.547C97.3435 158.912 94.0243 159.568 90.5947 159.755C88.5093 159.869 86.4155 159.939 84.3718 160.413C83.5855 160.59 82.8228 160.858 82.0993 161.211C80.6342 161.938 79.7567 163.099 79.68 164.737C79.6443 165.914 79.154 167.033 78.3115 167.859Z" fill="#295463"/>
<path d="M61.6167 117.303C61.6535 129.923 60.1879 142.504 57.2504 154.779C56.7621 156.822 55.5544 157.852 53.7 157.9C52.7786 157.926 51.8728 157.659 51.113 157.139C50.3532 156.618 49.7787 155.871 49.4721 155.003C49.2663 154.336 49.2534 153.625 49.4347 152.951C50.6991 147.545 51.6887 142.079 52.4 136.573C53.4936 127.826 53.827 119.001 53.3965 110.196C53.2381 106.751 56.1747 105.515 58.5527 106.228C59.318 106.439 60.0008 106.877 60.5091 107.484C61.0176 108.093 61.3274 108.842 61.3968 109.63C61.6608 112.182 61.5684 114.744 61.6167 117.303Z" fill="#295463"/>
<path d="M60.4382 65.6187C58.9969 62.8658 57.9955 59.9488 57.1161 56.9833C56.9483 56.4245 56.8006 55.8489 56.6035 55.2976C55.9906 53.5801 54.4145 52.8127 52.6231 53.3324C50.8317 53.8521 49.7609 55.4634 50.2389 57.2292C51.5096 62.0187 53.2909 66.6519 55.551 71.0453C57.6507 75.0664 60.8706 75.4072 63.7598 71.9407C66.3596 68.8302 68.7838 65.5613 71.2043 62.3015C72.5746 60.4573 71.708 57.6726 69.6081 56.7729C68.4335 56.2699 67.3042 56.514 66.4508 57.667C64.6922 60.0401 62.7657 62.2827 61.1387 64.7583C60.9467 65.058 60.8229 65.4308 60.4382 65.6187Z" fill="#295463"/>
<path d="M102.238 50.0673C107.605 51.6912 113.105 52.6042 118.684 53.0783C120.105 53.1989 121.543 53.234 122.958 53.335C123.682 53.3794 124.383 53.6113 124.99 54.008C125.598 54.4046 126.091 54.9523 126.422 55.597C126.753 56.2418 126.91 56.9613 126.877 57.6849C126.844 58.4085 126.623 59.1111 126.235 59.7235C125.439 61.0072 124.205 61.4332 122.751 61.3715C114.886 61.067 107.087 59.8217 99.5195 57.6627C99.2072 57.5728 98.8811 57.5377 98.5604 57.4762C98.0586 57.2765 97.5459 57.0987 97.0579 56.8705C96.3048 56.5277 95.687 55.9453 95.3011 55.2146C94.9152 54.4838 94.7835 53.646 94.926 52.8325C95.234 50.8573 96.4793 49.4791 98.2017 49.2158C99.0291 49.0885 99.7858 49.3848 100.558 49.5932C101.119 49.7491 101.677 49.9093 102.238 50.0673Z" fill="#295463"/>
<path d="M102.068 37.7074L117 33.0087C118.08 32.6686 119.156 32.3109 120.24 31.9904C122.502 31.3211 124.283 32.2275 125.02 34.4045C125.77 36.6123 124.888 38.7936 122.786 39.5442C120.381 40.411 117.926 41.1287 115.493 41.9187C111.293 43.2794 107.094 44.6422 102.897 46.0072C102.404 46.1411 101.91 46.2618 101.419 46.4089C99.1559 47.0826 97.4335 46.2816 96.6503 44.1814C95.8211 41.9648 96.6895 39.7132 98.7598 38.8639C99.8486 38.414 100.968 38.087 102.068 37.7074Z" fill="#295463"/>
<path d="M26.8081 66.8798C22.8324 69.3378 18.8575 71.7964 14.8832 74.2562C13.5458 75.0901 12.1666 75.4169 10.7587 74.5547C9.27607 73.6502 8.52818 72.2719 8.57214 70.5209C8.60953 69.0242 9.45206 68.0369 10.6773 67.2792C14.1177 65.142 17.5567 62.9928 20.9941 60.8321C21.2141 60.6979 21.4077 60.5378 21.6123 60.3928C23.1976 59.4229 24.7843 58.4543 26.3725 57.4872C28.6008 56.1332 30.772 56.5765 32.0611 58.6438C33.3501 60.7112 32.853 62.9493 30.7588 64.3499C29.4544 65.2037 28.1257 66.0327 26.8081 66.8798Z" fill="#295463"/>
<path d="M42.9767 0.473978C43.4672 0.340109 43.949 0.171126 44.4483 0.0789536C46.9956 -0.386298 48.916 1.24867 48.8654 3.82291C48.8478 4.65905 48.8258 5.49299 48.806 6.32695C48.4035 8.66417 48.4255 11.0387 48.1901 13.3913C48.0537 14.7695 48.0251 16.1587 47.9173 17.539C47.7348 19.9026 46.3973 21.2896 44.0722 21.588C41.582 21.9085 39.6946 20.2889 39.8421 17.8002C40.1082 13.2508 40.502 8.70586 40.7923 4.15649C40.8715 2.96922 41.3995 2.00579 42.0528 1.08407L42.2507 0.932647C42.3428 0.929094 42.432 0.899021 42.5073 0.846061C42.5827 0.7931 42.641 0.719511 42.6753 0.634181L42.9767 0.473978Z" fill="#295463"/>
<path d="M80.0315 2.25363C81.7189 2.77813 82.6272 3.92809 82.8011 5.67279C82.7878 9.62304 82.7879 13.5733 82.7552 17.5235C82.7311 20.4467 80.54 22.1322 77.669 21.487C75.9931 21.1007 74.7919 19.7795 74.7919 18.0656C74.7502 13.9332 74.7702 9.8008 74.7919 5.66839C74.7919 5.16803 74.9568 4.66766 75.045 4.1673C76.277 2.44016 77.9728 1.87616 80.0315 2.25363Z" fill="#295463"/>
<path d="M40.0996 43.4066C40.0468 45.7657 38.419 47.3568 36.1268 47.2953C33.7665 47.2295 32.2311 45.577 32.2794 43.152C32.3256 40.806 33.9425 39.2259 36.2566 39.2654C38.5707 39.3049 40.1523 40.9816 40.0996 43.4066Z" fill="#295463"/>
<path d="M83.1503 41.4886C80.8759 41.4732 79.2635 39.7988 79.2834 37.4725C79.3033 35.1463 80.911 33.5222 83.2077 33.5222C85.5678 33.5222 87.1476 35.1704 87.1102 37.5888C87.0746 39.9348 85.4845 41.504 83.1503 41.4886Z" fill="#295463"/>
<path d="M80.0314 2.25364C77.9727 1.87617 76.2769 2.44017 75.0273 4.16512C75.3154 2.0254 78.1532 0.941275 80.0314 2.25364Z" fill="#74A3D7"/>
<path d="M42.6755 0.633959C42.6399 0.717645 42.581 0.789391 42.5057 0.840727C42.4305 0.892062 42.3421 0.920835 42.251 0.923645C42.295 0.684431 42.4556 0.620793 42.6755 0.633959Z" fill="#74A3D7"/>
<path d="M42.9769 0.473877L42.6689 0.636273L42.9769 0.473877Z" fill="#74A3D7"/>
</g>
<defs>
<clipPath id="clip0">
<rect width="154" height="200" fill="white"/>
</clipPath>
</defs>
</svg>
