<svg width="372" height="248" viewBox="0 0 372 248" fill="none" xmlns="http://www.w3.org/2000/svg">
<path d="M276.942 114.334C276.729 127.705 276.486 141.084 276.742 154.456C276.901 162.729 276.826 171.002 276.989 179.275C277.058 182.706 277.18 186.139 277.236 189.57C277.286 192.719 275.388 194.678 272.225 194.612C264.367 194.45 256.509 194.253 248.644 194.303C241.664 194.347 234.684 194.287 227.708 194.393C218.652 194.534 209.6 194.775 200.548 195.009C193.733 195.184 186.919 195.375 180.108 195.628C168.405 196.062 156.702 196.306 144.996 196.596C128.283 197.015 111.569 196.977 94.8554 196.715C84.2496 196.549 73.6438 196.024 63.0662 195.19C52.7104 194.375 42.3735 193.344 32.074 191.91C23.1717 190.669 14.3164 189.192 5.50166 187.454C2.75722 186.914 1.41626 185.524 1.2756 182.721C1.04116 178.047 0.828611 173.373 0.684825 168.696C0.0596674 148.201 -0.152886 127.699 0.0940511 107.198C0.203454 98.2528 0.444139 89.3079 0.722334 80.3662C0.953643 73.1397 1.25059 65.9195 1.64444 58.7024C2.20708 48.3235 2.84474 37.9508 3.53242 27.5813C3.96378 21.1047 4.5608 14.6374 5.06093 8.16385C5.3485 4.46156 7.05205 2.86193 10.7686 2.83068C25.5036 2.70884 40.2417 2.69946 54.9735 2.40578C65.3355 2.19958 75.6975 2.40266 86.0532 2.10897C95.8932 1.83091 105.736 2.07461 115.57 1.79342C125.254 1.51536 134.941 1.7653 144.618 1.49661C154.977 1.20918 165.342 1.45287 175.698 1.16544C185.069 0.906121 194.443 1.14044 203.808 0.871753C213.492 0.590567 223.178 0.828013 232.856 0.540579C241.602 0.281262 250.348 0.431228 259.094 0.268765C261.591 0.221901 264.101 0.275014 266.577 0.0219462C268.48 -0.17176 269.946 0.909245 271.644 1.26229C273.319 1.61221 275.023 1.83091 276.704 2.15584C279.108 2.61823 280.471 4.15226 280.427 6.58921C280.358 10.279 280.165 13.9688 279.983 17.6554C279.855 20.2486 279.608 22.8386 279.499 25.4318C279.13 34.2111 278.792 42.9935 278.455 51.7727C278.158 59.5147 277.877 67.2567 277.589 74.9987C276.892 74.655 276.214 74.2676 275.495 73.9739C273.635 73.2178 271.791 72.9616 270.078 74.3645C267.146 70.4903 264.204 66.6225 261.282 62.739C260.047 61.0956 258.519 59.6772 257.553 57.8338C257.671 53.7816 257.671 49.72 257.956 45.6772C258.125 43.2871 258.115 40.9002 258.259 38.5132C258.55 33.7455 258.869 28.981 259.078 24.2102C259.147 22.6918 258.65 21.0922 257.053 20.6766C253.917 19.8643 250.704 18.8458 247.516 18.8271C234.763 18.7583 222.009 18.7021 209.253 18.977C192.858 19.3301 176.454 18.9427 160.053 19.2988C144.802 19.63 129.545 19.2582 114.292 19.6113C99.7192 19.9456 85.1374 19.6113 70.5618 19.9112C57.7023 20.1768 44.8335 20.0237 31.9708 20.0487C30.98 20.0518 30.0016 20.0986 29.0232 20.283C26.9164 20.6766 25.8474 21.8233 25.6755 23.9728C25.1566 30.4369 24.5846 36.898 24.1345 43.3684C23.6562 50.2574 23.228 57.1496 22.8904 64.048C22.5122 71.7276 22.1965 79.4133 21.9652 87.0991C21.7651 93.7007 21.6714 100.309 21.6276 106.913C21.5557 117.786 21.5463 128.662 21.887 139.534C22.0465 144.627 22.0933 149.725 22.2653 154.818C22.3934 158.605 22.6247 162.391 22.8404 166.175C22.9498 168.096 24.0313 169.327 25.9162 169.762C26.5226 169.902 27.1415 169.971 27.7542 170.09C38.5006 172.211 49.3346 173.761 60.2217 174.898C67.6017 175.67 75.0036 176.304 82.4117 176.744C90.4543 177.226 98.5095 177.597 106.565 177.685C121.453 177.844 136.344 177.897 151.232 177.5C159.187 177.288 167.142 177.141 175.098 176.888C184.353 176.591 193.612 176.401 202.87 176.244C209.065 176.141 215.267 176.282 221.462 176.107C224.948 176.01 228.442 175.757 231.912 175.982C238.773 176.426 245.643 175.923 252.505 176.423C255.143 176.613 256.671 174.817 256.634 172.136C256.568 167.456 256.493 162.779 256.399 158.099C256.202 148.16 256.274 138.216 256.277 128.271C256.28 115.421 256.193 102.567 256.565 89.7172C257.612 90.9263 258.678 92.1167 259.7 93.3445C263.539 97.9591 267.39 102.567 271.187 107.216C273.119 109.578 275.251 111.778 276.942 114.334Z" fill="#C2998A"/>
<path d="M296.618 227.405C298.109 219.875 299.585 212.339 301.098 204.813C304.911 185.842 308.743 166.875 312.572 147.907C312.666 147.451 312.798 147.001 312.91 146.548C314.329 147.551 315.823 146.592 317.539 146.851C316.458 145.648 316.645 144.502 316.78 143.236C317.111 140.153 317.049 137.047 316.592 133.963C316.548 133.664 316.411 133.585 316.086 133.557C313.62 133.345 313.391 133.095 313.091 130.499C313.088 130.417 313.107 130.342 313.144 130.271C314.248 129.327 315.645 129.402 316.955 129.19C321.243 128.493 325.529 127.774 329.827 127.159C330.811 127.018 331.018 126.587 331.015 125.74C330.996 123.041 331.14 120.342 331.196 117.645C331.399 108.144 331.227 98.634 331.605 89.133C331.655 87.8708 331.352 87.7614 330.261 88.3144C328.008 89.4548 326.248 88.6581 325.348 86.2899C324.719 84.6309 324.5 82.9031 324.447 81.1567C324.382 78.9228 324.454 76.6858 324.366 74.4519C324.247 71.3933 324.644 70.9121 327.607 70.8996L327.579 70.9027C327.676 71.0152 327.77 71.1246 327.867 71.237C328.101 71.6401 328.336 72.0431 328.57 72.4461C327.692 76.314 328.514 80.11 328.958 84.0466C330.399 83.4936 331.252 82.4782 331.552 81.2379C332.149 78.7822 334.072 77.9324 336.272 79.3102C337.016 79.7757 337.791 80.185 338.56 80.6037C339.542 81.1379 340.039 81.0317 340.076 79.7164C340.139 77.3013 339.22 75.1611 338.429 72.9804C338.019 71.8525 337.885 70.8559 339.232 70.2435C340.226 69.7905 341.708 70.1685 342.108 71.3058C343.324 74.755 344.802 78.1667 344.481 81.9627C344.284 84.3091 342.702 85.7056 340.345 85.6431C338.998 85.6057 337.869 84.9902 336.747 84.3466C336.397 84.1466 336.035 83.7467 335.644 83.9154C335.181 84.1154 335.406 84.6559 335.413 85.0402C335.631 97.7342 335.037 110.422 335.069 123.113C335.069 123.581 334.981 124.025 334.869 124.487C334.537 125.859 334.862 126.15 336.244 125.843C340.645 124.866 344.918 123.491 349.091 121.779C350.182 121.332 350.498 120.738 350.332 119.667C349.988 117.417 349.847 115.149 349.719 112.874C349.56 110.038 349.316 107.201 349.032 104.373C348.782 101.905 348.453 99.4431 348.497 96.9593C348.519 95.6596 349.638 94.9317 350.87 95.3722C352.023 95.7846 352.558 96.6407 352.601 97.8716C352.676 99.8868 352.761 101.902 352.933 103.911C353.317 108.432 353.814 112.946 354.136 117.473C354.208 118.504 354.352 119.111 355.461 119.217C356.462 119.314 356.852 120.038 356.977 120.913C357.099 121.757 356.721 122.285 356.008 122.844C353.517 124.8 350.529 125.678 347.669 126.756C339.576 129.808 331.061 131.123 322.566 132.47C320.665 132.77 320.531 133.039 320.846 135.013C321.437 138.69 321.172 142.368 320.562 146.167C323.247 145.555 325.92 144.964 328.58 144.339C332.54 143.408 336.575 143.168 340.617 142.986C340.855 144.833 341.905 145.567 343.802 145.217C344.846 145.023 345.893 144.833 346.937 144.642L346.941 144.645C346.44 146.011 346.837 147.285 347.347 148.541C347.991 150.129 348.722 151.691 349.763 153.047C351.06 154.737 352.545 156.277 354.38 157.405C355.121 157.861 355.968 158.027 356.721 157.455C357.324 156.996 357.618 156.312 357.546 155.53C357.471 154.712 356.815 154.249 356.258 153.846C352.97 151.478 351.06 148.285 350.376 144.324C352.614 144.167 354.846 144.002 356.943 143.093C357.496 150.597 358.053 158.102 358.603 165.606C359.194 173.642 359.784 181.681 360.372 189.716C361.169 200.658 361.966 211.599 362.76 222.54C363.007 225.964 363.254 229.386 363.485 232.81C363.538 233.588 363.598 234.391 362.807 234.906C360.566 233.894 360.322 233.953 358.831 235.853C358.012 235.962 357.19 236.053 356.374 236.184C352.804 236.765 349.182 236.987 345.64 237.774C342.439 237.721 342.464 237.715 341.645 234.659C337.744 220.041 334.525 205.272 331.943 190.363C331.884 190.019 332.115 189.445 331.405 189.466C331.687 186.236 332.109 183.012 332.212 179.775C332.352 175.417 332.227 171.052 332.265 166.687C332.277 165.388 331.946 164.585 330.449 164.619C328.848 164.656 328.445 164.96 328.508 166.69C328.689 171.774 328.27 176.844 328.148 181.921C328.083 184.699 327.751 187.476 327.376 190.232C327.107 192.206 327.501 192.894 329.52 193.1C328.004 204.351 326.207 215.554 324.285 226.742C324.038 228.17 323.819 229.611 323.466 231.013C322.672 234.172 320.981 235.397 317.736 235.29C317.167 235.272 316.595 235.259 316.026 235.244C315.745 235.131 315.47 234.984 315.176 234.912C310.15 233.666 305.117 232.426 300.088 231.185C298.669 230.173 297.806 228.639 296.618 227.405Z" fill="#295463"/>
<path d="M340.623 142.99C336.582 143.171 332.546 143.411 328.586 144.342C325.926 144.967 323.253 145.561 320.568 146.17C321.178 142.368 321.443 138.694 320.853 135.016C320.537 133.042 320.671 132.773 322.572 132.473C331.068 131.127 339.582 129.811 347.675 126.759C350.535 125.681 353.523 124.803 356.015 122.847C356.724 122.288 357.102 121.76 356.984 120.916C356.859 120.042 356.471 119.314 355.468 119.22C354.358 119.114 354.217 118.508 354.142 117.477C353.82 112.949 353.323 108.438 352.939 103.914C352.767 101.905 352.683 99.8899 352.608 97.8747C352.564 96.6438 352.029 95.7877 350.876 95.3753C349.641 94.9348 348.525 95.6628 348.503 96.9625C348.46 99.4463 348.788 101.908 349.038 104.376C349.325 107.204 349.566 110.041 349.726 112.878C349.854 115.152 349.994 117.42 350.338 119.67C350.501 120.741 350.188 121.335 349.097 121.782C344.921 123.494 340.651 124.869 336.25 125.847C334.869 126.153 334.544 125.862 334.875 124.491C334.987 124.028 335.075 123.585 335.075 123.116C335.044 110.422 335.638 97.7373 335.419 85.0433C335.413 84.6621 335.188 84.1216 335.65 83.9185C336.044 83.7498 336.403 84.1497 336.754 84.3497C337.876 84.9933 339.007 85.6088 340.351 85.6463C342.711 85.7088 344.29 84.3122 344.487 81.9659C344.809 78.1698 343.327 74.7581 342.114 71.3089C341.714 70.1717 340.233 69.7936 339.239 70.2466C337.891 70.859 338.026 71.8557 338.435 72.9835C339.229 75.1674 340.148 77.3044 340.082 79.7195C340.048 81.0348 339.551 81.141 338.566 80.6068C337.798 80.1881 337.019 79.7789 336.278 79.3133C334.075 77.9355 332.155 78.7853 331.558 81.241C331.255 82.4814 330.405 83.4968 328.964 84.0498C328.52 80.1131 327.698 76.3171 328.576 72.4493C329.583 74.1832 330.589 75.9172 331.59 77.6543C331.921 78.2292 332.256 78.8978 332.84 77.8824C334.25 75.4205 335.575 72.9179 336.113 70.0904C337.476 68.4814 339.254 68.9844 340.886 69.2937C348.388 70.709 353.383 75.333 357.159 81.7503C363.704 92.8696 368.202 104.789 371.053 117.298C372.659 124.341 370.096 130.186 364.295 134.523C362.888 135.576 361.463 136.644 359.744 137.185C358.412 135.585 357.834 135.482 356.049 136.482C351.845 138.834 347.416 140.543 342.617 141.231C341.592 141.374 340.648 141.684 340.623 142.99Z" fill="#74A2D6"/>
<path d="M327.607 70.9058C324.644 70.9183 324.247 71.3995 324.366 74.4582C324.454 76.692 324.382 78.929 324.447 81.1629C324.5 82.9094 324.719 84.6371 325.347 86.2961C326.245 88.6643 328.008 89.461 330.261 88.3206C331.355 87.7676 331.655 87.877 331.605 89.1392C331.227 98.6402 331.399 108.147 331.196 117.651C331.14 120.348 330.996 123.044 331.015 125.747C331.021 126.593 330.811 127.024 329.827 127.165C325.526 127.78 321.243 128.499 316.955 129.196C315.645 129.408 314.248 129.333 313.144 130.277C313.032 126.784 314.101 123.438 314.448 120.004C315.504 120.416 316.548 120.551 317.102 119.307C317.389 118.661 317.436 117.901 317.536 117.183C318.352 111.384 319.165 105.585 319.952 99.7868C320.246 97.631 320.534 95.469 320.703 93.3007C320.806 91.9667 319.909 91.3418 318.674 91.2075C317.492 91.0825 316.995 91.7542 316.855 92.8477C316.658 94.388 316.392 95.922 316.189 97.4623C315.267 104.448 314.079 111.4 313.385 118.417C310.647 119.285 307.978 120.448 305.021 120.373C303.273 118.654 301.976 116.583 300.51 114.643C295.859 108.479 291.214 102.311 286.569 96.1439C288.476 93.2601 290.357 90.3608 292.577 87.702C295.496 90.5451 298.416 93.3882 301.335 96.2313C300.557 98.6745 300.932 101.049 301.826 103.37C302.345 104.717 303.404 105.254 304.505 104.779C305.786 104.23 306.111 103.217 305.639 101.971C305.189 100.787 304.989 99.5837 305.008 98.3184C305.042 96.122 304.464 95.5784 302.257 95.594C305.299 88.1925 308.906 81.1504 314.879 75.5923C317.696 72.971 320.909 71.0152 324.494 69.6374C325.601 69.2125 326.613 69.1843 327.536 70.0279C327.557 70.3153 327.582 70.609 327.607 70.9058Z" fill="#74A2D6"/>
<path d="M286.566 96.1375C291.214 102.305 295.856 108.475 300.507 114.636C301.973 116.577 303.27 118.648 305.017 120.366C305.636 121.838 306.808 122.91 307.831 124.059C310.466 127.027 311.213 130.161 309.075 133.707C307.371 135.71 305.214 136.86 302.595 137.131C298.86 137.241 295.834 135.635 293.321 133.06C289.079 128.711 285.281 123.966 281.318 119.367C279.867 117.683 278.608 115.83 276.942 114.33C275.25 111.775 273.119 109.578 271.19 107.216C267.392 102.567 263.544 97.959 259.703 93.3444C258.681 92.1166 257.615 90.9262 256.568 89.7171C252.973 85.2994 249.341 80.9066 245.793 76.4514C243.442 73.4989 240.786 70.7933 238.744 67.594C240.745 67.7315 242.42 66.991 244.033 65.8507C245.631 64.7228 247.356 63.7761 249.031 62.7576C249.46 62.4983 249.853 62.0984 250.438 62.3046C248.9 64.3416 249.156 66.2006 250.644 68.247C263.769 86.296 276.835 104.389 289.917 122.469C292.814 126.474 295.687 130.495 298.597 134.488C299.81 136.157 301.001 136.481 302.626 135.704C304.952 134.591 305.477 132.061 303.836 129.792C287.929 107.785 272.003 85.7868 256.13 63.7543C254.895 62.039 253.517 61.1486 251.404 61.6391C251.81 60.7893 252.679 60.4425 253.411 60.0863C255.114 59.2553 255.889 58.0118 255.714 56.1466C256.327 56.7059 256.936 57.2682 257.549 57.8275C258.515 59.6739 260.044 61.0924 261.278 62.7326C264.198 66.6161 267.139 70.484 270.074 74.3581C272.634 77.8042 275.166 81.2753 277.77 84.687C278.629 85.8117 279.239 87.1958 280.63 87.855C281.233 89.8577 282.827 91.1855 284.003 92.7977C284.772 93.9818 285.584 95.1221 286.566 96.1375Z" fill="#ED85AF"/>
<path d="M324.16 62.114C323.069 61.2642 322.756 60.2207 323.403 58.9616C323.616 58.5492 323.625 58.2774 323.097 58.1805C320.659 57.74 319.759 55.8748 319.565 53.7972C319.112 48.942 319.837 44.2275 322.316 39.9534C324.463 36.248 327.664 35.1639 331.643 36.7573C337.31 39.0286 340.545 43.5432 342.564 49.0764C343.136 50.6448 343.393 52.2881 343.515 53.9565C343.687 56.2935 343.071 58.1805 340.711 59.1366C340.092 59.1772 339.451 59.3365 338.857 59.2303C337.785 59.0397 337.072 58.8898 337.188 60.4769C337.269 61.5767 336.344 62.239 335.184 62.1515C334.1 62.0703 333.565 61.3829 333.447 60.3051C333.356 59.4834 333.837 58.8866 334.272 58.2493C332.628 57.4963 331.196 56.659 330.052 55.428C329.546 54.8844 329.227 55.0219 328.83 55.5311C327.967 56.6403 326.832 57.412 325.529 57.9868C327.292 59.4803 327.364 60.2301 325.992 62.1921L326.02 62.1734C325.401 62.1515 324.782 62.1328 324.16 62.114Z" fill="#295463"/>
<path d="M291.308 229.939C292.008 229.298 292.902 229.367 293.752 229.27C293.98 231.179 295.603 232.151 296.625 233.525C297.2 234.3 297.906 234.869 298.994 234.488C300.01 234.134 300.441 233.41 300.454 232.376C305.611 233.375 310.785 234.328 315.376 237.106C316.123 239.574 315.17 241.605 312.701 242.798C311.66 243.301 310.541 243.595 309.4 243.626C302.536 243.82 295.706 243.339 288.91 242.386C287.366 242.17 285.897 241.608 284.609 240.667C282.953 239.461 282.421 237.559 283.528 235.893C284.922 233.797 286.879 232.279 289.176 231.226C289.135 232.119 289.126 233.066 289.942 233.619C290.82 234.213 291.214 235.037 291.589 235.965C292.02 237.034 292.883 237.624 294.065 237.221C295.271 236.812 295.715 235.878 295.403 234.644C294.837 232.394 293.48 230.807 291.308 229.939Z" fill="#C29A8A"/>
<path d="M368.136 238.424C368.971 238.508 369.531 239.102 370.109 239.586C372.981 241.986 372.522 245.023 369.109 246.494C367.408 247.228 365.589 247.363 363.788 247.572C359.072 248.122 354.346 248.325 349.71 247.053C347.125 246.344 344.862 245.132 344.28 242.111C343.993 240.617 344.293 239.436 345.69 238.665C349.901 238.902 354.055 238.39 358.2 237.734C357.837 239.315 358.265 240.405 359.406 240.795C360.563 241.192 361.594 240.542 362.188 238.996C362.538 238.087 362.829 237.156 363.148 236.237C364.07 236.296 364.889 236.696 365.72 237.043C363.935 237.634 363.732 239.43 362.92 240.752C362.285 241.789 362.754 242.658 363.613 243.307C364.507 243.985 365.523 243.798 366.108 243.001C367.102 241.645 368.136 240.246 368.136 238.424Z" fill="#C29A8A"/>
<path d="M325.995 62.1953C327.367 60.2333 327.295 59.4834 325.532 57.99C326.839 57.4152 327.97 56.6403 328.833 55.5343C329.23 55.0251 329.545 54.8876 330.055 55.4312C331.202 56.6622 332.631 57.4995 334.275 58.2525C333.84 58.8898 333.359 59.4834 333.45 60.3083C333.568 61.3893 334.103 62.0766 335.187 62.1547C336.347 62.2391 337.269 61.5767 337.191 60.4801C337.075 58.8929 337.788 59.046 338.86 59.2335C339.454 59.3397 340.095 59.1804 340.714 59.1398C340.47 62.7952 339.648 66.21 336.55 68.5939C335.972 69.0406 335.994 69.5155 336.106 70.0904C335.569 72.921 334.244 75.4204 332.834 77.8824C332.252 78.9009 331.915 78.2292 331.583 77.6543C330.58 75.9172 329.574 74.1832 328.57 72.4492C328.336 72.0462 328.101 71.6432 327.867 71.2401C327.773 71.1277 327.676 71.0183 327.579 70.9058L327.607 70.9027C327.582 70.609 327.557 70.3154 327.529 70.0185C327.92 68.497 327.051 67.3879 326.298 66.2444C326.96 66.235 327.601 66.1226 328.217 66.6006C329.249 67.4004 330.355 67.2504 331.077 66.2288C331.799 65.204 331.446 64.1699 330.524 63.3326C329.211 62.1453 327.623 62.0953 325.995 62.1953Z" fill="#F4D1BC"/>
<path d="M340.623 142.99C340.648 141.684 341.589 141.374 342.615 141.231C347.413 140.546 351.842 138.837 356.046 136.482C357.831 135.482 358.409 135.588 359.741 137.185C359.866 138.675 358.991 139.54 357.834 140.228C355.065 141.521 352.354 142.952 349.091 143.877C349.732 144.099 350.06 144.211 350.388 144.327C351.073 148.288 352.983 151.478 356.271 153.85C356.831 154.253 357.484 154.715 357.559 155.534C357.631 156.318 357.337 157.002 356.734 157.458C355.98 158.03 355.133 157.864 354.392 157.408C352.555 156.28 351.073 154.74 349.776 153.05C348.735 151.694 348.003 150.132 347.359 148.544C346.85 147.289 346.453 146.014 346.953 144.649C347.297 144.642 347.663 144.695 347.888 144.333C347.991 144.249 348.313 144.474 348.216 144.105C348.107 144.183 347.997 144.261 347.888 144.336C347.544 144.349 347.175 144.277 346.947 144.645C345.903 144.836 344.856 145.027 343.812 145.22C341.911 145.57 340.861 144.836 340.623 142.99Z" fill="#295463"/>
<path d="M329.527 193.103C327.507 192.897 327.114 192.21 327.382 190.235C327.761 187.479 328.089 184.699 328.154 181.924C328.276 176.847 328.695 171.78 328.514 166.693C328.451 164.963 328.852 164.66 330.455 164.622C331.952 164.588 332.284 165.391 332.271 166.69C332.234 171.052 332.359 175.42 332.218 179.778C332.115 183.015 331.693 186.239 331.412 189.47C331.368 190.982 331.48 192.578 329.527 193.103Z" fill="#295463"/>
<path d="M280.633 87.8613C279.242 87.2052 278.633 85.8212 277.773 84.6933C275.169 81.2816 272.638 77.8136 270.077 74.3644C271.79 72.9647 273.635 73.2209 275.494 73.9739C276.213 74.2644 276.892 74.655 277.589 74.9986C280.224 77.4543 282.856 79.91 285.491 82.3657C283.872 84.1965 282.252 86.0274 280.633 87.8613Z" fill="#F5D2BD"/>
<path d="M302.592 137.135C305.211 136.863 307.368 135.713 309.075 133.71C310.319 133.404 311.563 133.095 312.807 132.789C312.557 134.998 312.604 137.219 312.547 139.437C312.513 140.765 312.822 142.118 312.31 143.418C309.103 142.877 306.249 141.534 303.583 139.709C302.607 139.044 302.523 138.144 302.592 137.135Z" fill="#F5D2BD"/>
<path d="M312.307 143.417C312.819 142.118 312.51 140.765 312.544 139.437C312.601 137.219 312.551 135.001 312.804 132.789C312.96 132.033 312.713 131.23 313.091 130.502C313.391 133.098 313.62 133.345 316.086 133.56C316.411 133.588 316.549 133.667 316.592 133.966C317.049 137.05 317.111 140.156 316.78 143.239C316.645 144.505 316.458 145.651 317.539 146.854C315.826 146.595 314.329 147.551 312.91 146.551C311.966 145.648 312.363 144.489 312.307 143.417Z" fill="#74A2D6"/>
<path d="M280.633 87.8614C282.252 86.0305 283.872 84.1997 285.491 82.3689C287.604 81.8596 288.398 83.578 289.514 84.7527C287.676 87.4364 285.841 90.1202 284.006 92.804C282.831 91.1919 281.237 89.864 280.633 87.8614Z" fill="#74A2D6"/>
<path d="M284.006 92.804C285.841 90.1202 287.679 87.4365 289.514 84.7527C290.017 84.6621 290.523 84.4809 291.023 84.4965C292.758 84.5559 293.377 85.865 292.571 87.6958C290.348 90.3546 288.47 93.257 286.563 96.1376C285.584 95.1222 284.772 93.9819 284.006 92.804Z" fill="#295463"/>
<path d="M302.251 95.5877C304.458 95.5689 305.036 96.1157 305.002 98.3121C304.983 99.5774 305.186 100.78 305.633 101.964C306.105 103.211 305.78 104.226 304.499 104.773C303.398 105.245 302.339 104.711 301.82 103.364C300.929 101.046 300.551 98.6682 301.329 96.225C301.638 96.0095 301.945 95.8001 302.251 95.5877Z" fill="#295463"/>
<path d="M291.308 229.938C293.48 230.807 294.837 232.391 295.409 234.647C295.721 235.884 295.281 236.815 294.071 237.224C292.886 237.624 292.027 237.037 291.595 235.968C291.22 235.037 290.826 234.216 289.948 233.622C289.129 233.069 289.142 232.125 289.182 231.229L289.179 231.213C289.282 231.11 289.389 231.007 289.492 230.901C290.023 230.441 290.605 230.076 291.308 229.938Z" fill="#295463"/>
<path d="M300.457 232.379C300.445 233.41 300.013 234.134 298.997 234.491C297.91 234.869 297.203 234.303 296.628 233.528C295.606 232.154 293.98 231.182 293.755 229.273C294.009 227.573 295.259 227.405 296.619 227.408C297.809 228.642 298.669 230.176 300.098 231.191C300.216 231.585 300.338 231.982 300.457 232.379Z" fill="#295463"/>
<path d="M368.137 238.424C368.137 240.246 367.102 241.648 366.108 242.998C365.52 243.795 364.508 243.985 363.614 243.304C362.757 242.654 362.285 241.786 362.92 240.749C363.732 239.427 363.935 237.627 365.72 237.04C366.874 236.893 367.596 237.499 368.137 238.424Z" fill="#295463"/>
<path d="M325.995 62.1954C327.623 62.0954 329.211 62.1454 330.524 63.3357C331.446 64.173 331.802 65.204 331.077 66.2319C330.355 67.2536 329.249 67.4067 328.217 66.6037C327.601 66.1257 326.961 66.2382 326.298 66.2476C325.179 65.6539 324.616 64.7698 324.844 63.4732C325.235 63.0389 325.629 62.6078 326.02 62.1735L325.995 62.1954Z" fill="#295463"/>
<path d="M363.148 236.234C362.829 237.156 362.538 238.084 362.188 238.993C361.591 240.542 360.563 241.192 359.406 240.792C358.265 240.402 357.837 239.311 358.2 237.73C358.572 237.159 358.859 236.559 358.84 235.853C360.328 233.956 360.575 233.897 362.816 234.906C362.938 235.347 362.704 235.875 363.148 236.234Z" fill="#295463"/>
<path d="M358.84 235.853C358.859 236.559 358.572 237.159 358.2 237.73C354.055 238.383 349.901 238.896 345.69 238.662C345.678 238.365 345.662 238.071 345.65 237.774C349.188 236.987 352.811 236.768 356.38 236.184C357.196 236.053 358.018 235.965 358.84 235.853Z" fill="#F4D1BC"/>
<path d="M300.457 232.379C300.335 231.982 300.216 231.585 300.094 231.188C305.124 232.428 310.153 233.669 315.182 234.915C315.476 234.987 315.748 235.134 316.033 235.247C315.973 235.921 315.836 236.571 315.379 237.109C310.788 234.331 305.614 233.378 300.457 232.379Z" fill="#F4D1BC"/>
<path d="M350.385 144.327C350.057 144.214 349.729 144.099 349.088 143.877C352.351 142.952 355.061 141.521 357.831 140.228C358.359 141.434 358.006 142.374 356.949 143.096C354.855 144.002 352.62 144.167 350.385 144.327Z" fill="#74A2D6"/>
<path d="M326.02 62.1734C325.629 62.6077 325.235 63.0389 324.844 63.4731C324.316 63.1732 324.182 62.6733 324.16 62.1172C324.782 62.1328 325.401 62.1516 326.02 62.1734Z" fill="#F4D1BC"/>
<path d="M289.492 230.904C289.388 231.007 289.282 231.11 289.179 231.216C289.167 230.995 289.288 230.91 289.492 230.904Z" fill="#C29A8A"/>
<path d="M257.552 57.8338C256.94 57.2745 256.33 56.7121 255.718 56.1529C255.067 54.9657 254.464 53.6066 253.051 53.2785C248.866 52.3069 245.099 50.3948 241.376 48.3609C241.458 46.5738 240.733 45.1648 239.445 43.9588C238.72 43.2808 238.307 42.3529 237.891 41.4562C236.941 39.4192 235.1 38.5475 233.374 39.3317C231.289 40.2815 230.655 42.356 231.646 44.5337C232.449 46.3051 233.837 47.6892 234.693 49.4138C234.015 51.2071 234.053 53.0567 234.278 54.9188C234.69 58.3243 235.781 61.5579 236.8 64.8134C237.088 65.7288 237.485 66.5349 238.219 67.1566C238.316 67.4035 238.476 67.5691 238.76 67.5597L238.744 67.6003C240.783 70.7996 243.443 73.5052 245.793 76.4577C249.341 80.9129 252.97 85.3056 256.568 89.7234C256.196 102.574 256.283 115.424 256.28 128.277C256.28 138.219 256.205 148.163 256.402 158.105C256.496 162.782 256.571 167.462 256.637 172.142C256.674 174.823 255.146 176.619 252.507 176.429C245.646 175.929 238.776 176.435 231.915 175.988C228.445 175.763 224.95 176.016 221.465 176.113C215.273 176.285 209.068 176.144 202.873 176.251C193.614 176.407 184.356 176.597 175.1 176.894C167.145 177.147 159.19 177.294 151.235 177.507C136.344 177.903 121.456 177.85 106.567 177.691C98.5123 177.603 90.4572 177.232 82.4145 176.751C75.0064 176.31 67.6045 175.676 60.2245 174.904C49.3374 173.767 38.5034 172.217 27.757 170.096C27.1475 169.974 26.5254 169.905 25.919 169.768C24.0342 169.333 22.9527 168.099 22.8433 166.181C22.6276 162.398 22.3963 158.611 22.2681 154.824C22.0962 149.732 22.0493 144.636 21.8899 139.54C21.5461 128.668 21.5586 117.795 21.6304 106.92C21.6742 100.315 21.768 93.7069 21.968 87.1052C22.1993 79.4195 22.515 71.7369 22.8933 64.0542C23.234 57.1589 23.6591 50.2636 24.1373 43.3745C24.5874 36.9041 25.1563 30.4431 25.6783 23.9789C25.8503 21.8294 26.9193 20.6828 29.0261 20.2892C30.0044 20.108 30.9828 20.058 31.9737 20.0548C44.8394 20.0298 57.7052 20.1829 70.5646 19.9174C85.1433 19.6174 99.722 19.9517 114.294 19.6174C129.548 19.2675 144.805 19.6393 160.056 19.305C176.457 18.9488 192.861 19.3363 209.256 18.9832C222.012 18.7083 234.765 18.7645 247.519 18.8332C250.704 18.8489 253.92 19.8705 257.055 20.6828C258.65 21.0952 259.147 22.6949 259.081 24.2164C258.868 28.9872 258.553 33.7549 258.262 38.5194C258.115 40.9064 258.124 43.2933 257.959 45.6834C257.671 49.72 257.671 53.7816 257.552 57.8338ZM129.883 162.126C134.318 162.101 140.404 162.163 146.487 161.866C151.885 161.601 157.296 161.841 162.707 161.607C169.502 161.31 176.31 161.242 183.112 160.948C188.038 160.735 192.967 160.598 197.89 160.304C204.677 159.898 211.472 159.695 218.255 159.283C220.015 159.176 221.778 159.095 223.534 158.98C229.117 158.605 234.697 158.186 240.276 157.758C242.567 157.583 244.799 157.336 246.443 155.343C248.266 153.137 248.725 150.022 247.397 147.476C246.34 145.451 243.952 144.386 241.267 144.67C238.179 144.998 235.09 145.333 231.993 145.561C225.738 146.02 219.483 146.476 213.219 146.804C207.574 147.101 201.932 147.445 196.287 147.716C191.414 147.951 186.538 148.157 181.664 148.351C174.919 148.619 168.164 148.707 161.416 148.972C154.714 149.235 148 149.113 141.292 149.254C129.955 149.491 118.605 149.429 107.265 149.035C102.954 148.885 98.6405 148.972 94.3238 148.807C87.3189 148.535 80.3015 148.488 73.2966 148.123C69.0424 147.901 64.7788 147.857 60.5184 147.776C59.5619 147.757 59.1336 147.479 59.068 146.439C58.9242 144.167 58.646 141.905 58.4053 139.64C57.9115 135.013 57.3895 130.386 56.9175 125.756C56.5486 122.15 56.2579 118.539 55.8922 114.933C55.4202 110.25 54.8701 105.576 54.4293 100.89C54.0449 96.8187 53.9198 92.7165 53.4009 88.6643C52.7352 83.4748 52.5226 78.251 51.9537 73.0553C51.4692 68.6313 51.2848 64.173 50.9503 59.7333C50.4408 52.9692 49.8876 46.2083 49.4093 39.4442C49.1468 35.7294 47.1588 33.2862 43.5547 32.6082C39.7631 31.8928 35.9215 34.4016 36.2685 38.5194C36.5592 41.978 36.6967 45.4491 36.9531 48.9108C37.3313 53.969 37.7595 59.0241 38.1596 64.0792C38.394 67.0754 38.591 70.0716 38.8442 73.0678C39.2224 77.5543 39.6444 82.0345 40.032 86.521C40.2726 89.3079 40.4602 92.0979 40.7134 94.8816C41.0916 99.0557 41.5167 103.223 41.9074 107.398C42.2513 111.056 42.542 114.721 42.9108 118.379C43.3797 123.01 43.9173 127.634 44.3987 132.264C44.8644 136.741 45.2208 141.23 45.7959 145.695C45.9584 146.948 45.4083 146.97 44.6519 146.795C43.5703 146.545 42.4888 146.535 41.3979 146.535C38.269 146.532 35.8528 148.369 35.3683 151.113C34.7337 154.712 36.4623 158.086 39.3849 159.208C41.3448 159.961 43.4047 159.729 45.3864 159.845C47.0681 159.945 47.5932 160.498 47.8339 161.96C48.334 165.013 50.2408 166.872 53.1696 167.596C57.3488 168.63 61.3342 165.965 60.6715 162.063C60.4746 160.907 60.9528 160.52 62.1375 160.564C66.598 160.729 71.0554 161.017 75.5128 161.154C82.2113 161.363 88.9068 161.595 95.6053 161.782C102.988 161.988 110.378 161.81 117.761 162.113C121.249 162.241 124.744 162.126 129.883 162.126ZM234.762 106.41C234.715 104.264 233.928 102.483 232.174 101.168C229.761 99.3556 227.351 97.5404 224.957 95.7002C220.79 92.4978 216.705 89.1704 211.913 86.9053C205.477 83.8622 201.501 84.4996 196.334 89.3953C193.149 92.4134 190.707 96.0751 187.869 99.3962C184.053 103.867 180.345 108.432 176.616 112.977C176.038 113.684 175.594 113.934 174.935 113.077C173.281 110.931 171.396 108.988 169.549 107.007C161.881 98.787 154.258 90.5263 146.537 82.3563C143.549 79.1945 138.979 79.6663 136.412 83.2155C135.59 84.3527 134.825 85.5337 134.049 86.7022C127.104 97.1498 120.718 107.935 114.629 118.901C114.166 119.735 113.882 120.382 112.953 119.223C107.099 111.906 101.501 104.404 96.2055 96.6749C87.669 84.2122 79.9889 71.237 72.9152 57.8962C72.4026 56.9277 71.8712 55.9779 70.971 55.2968C68.7423 53.6097 65.851 53.7628 63.3378 55.7155C60.9247 57.5901 60.0151 60.6894 61.2623 63.3731C62.2907 65.5883 63.491 67.7253 64.6507 69.8748C77.3382 93.3476 92.5796 115.071 109.549 135.635C112.872 139.662 118.746 138.197 120.718 134.373C127.06 122.069 134.062 110.134 141.561 98.4933C142.28 97.3779 142.711 97.356 143.583 98.3152C147.4 102.511 151.272 106.657 155.13 110.815C159.484 115.508 163.719 120.316 168.233 124.847C172.681 129.308 177.232 129.524 182.433 125.953C185.612 123.772 188.06 120.863 190.339 117.814C194.546 112.19 198.681 106.513 202.898 100.896C204.608 98.6183 205.045 98.662 207.534 100.084C213.598 103.555 219.174 107.757 224.941 111.668C226.923 113.012 228.983 113.727 231.211 112.459C233.518 111.153 234.65 109.06 234.762 106.41Z" fill="#56597A"/>
<path d="M313.091 130.502C312.716 131.23 312.96 132.033 312.804 132.789C311.56 133.095 310.316 133.404 309.072 133.71C311.21 130.164 310.463 127.031 307.828 124.063C306.805 122.913 305.633 121.841 305.014 120.37C307.971 120.445 310.641 119.282 313.379 118.417C313.485 119.114 313.923 119.585 314.442 120.004C314.098 123.441 313.026 126.784 313.138 130.277C313.107 130.345 313.091 130.424 313.091 130.502Z" fill="#FEFEFE"/>
<path d="M327.579 70.9058C327.676 71.0182 327.77 71.1276 327.867 71.2401C327.77 71.1307 327.676 71.0182 327.579 70.9058Z" fill="#74A2D6"/>
<path d="M314.445 120.001C313.926 119.582 313.488 119.11 313.382 118.414C314.076 111.397 315.261 104.445 316.186 97.4591C316.389 95.9188 316.655 94.3848 316.852 92.8445C316.992 91.751 317.489 91.0793 318.671 91.2043C319.906 91.3355 320.803 91.9635 320.7 93.2975C320.531 95.4658 320.243 97.6247 319.949 99.7836C319.162 105.585 318.349 111.384 317.533 117.18C317.433 117.895 317.383 118.657 317.099 119.304C316.545 120.548 315.504 120.413 314.445 120.001Z" fill="#295463"/>
<path d="M251.407 61.6454C253.52 61.1517 254.899 62.0453 256.133 63.7605C272.006 85.793 287.932 107.791 303.839 129.799C305.48 132.07 304.952 134.598 302.629 135.71C301.004 136.488 299.816 136.16 298.6 134.494C295.69 130.499 292.818 126.478 289.92 122.475C276.839 104.395 263.773 86.3023 250.648 68.2533C249.16 66.2068 248.903 64.3479 250.441 62.3077L250.435 62.2671C250.716 62.2734 250.926 62.1703 251.02 61.8859L251.007 61.8953C251.132 61.811 251.254 61.7235 251.379 61.6391L251.407 61.6454Z" fill="#295463"/>
<path d="M241.376 48.3578C245.102 50.3917 248.866 52.3038 253.051 53.2755C254.467 53.6035 255.07 54.9657 255.717 56.1498C255.893 58.015 255.117 59.2585 253.414 60.0895C252.682 60.4457 251.813 60.7925 251.407 61.6423L251.379 61.6361C251.179 61.6111 251.057 61.6985 251.007 61.8923L251.019 61.8829C250.729 61.8641 250.466 61.8891 250.435 62.264L250.441 62.3047C249.857 62.0953 249.463 62.4952 249.035 62.7577C247.359 63.7762 245.634 64.7229 244.036 65.8507C242.423 66.9911 240.748 67.7316 238.748 67.5941L238.763 67.5535C238.713 67.241 238.476 67.1848 238.222 67.1504C237.485 66.5287 237.091 65.7258 236.803 64.8072C235.784 61.5517 234.693 58.3181 234.281 54.9126C234.056 53.0505 234.018 51.2009 234.693 49.4076C235.647 49.8356 236.2 50.8916 237.425 50.9541C239.432 51.0572 240.504 49.895 241.376 48.3578Z" fill="#F5D1BB"/>
<path d="M347.881 144.333C347.656 144.695 347.291 144.642 346.947 144.648L346.944 144.645C347.169 144.277 347.541 144.349 347.881 144.333Z" fill="#295463"/>
<path d="M347.885 144.336C347.994 144.258 348.103 144.18 348.213 144.105C348.307 144.47 347.985 144.249 347.885 144.336C347.881 144.333 347.885 144.336 347.885 144.336Z" fill="#295463"/>
<path d="M129.883 162.126C124.747 162.126 121.252 162.244 117.767 162.101C110.381 161.798 102.992 161.976 95.6116 161.77C88.9131 161.582 82.2176 161.351 75.5191 161.142C71.0617 161.001 66.6043 160.717 62.1438 160.551C60.9591 160.507 60.4809 160.895 60.6778 162.051C61.3374 165.953 57.3551 168.618 53.1759 167.584C50.2471 166.859 48.3403 165 47.8402 161.948C47.5995 160.485 47.0744 159.932 45.3927 159.833C43.411 159.717 41.348 159.945 39.3912 159.195C36.4686 158.074 34.74 154.699 35.3746 151.1C35.8591 148.357 38.2722 146.523 41.4042 146.523C42.4951 146.523 43.5735 146.532 44.6582 146.782C45.4177 146.957 45.9647 146.939 45.8022 145.683C45.2271 141.221 44.8707 136.728 44.405 132.251C43.9236 127.621 43.386 122.997 42.9171 118.367C42.5483 114.711 42.2544 111.047 41.9137 107.385C41.523 103.214 41.0979 99.0432 40.7197 94.8691C40.4665 92.0854 40.2789 89.2923 40.0382 86.5085C39.6507 82.022 39.2287 77.5418 38.8505 73.0553C38.5973 70.0622 38.4003 67.0629 38.1659 64.0667C37.7689 59.0085 37.3376 53.9565 36.9593 48.8983C36.6999 45.4366 36.5655 41.9655 36.2748 38.5069C35.9278 34.3891 39.7694 31.8834 43.561 32.5957C47.165 33.2768 49.153 35.7169 49.4156 39.4317C49.8939 46.1958 50.4471 52.9567 50.9566 59.7208C51.2911 64.1636 51.4755 68.6188 51.96 73.0428C52.5258 78.2385 52.7415 83.4623 53.4072 88.6518C53.9261 92.704 54.0512 96.8062 54.4356 100.877C54.8764 105.564 55.4265 110.238 55.8985 114.921C56.2611 118.526 56.5549 122.138 56.9238 125.743C57.3958 130.374 57.9209 134.998 58.4116 139.628C58.6523 141.893 58.9305 144.155 59.0743 146.426C59.1399 147.467 59.5682 147.745 60.5247 147.763C64.7851 147.845 69.0487 147.888 73.3029 148.11C80.3109 148.479 87.3252 148.523 94.3301 148.794C98.6468 148.96 102.96 148.873 107.271 149.022C118.611 149.416 129.961 149.479 141.298 149.241C148.009 149.101 154.72 149.222 161.422 148.96C168.171 148.698 174.925 148.607 181.671 148.338C186.544 148.145 191.42 147.938 196.293 147.704C201.938 147.432 207.58 147.089 213.226 146.792C219.487 146.464 225.744 146.008 231.999 145.548C235.097 145.32 238.185 144.986 241.273 144.658C243.958 144.374 246.346 145.439 247.403 147.463C248.731 150.01 248.269 153.125 246.45 155.33C244.805 157.324 242.571 157.567 240.282 157.745C234.703 158.174 229.123 158.592 223.541 158.967C221.781 159.086 220.021 159.164 218.261 159.27C211.478 159.683 204.68 159.886 197.897 160.292C192.971 160.585 188.044 160.723 183.118 160.935C176.316 161.229 169.508 161.298 162.713 161.595C157.299 161.832 151.891 161.591 146.493 161.854C140.401 162.163 134.318 162.098 129.883 162.126Z" fill="#3C3A3D"/>
<path d="M234.762 106.41C234.647 109.063 233.515 111.153 231.218 112.462C228.989 113.727 226.929 113.012 224.947 111.671C219.177 107.76 213.604 103.561 207.54 100.087C205.055 98.662 204.614 98.6213 202.904 100.899C198.688 106.516 194.552 112.193 190.345 117.817C188.063 120.866 185.619 123.772 182.44 125.956C177.238 129.524 172.684 129.311 168.239 124.85C163.726 120.32 159.49 115.508 155.136 110.819C151.279 106.66 147.406 102.514 143.589 98.3183C142.717 97.3591 142.286 97.3779 141.567 98.4964C134.065 110.137 127.066 122.072 120.724 134.376C118.752 138.2 112.879 139.665 109.556 135.638C92.5859 115.074 77.3446 93.3538 64.657 69.8779C63.4942 67.7283 62.297 65.5913 61.2687 63.3762C60.0215 60.6924 60.9311 57.5931 63.3442 55.7186C65.8573 53.7659 68.7487 53.6097 70.9774 55.2999C71.8776 55.981 72.4058 56.9308 72.9216 57.8993C79.9921 71.2401 87.6753 84.2152 96.2118 96.678C101.507 104.408 107.105 111.912 112.96 119.226C113.885 120.385 114.169 119.738 114.635 118.904C120.724 107.941 127.11 97.1529 134.056 86.7053C134.834 85.5368 135.597 84.3558 136.419 83.2186C138.985 79.6694 143.555 79.1976 146.543 82.3594C154.264 90.5294 161.888 98.7901 169.555 107.01C171.403 108.988 173.287 110.931 174.941 113.081C175.601 113.937 176.044 113.684 176.623 112.981C180.352 108.435 184.056 103.87 187.876 99.3993C190.714 96.0782 193.155 92.4165 196.34 89.3984C201.507 84.5027 205.483 83.8653 211.919 86.9084C216.711 89.1735 220.796 92.5009 224.963 95.7033C227.357 97.5435 229.767 99.3555 232.18 101.171C233.928 102.483 234.715 104.261 234.762 106.41Z" fill="#ED85AF"/>
<path d="M241.377 48.3578C240.504 49.8949 239.432 51.0572 237.429 50.9572C236.2 50.8947 235.65 49.8418 234.697 49.4107C233.84 47.6861 232.452 46.302 231.649 44.5305C230.658 42.3529 231.293 40.2784 233.378 39.3286C235.1 38.5412 236.944 39.416 237.894 41.4531C238.313 42.3498 238.726 43.2777 239.448 43.9556C240.733 45.1616 241.458 46.5738 241.377 48.3578Z" fill="#ED85AF"/>
<path d="M238.222 67.1535C238.479 67.1878 238.716 67.2441 238.763 67.5565C238.476 67.5627 238.316 67.4003 238.222 67.1535Z" fill="#ED85AF"/>
<path d="M250.435 62.2672C250.466 61.8891 250.729 61.8673 251.019 61.886C250.926 62.1703 250.716 62.2734 250.435 62.2672Z" fill="#ED85AF"/>
<path d="M251.007 61.8954C251.057 61.7017 251.176 61.6142 251.379 61.6392C251.254 61.7236 251.132 61.8111 251.007 61.8954Z" fill="#ED85AF"/>
</svg>
