<svg width="372" height="184" viewBox="0 0 372 184" fill="none" xmlns="http://www.w3.org/2000/svg">
<path d="M200.205 182.449C148.393 182.077 96.5817 181.704 44.7702 181.332C39.8612 181.279 35.0056 181.438 30.0965 181.438C23.9603 181.492 19.9584 178.725 17.824 172.874C10.4605 152.712 4.64436 132.125 0.162211 111.166C-0.371378 108.559 0.375646 107.601 2.93687 107.123C5.39138 106.644 7.89925 106.697 10.3538 106.644C25.3476 106.378 40.3948 105.793 55.3353 104.729C56.5092 109.516 57.3629 114.411 59.1238 119.039C61.3648 124.784 64.4597 129.784 70.4892 132.338C70.5959 132.763 70.756 133.136 70.8627 133.508C71.9833 137.126 73.1038 140.796 74.331 144.36C75.7184 148.456 78.5464 150.797 82.8151 151.382C86.9238 151.967 91.0324 152.659 95.1944 153.031C98.3425 153.297 101.597 153.616 104.692 152.446C106.506 153.191 108.107 153.031 109.281 151.276C111.896 152.18 114.564 152.712 117.338 152.606C125.502 152.34 133.453 150.425 141.51 149.254C143.057 149.042 143.858 147.871 143.538 146.382C142.31 140.902 141.083 135.37 138.735 130.21C140.123 129.04 140.496 127.391 140.87 125.795C142.577 118.719 143.271 111.538 143.644 104.303C151.808 104.676 159.919 104.995 168.083 105.367C167.175 107.069 167.869 108.612 168.563 110.155C177.42 130.05 186.331 149.946 195.136 169.895C196.843 174.097 199.137 178.034 200.205 182.449ZM59.9242 160.16C60.8846 160.745 61.8451 161.383 62.8589 161.915C64.1395 162.66 65.4201 162.66 66.3806 161.383C67.2877 160.16 67.1276 158.777 66.0071 157.819C64.4597 156.542 62.9656 155.106 60.8846 154.787C58.3234 146.435 53.7345 138.987 49.7326 131.327C48.9322 129.784 47.3315 128.933 45.5706 128.774C42.1556 128.561 39.0608 129.412 36.4462 131.753C33.9384 133.987 33.0846 137.445 34.472 140.477C36.9265 145.85 39.5411 151.169 42.1023 156.542C43.6497 159.734 46.3176 161.756 49.4658 163.139C53.5211 164.947 57.4163 163.777 59.9242 160.16ZM146.472 166.33C147.379 166.277 148.126 165.958 148.607 165.267C152.609 159.84 156.931 154.68 161.413 149.68C162.48 148.51 162.32 147.18 161.199 146.116C160.079 145.052 158.745 145.052 157.624 146.169C152.769 151.329 148.18 156.755 144.124 162.607C143.591 163.405 143.377 164.203 144.018 165.054C144.658 165.958 145.512 166.277 146.472 166.33Z" fill="#F5CF6E"/>
<path d="M277.148 111.538C288.834 112.123 300.573 112.602 312.258 113.4C317.594 113.719 322.076 116.06 325.705 120.156C341.392 137.551 355.853 156.01 370.9 173.938C371.807 175.055 372.341 176.172 371.754 177.608C371.167 178.938 369.886 179.098 368.605 179.151C354.839 179.736 341.072 180.481 327.306 180.96C287.5 182.236 247.694 182.715 207.835 182.662C206.875 182.662 205.861 182.609 204.9 182.609C205.381 181.119 205.114 179.736 204.474 178.3C196.523 160.532 188.626 142.818 180.782 124.997C177.954 118.613 174.859 112.389 172.512 105.793C191.241 106.75 209.97 107.761 228.698 108.719C230.139 109.463 231.58 109.836 233.234 109.836C237.716 109.942 242.145 110.208 246.627 110.421C245.507 111.432 244.173 111.219 242.839 111.272C233.394 111.485 224.003 111.698 214.558 111.91C210.343 112.017 207.248 113.879 205.487 117.762C204.474 120.049 203.46 122.284 202.499 124.571C199.991 130.848 198.124 137.338 196.63 143.882C195.189 150.265 196.95 152.819 203.353 153.883C206.875 154.414 210.396 154.84 213.918 155.372C219.948 156.276 226.031 157.287 232.06 158.245C232.113 159.894 231.9 161.702 233.768 162.66C235.528 163.564 236.809 162.234 238.143 161.49C239.69 160.639 240.971 159.309 242.678 158.723C246.52 158.245 249.615 156.117 252.23 153.51C255.164 150.584 258.259 147.605 259.326 143.296L259.273 143.35C259.647 143.35 259.753 143.084 259.807 142.818C264.983 135.37 270.265 127.923 273.733 119.411C274.854 116.645 275.334 113.772 277.148 111.538ZM275.227 141.169C275.387 139.466 274.694 138.509 273.36 138.136C271.706 137.658 270.532 138.402 270.052 139.945C268.504 145.105 267.01 150.265 265.463 155.425C265.036 156.968 265.569 158.085 267.063 158.564C268.504 159.043 269.892 158.67 270.372 157.181C272.133 151.808 273.68 146.382 275.227 141.169ZM283.605 151.648C283.178 146.222 282.538 141.062 281.257 136.008C280.883 134.466 279.816 133.827 278.269 134.093C276.721 134.359 275.761 135.423 276.081 136.913C277.148 141.913 277.789 147.02 278.429 152.074C278.642 153.617 279.87 154.308 281.31 154.202C282.964 154.042 283.605 152.978 283.605 151.648Z" fill="#F5CF6E"/>
<path d="M143.591 104.41C143.271 111.644 142.524 118.826 140.816 125.901C140.443 127.55 140.069 129.199 138.682 130.316C138.575 130.316 138.415 130.37 138.308 130.37C133.613 130.37 128.971 130.37 124.275 130.423C122.621 129.838 121.981 128.614 122.194 126.912C122.514 124.465 122.888 122.018 122.994 119.571C123.261 113.719 123.848 107.814 122.674 102.016C121.767 97.494 120.967 92.9191 118.406 88.9294C117.605 86.5355 118.566 84.2481 118.726 81.9074C119.099 76.5877 119.153 71.3213 118.726 66.0016C118.566 64.1397 117.499 63.0226 115.578 63.1822C113.497 63.3418 113.39 64.8313 113.497 66.4804C113.977 73.5555 113.923 80.6307 112.643 87.6527C112.003 91.1104 112.91 91.9616 116.325 92.1212C115.951 94.9406 115.631 97.8132 115.257 100.633C114.457 102.707 113.817 104.942 111.095 105.314C108.908 105.58 106.667 105.793 104.479 105.899C96.2083 106.218 87.9911 105.74 79.7738 104.888C76.5189 98.7176 75.9853 92.068 76.1987 85.312C76.3588 81.0031 76.6256 76.6409 76.7857 72.332C76.839 70.6297 76.2521 69.2998 74.3312 69.2466C72.4636 69.1934 71.6099 70.2573 71.5032 72.0128C71.183 78.556 70.5961 85.0992 71.0229 91.6424C71.3431 96.5897 72.2502 101.431 74.3845 106.006C75.3984 108.24 76.7857 108.931 78.9734 107.601C80.4141 113.24 82.4417 118.72 84.6294 124.092C85.2164 125.475 85.3231 126.593 84.3626 127.763C79.8271 129.678 75.2916 131.54 70.4893 132.497C64.4598 129.944 61.365 124.944 59.1239 119.198C57.3097 114.57 56.5093 109.676 55.3354 104.888C53.6279 94.4618 52.6675 83.9821 53.3611 73.4492C53.8414 66.0548 55.3354 58.9265 59.7108 52.6493C61.1515 53.8196 62.0053 55.4687 63.5527 56.5858C71.183 62.0651 81.8014 58.6605 86.0168 49.3511C87.6709 45.6805 88.3112 41.7439 88.6847 37.8074C89.2717 38.1798 89.8586 38.5521 90.3922 38.9777C94.234 42.1163 96.8486 41.478 98.7695 36.903C100.797 34.8816 103.092 34.8284 105.653 35.6795C111.682 37.6478 116.858 40.9992 121.554 45.1485C124.915 48.1807 128.064 51.4257 131.372 54.5111C137.561 60.2564 139.376 67.8635 140.87 75.6834C142.684 85.1524 143.591 94.7278 143.591 104.41Z" fill="#B5C6E6"/>
<path d="M246.574 110.261C242.091 110.049 237.663 109.783 233.18 109.676C231.526 109.623 230.086 109.251 228.645 108.559C226.724 105.208 226.831 101.431 226.724 97.7602C226.671 96.4303 226.564 95.1004 226.511 93.8237C226.884 93.3449 227.631 92.9193 227.631 92.3874C227.951 88.0784 228.165 83.8227 228.325 79.5138C228.378 78.5562 227.578 77.9711 226.617 77.8115C225.497 77.5987 224.536 77.9711 223.789 78.9286C223.202 79.7266 223.096 80.6841 223.042 81.6948C222.882 84.7803 222.669 87.8657 222.455 90.8979C220.534 92.6533 218.88 91.217 217.226 90.4723C217.279 89.302 216.532 88.504 215.892 87.6529C212.37 82.812 208.689 78.1307 205.754 72.8642C206.127 70.6831 207.195 68.9277 208.795 67.4381C218.24 58.8203 227.738 50.1492 237.129 41.4782C238.463 40.2547 239.797 39.4567 241.611 40.1483C244.386 42.4889 247.587 43.4465 251.162 43.2337C250.789 44.6168 250.362 45.9467 250.042 47.3298C248.761 53.8198 250.629 59.2991 255.858 63.342C260.98 67.2786 266.743 67.6509 272.666 65.0975C275.814 63.7144 277.735 61.1077 279.976 58.7139C283.018 64.7251 284.672 71.0555 284.992 77.8115C285.152 81.0565 284.405 83.2907 281.043 84.1419C276.828 84.7802 272.826 86.3761 268.717 87.4401C268.237 84.0355 267.757 80.6309 267.33 77.2263C267.17 76.0028 266.583 75.2049 265.302 75.1517C263.915 75.0985 262.848 75.7368 262.474 77.0667C262.314 77.6519 262.261 78.2903 262.368 78.8754C263.328 86.323 263.702 93.8769 263.648 101.378C263.648 103.08 264.342 104.25 266.156 104.569C265.623 109.41 264.235 110.74 259.486 110.74C257.832 110.74 256.125 110.74 254.471 110.793C251.909 110.634 249.241 110.421 246.574 110.261Z" fill="#EE86B0"/>
<path d="M280.083 58.6606C277.895 61.0545 275.921 63.7143 272.773 65.0442C266.85 67.5977 261.087 67.2785 255.965 63.2887C250.735 59.2458 248.868 53.7665 250.148 47.2765C250.415 45.8934 250.895 44.5635 251.269 43.1804C252.229 41.8505 252.816 40.361 253.19 38.8183C253.99 35.7861 252.923 33.9774 249.935 33.0198C247.961 32.3815 247.694 30.9452 248.441 29.1897C249.508 26.7958 248.654 24.9339 246.093 24.7212C243.318 24.5084 240.704 23.7636 238.036 22.9125C237.342 22.5401 236.595 22.1677 235.902 21.8485C233.927 20.8378 233.394 19.4547 234.087 17.2736C236.435 10.1985 242.785 5.14479 250.522 4.45323C257.032 3.86807 263.915 8.01741 267.33 14.5606C269.091 18.0184 270.105 21.6357 270.051 25.5191C269.998 30.4664 271.545 34.6157 275.28 38.0735C281.523 43.8187 282.911 50.7875 280.083 58.6606Z" fill="#295463"/>
<path d="M88.7374 37.7542C88.3106 41.7439 87.7236 45.6273 86.0695 49.2978C81.8541 58.6072 71.2357 62.0118 63.6054 56.5326C62.058 55.4154 61.2042 53.7663 59.7636 52.596C57.9494 47.3827 59.4968 42.9142 62.5916 38.6585C67.3939 32.0621 69.5282 24.3486 72.0361 16.7947C73.5835 12.1134 75.6111 7.75123 79.3996 4.34665C84.5221 -0.228268 91.1919 -1.2922 96.6345 1.63362C103.358 5.25099 105.065 10.677 101.383 17.167C97.4349 19.8801 93.1662 21.9015 88.6307 23.6038C89.5912 23.9762 90.3915 23.923 91.1386 23.9762C92.4192 24.1358 92.9528 25.0401 93.0061 26.2105C93.1129 27.4872 92.6326 28.9235 91.2986 28.7639C87.9904 28.4447 88.7374 30.6258 88.7374 32.4345C88.7374 34.19 88.7374 35.9987 88.7374 37.7542Z" fill="#295463"/>
<path d="M268.824 87.3868C272.933 86.3229 276.935 84.727 281.15 84.0886C281.257 92.1213 279.923 99.9412 277.842 107.708C277.522 108.931 276.668 110.155 277.148 111.538C275.334 113.826 274.854 116.645 273.787 119.252C270.265 127.763 265.036 135.211 259.86 142.658C259.7 142.818 259.54 143.03 259.326 143.19L259.38 143.137C253.991 148.51 248.655 153.829 242.732 158.564C241.024 159.149 239.744 160.479 238.196 161.33C236.862 162.075 235.582 163.405 233.821 162.5C231.953 161.543 232.167 159.734 232.113 158.085C232.647 153.297 235.262 149.574 238.143 145.903C240.651 142.711 243.479 139.785 245.026 135.902C246.147 134.998 246.787 133.827 247.214 132.444C248.548 130.795 249.508 128.933 250.095 126.859C251.002 125.901 251.429 124.731 251.536 123.401C253.724 119.996 254.577 116.166 255.591 112.336C255.858 111.432 255.164 111.059 254.577 110.687C256.232 110.687 257.939 110.687 259.593 110.634C264.396 110.581 265.783 109.304 266.263 104.463C268.611 104.197 269.358 102.654 269.305 100.526C269.198 96.2174 268.984 91.8021 268.824 87.3868Z" fill="#C2998A"/>
<path d="M205.807 72.8104C208.742 78.0769 212.424 82.7582 215.945 87.5991C216.532 88.4502 217.333 89.2482 217.279 90.4185C209.435 97.9725 199.991 97.6533 193.321 89.195C187.185 81.4283 183.29 72.3849 179.928 63.1286C179.501 61.9583 179.181 60.788 178.808 59.6177C182.329 58.5537 185.851 57.543 189.373 56.4791C193.108 62.2775 197.27 67.81 199.671 74.3531C200.311 76.0554 201.592 76.0022 202.872 75.0979C203.886 74.3531 204.847 73.5552 205.807 72.8104Z" fill="#C09888"/>
<path d="M189.372 56.4796C185.851 57.5435 182.329 58.5543 178.807 59.6182C176.94 59.6714 175.072 59.831 173.258 59.6714C169.096 59.4054 167.815 57.1179 169.576 53.3942C171.07 50.1492 173.792 47.7553 175.873 44.8827C178.967 40.5738 182.062 36.318 185.157 32.0091C186.438 30.2004 187.558 29.9876 189.799 31.0516C193.321 32.7007 196.896 34.137 200.151 36.2648C199.457 37.0096 198.443 36.5308 197.643 36.9564C190.28 41.1589 183.396 45.9998 177.046 51.5855C175.979 52.543 175.713 53.7134 176.62 54.8837C177.527 56.1072 178.807 56.32 180.195 55.5752C180.728 55.3093 181.155 54.8305 181.635 54.4049C187.025 49.8832 192.627 45.6807 198.817 42.3293C201.271 40.9994 202.285 39.4566 201.165 36.85C203.939 38.8183 206.501 40.9462 208.848 43.3932C211.303 45.8934 211.143 47.3298 208.208 49.298C205.007 51.4259 201.325 52.5962 197.696 53.7134C194.922 54.6709 192.147 55.5752 189.372 56.4796Z" fill="#B2C4E3"/>
<path d="M172.511 105.633C174.859 112.176 178.007 118.453 180.782 124.837C188.626 142.605 196.523 160.372 204.473 178.14C205.113 179.576 205.38 180.96 204.9 182.449C203.353 183.513 201.752 183.619 200.151 182.502C199.084 178.087 196.843 174.15 195.029 170.054C186.224 150.105 177.367 130.21 168.456 110.314C167.762 108.772 167.069 107.229 167.976 105.527C169.576 104.356 171.07 104.09 172.511 105.633Z" fill="#295463"/>
<path d="M88.7375 37.7544C88.7375 35.9989 88.7375 34.1902 88.7375 32.4347C88.7375 30.626 87.9904 28.4982 91.2987 28.7641C92.5793 28.8705 93.0595 27.4342 93.0062 26.2107C92.8995 25.0404 92.4192 24.136 91.1386 23.9764C90.3916 23.8701 89.5912 23.9765 88.6307 23.6041C93.1663 21.9018 97.435 19.8803 101.384 17.1673C101.437 18.0184 101.437 18.8696 101.49 19.7739C99.8895 19.7739 99.0357 20.6251 98.8757 22.1146C98.7156 23.9233 99.7828 24.8276 101.49 25.0936C101.49 25.466 101.49 25.7851 101.49 26.1575C100.583 26.5299 99.7294 26.9555 98.8223 27.2746C97.3816 27.8066 95.8876 28.4982 96.2077 30.36C96.5279 32.2751 97.9152 32.8603 99.7294 32.5411C99.8361 34.0838 97.1682 35.0413 98.8223 36.9032C96.9014 41.4781 94.3402 42.0633 90.4449 38.9779C89.9114 38.4991 89.3244 38.1268 88.7375 37.7544Z" fill="#EFCDB9"/>
<path d="M201.165 36.9032C202.286 39.563 201.272 41.0525 198.817 42.3824C192.628 45.787 187.025 49.9364 181.636 54.4581C181.156 54.8305 180.729 55.3092 180.195 55.6284C178.861 56.3732 177.581 56.1604 176.62 54.9369C175.713 53.7665 175.98 52.5962 177.047 51.6387C183.397 46.053 190.28 41.2121 197.643 37.0096C198.444 36.5308 199.458 37.0096 200.151 36.318C200.578 36.2116 200.898 36.5308 201.165 36.9032Z" fill="#295463"/>
<path d="M238.09 22.9653C240.704 23.8165 243.319 24.5612 246.147 24.774C248.708 24.9868 249.562 26.7955 248.495 29.2425C247.694 30.998 248.014 32.4343 249.989 33.0727C252.977 34.0302 254.044 35.8389 253.244 38.8711C252.817 40.4138 252.23 41.9033 251.323 43.2333C247.748 43.446 244.546 42.4885 241.771 40.1479C242.625 39.4563 243.052 38.7115 241.985 37.8604C243.639 38.02 245.346 38.2328 247.001 38.3392C248.495 38.3924 249.562 37.7008 249.829 36.1049C250.042 34.509 249.188 33.6047 247.694 33.2323C246.734 33.0195 245.773 32.9131 244.813 32.8067C241.878 32.3811 241.078 33.0195 240.758 36.1049C239.37 34.6686 238.837 32.8067 238.356 30.9448C240.384 30.9448 241.985 30.3065 241.825 27.9658C241.665 25.6784 239.904 25.572 238.09 25.6784C237.983 24.7208 238.036 23.8165 238.09 22.9653Z" fill="#C09888"/>
<path d="M222.509 90.8443C222.722 87.7589 222.883 84.6735 223.096 81.6412C223.149 80.6837 223.256 79.673 223.843 78.875C224.537 77.9707 225.497 77.5983 226.671 77.7579C227.632 77.9175 228.432 78.5558 228.379 79.4602C228.218 83.7691 228.005 88.078 227.685 92.3338C227.632 92.8125 226.938 93.2913 226.564 93.7701C224.323 94.0361 222.936 93.0785 222.509 90.8443Z" fill="#295463"/>
<path d="M240.651 36.0516C240.971 32.9662 241.772 32.3278 244.706 32.7534C245.667 32.913 246.627 32.9662 247.588 33.179C249.082 33.5513 249.936 34.4557 249.722 36.0516C249.509 37.6475 248.442 38.339 246.894 38.2858C245.24 38.2326 243.533 37.9667 241.878 37.8071C241.292 37.3283 240.705 36.9027 240.651 36.0516Z" fill="#295463"/>
<path d="M99.6763 32.541C97.8621 32.8602 96.4214 32.275 96.1546 30.3599C95.8345 28.498 97.3285 27.8065 98.7692 27.2745C99.6763 26.9553 100.53 26.5297 101.437 26.1574C102.985 26.5297 104.372 27.2213 104.372 29.03C104.372 30.7855 102.878 31.4239 101.437 31.9558C100.85 32.1154 100.263 32.3282 99.6763 32.541Z" fill="#295463"/>
<path d="M101.438 25.0937C99.7301 24.8277 98.6629 23.9233 98.823 22.1147C98.9297 20.6251 99.8368 19.774 101.438 19.774C102.878 19.8804 103.679 20.7315 103.785 22.1147C103.892 23.7105 102.985 24.6681 101.438 25.0937Z" fill="#295463"/>
<path d="M237.929 25.6254C239.743 25.519 241.504 25.6254 241.664 27.9129C241.824 30.2535 240.224 30.8919 238.196 30.8919C236.435 29.2428 236.382 27.4341 237.929 25.6254Z" fill="#295463"/>
<path d="M79.7738 104.888C87.991 105.792 96.2083 106.218 104.479 105.899C106.667 105.846 108.908 105.58 111.095 105.314C113.817 104.994 114.457 102.76 115.257 100.632C117.819 100.632 120.22 101.43 122.674 101.962C123.848 107.814 123.315 113.666 122.994 119.517C122.888 121.964 122.461 124.411 122.194 126.858C121.981 128.561 122.621 129.731 124.275 130.369C123.902 133.508 125.609 135.902 127.05 138.402C123.795 139.466 120.433 139.359 117.072 139.785C115.257 139.998 114.297 141.062 114.404 142.817C114.564 144.732 115.951 145.211 117.659 145.105C122.514 144.786 127.37 144.094 132.065 142.924C135 142.179 135.427 141.275 134.413 138.349C136.334 136.008 138.148 133.614 138.255 130.422C138.362 130.422 138.522 130.369 138.629 130.369C140.976 135.529 142.204 141.062 143.431 146.541C143.751 148.031 142.951 149.201 141.403 149.414C133.346 150.584 125.396 152.499 117.232 152.765C114.457 152.871 111.789 152.34 109.174 151.435C106.56 142.339 105.76 132.87 103.092 123.773C101.704 119.038 100.317 114.251 98.983 109.516C98.4494 107.707 97.5956 106.324 95.4613 106.91C93.2736 107.495 93.2202 109.091 93.8605 110.899C94.0206 111.325 94.1273 111.75 94.234 112.176C97.0087 121.113 99.5699 130.103 101.171 139.36C101.918 143.881 102.451 148.456 104.639 152.605C101.544 153.829 98.3426 153.51 95.1411 153.191C90.9791 152.818 86.8705 152.127 82.7619 151.542C78.4931 150.956 75.6118 148.563 74.2778 144.52C73.0506 140.902 71.9834 137.285 70.8095 133.667C72.3569 134.146 72.8905 135.583 73.9043 136.646C76.7323 139.732 79.6137 142.817 84.3093 142.658C87.0306 142.551 88.4713 140.955 88.578 138.242C88.7381 134.093 86.9772 130.742 84.3626 127.709C85.3764 126.539 85.2164 125.422 84.6294 124.039C82.3883 118.666 80.4141 113.187 78.9734 107.548C79.6137 106.75 79.7738 105.846 79.7738 104.888ZM116.431 136.753C117.979 136.54 119.579 136.434 121.127 136.168C122.781 135.902 123.688 134.785 123.475 133.189C123.315 131.54 122.141 130.795 120.487 130.901C118.459 131.061 116.431 131.22 114.457 131.433C113.07 131.54 112.376 132.444 112.269 133.667C112.109 135.051 112.75 136.115 114.083 136.487C114.831 136.753 115.631 136.7 116.431 136.753Z" fill="#EBEBEA"/>
<path d="M59.9244 160.16C57.4165 163.831 53.5213 164.948 49.466 163.192C46.3179 161.809 43.6499 159.841 42.1025 156.596C39.5413 151.223 36.9267 145.957 34.4722 140.53C33.0849 137.498 33.9386 134.04 36.4465 131.806C39.0077 129.519 42.1559 128.614 45.5708 128.827C47.3317 128.934 48.9325 129.785 49.7328 131.381C53.7347 139.041 58.3236 146.488 60.8848 154.84C58.1102 156.489 57.9501 157.5 59.9244 160.16Z" fill="#75A3D5"/>
<path d="M104.692 152.606C102.451 148.456 101.971 143.881 101.224 139.36C99.6764 130.103 97.0618 121.113 94.2872 112.176C94.1804 111.751 94.0737 111.325 93.9136 110.899C93.2733 109.091 93.2733 107.495 95.5144 106.91C97.7021 106.325 98.5559 107.708 99.0361 109.516C100.423 114.251 101.757 119.039 103.145 123.773C105.813 132.87 106.613 142.339 109.228 151.435C108.107 153.191 106.506 153.35 104.692 152.606Z" fill="#295463"/>
<path d="M84.4156 127.71C87.0835 130.742 88.8443 134.093 88.6309 138.243C88.5242 140.956 87.0835 142.498 84.3622 142.658C79.6133 142.871 76.7853 139.785 73.9572 136.647C72.9968 135.583 72.4098 134.147 70.8624 133.668C70.7557 133.295 70.5956 132.87 70.4889 132.497C75.3446 131.487 79.8801 129.625 84.4156 127.71Z" fill="#F5D3BD"/>
<path d="M146.472 166.33C145.511 166.277 144.658 165.958 144.071 165.054C143.484 164.203 143.644 163.351 144.177 162.607C148.233 156.755 152.821 151.382 157.677 146.169C158.744 144.999 160.078 144.999 161.252 146.116C162.373 147.18 162.533 148.51 161.466 149.68C156.983 154.734 152.661 159.894 148.659 165.267C148.126 165.958 147.379 166.277 146.472 166.33Z" fill="#295463"/>
<path d="M59.9248 160.159C57.9505 157.553 58.1106 156.489 60.8319 154.84C62.9662 155.159 64.4603 156.595 65.9543 157.872C67.1282 158.83 67.2349 160.213 66.3278 161.436C65.4207 162.713 64.1401 162.713 62.8061 161.968C61.8457 161.33 60.8852 160.745 59.9248 160.159Z" fill="#295463"/>
<path d="M250.042 126.912C249.508 128.987 248.548 130.848 247.16 132.498C246.627 131.38 245.773 130.582 244.492 130.742C243.265 130.848 242.091 130.955 240.811 130.582C239.317 130.157 238.143 130.795 237.716 132.285C237.236 133.934 237.983 135.051 239.53 135.583C241.291 136.221 243.159 136.487 244.973 135.902C243.425 139.732 240.597 142.711 238.089 145.903C235.208 149.52 232.593 153.297 232.06 158.085C226.03 157.128 219.947 156.17 213.918 155.212C210.396 154.681 206.874 154.308 203.353 153.723C196.896 152.712 195.189 150.159 196.63 143.722C198.124 137.126 199.938 130.689 202.499 124.412C203.406 122.124 204.473 119.837 205.487 117.602C207.248 113.719 210.289 111.857 214.558 111.751C224.003 111.538 233.394 111.325 242.838 111.112C244.172 111.059 245.56 111.272 246.627 110.261C249.295 110.421 251.909 110.58 254.577 110.74C255.164 111.112 255.805 111.485 255.591 112.389C254.577 116.166 253.724 120.05 251.536 123.454C250.949 122.337 249.988 121.805 248.708 121.911C246.894 122.018 245.186 121.699 243.479 121.22C241.878 120.794 240.597 121.22 240.064 122.763C239.423 124.571 240.437 125.635 242.038 126.167C244.599 127.071 247.267 127.55 250.042 126.912ZM224.109 151.276C224.003 154.468 225.123 156.117 227.044 155.851C229.392 155.532 230.086 153.989 229.552 151.808C229.339 150.85 229.659 149.893 229.872 148.935C230.512 146.435 231.259 143.988 231.793 141.488C233.714 132.923 235.582 124.358 237.449 115.847C238.036 113.187 236.702 111.485 234.514 111.804C232.7 112.123 232.54 113.666 232.22 114.996C230.566 122.443 228.965 129.838 227.311 137.285C226.244 142.126 225.123 146.914 224.109 151.276ZM214.345 146.009C215.519 146.009 216.639 146.063 217.813 146.009C219.414 145.903 220.268 144.999 220.321 143.456C220.374 141.913 219.467 140.903 217.92 140.849C215.625 140.743 213.278 140.743 210.983 140.849C209.436 140.956 208.582 141.913 208.635 143.509C208.689 145.105 209.596 145.956 211.143 146.009C212.21 146.063 213.278 146.009 214.345 146.009ZM212.851 122.071C211.357 122.124 210.289 122.656 209.916 124.039C209.596 125.422 210.183 126.699 211.517 127.018C214.025 127.603 216.586 127.976 219.094 128.242C220.481 128.401 221.441 127.55 221.655 126.061C221.815 124.678 221.281 123.56 219.841 123.241C217.493 122.763 215.092 122.443 212.851 122.071ZM214.932 130.529C213.011 130.476 211.73 130.476 210.556 130.955C209.382 131.487 208.849 132.498 209.116 133.774C209.329 134.891 210.023 135.796 211.25 135.743C213.384 135.689 215.465 135.955 217.6 136.115C219.094 136.221 220.107 135.264 220.321 133.774C220.588 132.178 219.681 131.274 218.187 130.955C216.906 130.742 215.572 130.636 214.932 130.529Z" fill="#EAEAE9"/>
<path d="M275.227 141.168C273.68 146.382 272.132 151.808 270.425 157.181C269.945 158.67 268.557 159.042 267.117 158.564C265.623 158.085 265.036 156.968 265.516 155.425C267.01 150.265 268.504 145.052 270.105 139.945C270.585 138.402 271.759 137.657 273.413 138.136C274.694 138.509 275.441 139.466 275.227 141.168Z" fill="#295463"/>
<path d="M283.605 151.648C283.605 152.925 282.965 154.042 281.364 154.149C279.87 154.255 278.643 153.563 278.483 152.021C277.842 146.967 277.202 141.86 276.135 136.86C275.815 135.37 276.775 134.306 278.322 134.04C279.87 133.774 280.884 134.413 281.311 135.955C282.538 141.062 283.178 146.222 283.605 151.648Z" fill="#295463"/>
<path d="M242.678 158.564C248.654 153.829 253.99 148.509 259.326 143.136C258.259 147.445 255.164 150.424 252.229 153.35C249.668 155.957 246.573 158.085 242.678 158.564Z" fill="#EAEAE9"/>
<path d="M259.327 143.19C259.487 143.03 259.647 142.817 259.86 142.658C259.807 142.924 259.7 143.19 259.327 143.19Z" fill="#EAEAE9"/>
<path d="M79.7743 104.888C79.8277 105.846 79.6142 106.804 79.0273 107.602C76.8396 108.931 75.4523 108.24 74.4384 106.006C72.3041 101.431 71.397 96.5898 71.0768 91.6425C70.65 85.0993 71.2369 78.5561 71.5571 72.013C71.6638 70.2043 72.5175 69.1403 74.3851 69.2467C76.306 69.2999 76.9463 70.6298 76.8396 72.3321C76.6261 76.6411 76.4127 81.0032 76.2526 85.3121C75.9858 92.0681 76.5194 98.7177 79.7743 104.888Z" fill="#295463"/>
<path d="M116.325 92.1211C112.91 91.9615 112.056 91.0572 112.643 87.6526C113.924 80.6306 113.977 73.5555 113.497 66.4804C113.39 64.8313 113.497 63.3418 115.578 63.1822C117.499 63.0226 118.566 64.1397 118.726 66.0016C119.206 71.3212 119.153 76.5877 118.726 81.9074C118.566 84.248 117.606 86.5355 118.406 88.9293C116.965 89.5145 117.606 91.4296 116.325 92.1211Z" fill="#295463"/>
<path d="M127.103 138.402C125.662 135.902 123.954 133.508 124.328 130.37C129.023 130.37 133.666 130.37 138.361 130.316C138.255 133.508 136.44 135.902 134.519 138.243C132.012 139.2 129.557 139.413 127.103 138.402Z" fill="#F5D3BD"/>
<path d="M268.824 87.3864C268.984 91.8017 269.145 96.2171 269.305 100.632C269.358 102.707 268.611 104.303 266.263 104.569C264.449 104.25 263.755 103.079 263.755 101.377C263.809 93.8232 263.435 86.3225 262.475 78.875C262.421 78.2898 262.421 77.5982 262.581 77.0663C263.008 75.6831 264.075 75.098 265.409 75.1512C266.69 75.2044 267.277 76.0023 267.437 77.2259C267.917 80.524 268.398 83.9818 268.824 87.3864Z" fill="#295463"/>
<path d="M250.042 126.912C247.267 127.55 244.599 127.125 241.985 126.22C240.384 125.688 239.37 124.571 240.01 122.816C240.544 121.22 241.824 120.794 243.425 121.273C245.133 121.752 246.84 122.124 248.654 121.965C249.935 121.858 250.895 122.39 251.482 123.507C251.376 124.784 250.949 125.954 250.042 126.912Z" fill="#295463"/>
<path d="M245.026 135.955C243.158 136.54 241.344 136.221 239.583 135.636C238.036 135.104 237.289 133.987 237.769 132.338C238.196 130.848 239.37 130.21 240.864 130.635C242.091 130.955 243.265 130.901 244.546 130.795C245.88 130.635 246.68 131.433 247.214 132.551C246.787 133.827 246.146 135.051 245.026 135.955Z" fill="#295463"/>
<path d="M127.103 138.402C129.558 139.413 132.066 139.2 134.467 138.296C135.534 141.222 135.054 142.126 132.119 142.871C127.37 144.041 122.568 144.733 117.712 145.052C116.005 145.158 114.617 144.679 114.457 142.764C114.35 141.009 115.311 139.998 117.125 139.732C120.433 139.36 123.848 139.466 127.103 138.402Z" fill="#295463"/>
<path d="M116.432 136.753C115.631 136.7 114.777 136.753 114.084 136.54C112.75 136.115 112.109 135.051 112.27 133.721C112.43 132.497 113.123 131.593 114.457 131.487C116.485 131.327 118.513 131.114 120.487 130.955C122.141 130.848 123.315 131.54 123.475 133.242C123.635 134.838 122.728 135.955 121.127 136.221C119.633 136.434 118.032 136.54 116.432 136.753Z" fill="#295463"/>
<path d="M224.109 151.276C225.123 146.914 226.244 142.126 227.311 137.285C228.965 129.837 230.566 122.443 232.22 114.996C232.54 113.666 232.647 112.07 234.514 111.804C236.702 111.431 238.036 113.187 237.449 115.847C235.582 124.411 233.714 132.976 231.793 141.488C231.26 143.988 230.513 146.435 229.872 148.935C229.605 149.893 229.285 150.797 229.552 151.808C230.086 153.989 229.392 155.531 227.044 155.851C225.123 156.117 224.003 154.468 224.109 151.276Z" fill="#295463"/>
<path d="M214.345 146.009C213.278 146.009 212.211 146.063 211.144 146.009C209.596 145.903 208.689 145.105 208.636 143.509C208.582 141.913 209.436 140.903 210.984 140.849C213.278 140.743 215.572 140.743 217.92 140.849C219.468 140.903 220.375 141.913 220.321 143.456C220.268 144.999 219.414 145.956 217.813 146.009C216.693 146.063 215.519 146.009 214.345 146.009Z" fill="#295463"/>
<path d="M212.851 122.071C215.092 122.443 217.493 122.762 219.841 123.241C221.282 123.56 221.815 124.624 221.655 126.06C221.495 127.497 220.481 128.348 219.094 128.242C216.533 127.976 213.972 127.603 211.517 127.018C210.183 126.699 209.596 125.422 209.916 124.039C210.29 122.656 211.357 122.124 212.851 122.071Z" fill="#295463"/>
<path d="M214.931 130.529C215.571 130.635 216.905 130.742 218.186 131.008C219.68 131.274 220.587 132.178 220.32 133.827C220.107 135.317 219.093 136.327 217.599 136.168C215.465 136.008 213.384 135.742 211.249 135.796C210.022 135.796 209.328 134.944 209.115 133.827C208.848 132.551 209.382 131.54 210.556 131.008C211.73 130.476 213.01 130.476 214.931 130.529Z" fill="#295463"/>
</svg>
