<svg width="21" height="21" viewBox="0 0 21 21" fill="none" xmlns="http://www.w3.org/2000/svg">
<path fill-rule="evenodd" clip-rule="evenodd" d="M0.065625 4.66594C0.197949 4.08613 0.523235 3.56844 0.98821 3.19765C1.45318 2.82687 2.03029 2.62496 2.625 2.625H18.375C18.9697 2.62496 19.5468 2.82687 20.0118 3.19765C20.4768 3.56844 20.8021 4.08613 20.9344 4.66594L10.5 11.0434L0.065625 4.66594ZM0 6.16481V15.4888L7.61644 10.8189L0 6.16481ZM8.87381 11.5894L0.250688 16.8748C0.463741 17.3241 0.800004 17.7036 1.22034 17.9691C1.64067 18.2347 2.12779 18.3755 2.625 18.375H18.375C18.8721 18.3751 19.3591 18.2341 19.7792 17.9682C20.1993 17.7024 20.5352 17.3228 20.748 16.8735L12.1249 11.5881L10.5 12.5816L8.87381 11.5881V11.5894ZM13.3836 10.8203L21 15.4888V6.16481L13.3836 10.8189V10.8203Z" fill="#086788"/>
</svg>
