<svg width="95" height="48" viewBox="0 0 95 48" fill="none" xmlns="http://www.w3.org/2000/svg">
<g clip-path="url(#clip0)">
<g filter="url(#filter0_d)">
<path d="M22.4532 43.0056C32.6733 43.0056 40.9582 34.7216 40.9582 24.5028C40.9582 14.284 32.6733 6 22.4532 6C12.2332 6 3.94824 14.284 3.94824 24.5028C3.94824 34.7216 12.2332 43.0056 22.4532 43.0056Z" fill="#F2FCFF"/>
</g>
<g filter="url(#filter1_f)">
<ellipse cx="22.4532" cy="24.5028" rx="18.505" ry="18.5028" fill="url(#paint0_linear)"/>
</g>
<path d="M26.3833 29.4348H27.5331C28.0137 28.428 28.3512 27.198 28.5457 25.745C28.7516 24.2805 28.8546 22.2039 28.8546 19.5152H35.2903V29.4348H36.6805L36.2686 33.6738H34.9299L34.5524 30.6705H28.4427L27.7562 33.6738H26.572L26.3833 29.4348ZM32.922 29.4348V20.7508H30.2447C30.2218 22.959 30.1074 24.721 29.9015 26.0367C29.6955 27.341 29.3752 28.4737 28.9404 29.4348H32.922ZM41.58 30.8592C40.2985 30.8592 39.3089 30.4702 38.6109 29.6922C37.9244 28.9142 37.5812 27.8101 37.5812 26.38C37.5812 24.9498 37.9244 23.8457 38.6109 23.0677C39.3089 22.2897 40.2985 21.9007 41.58 21.9007C42.8728 21.9007 43.8625 22.2897 44.549 23.0677C45.2469 23.8457 45.5959 24.9498 45.5959 26.38C45.5959 27.7987 45.2355 28.9028 44.5147 29.6922C43.8053 30.4702 42.8271 30.8592 41.58 30.8592ZM41.58 29.7266C41.9575 29.7266 42.255 29.6179 42.4724 29.4005C42.7012 29.1831 42.8671 28.8341 42.9701 28.3536C43.073 27.8731 43.1245 27.2152 43.1245 26.38C43.1245 25.5447 43.073 24.8869 42.9701 24.4063C42.8671 23.9258 42.7069 23.5826 42.4895 23.3766C42.2721 23.1592 41.969 23.0505 41.58 23.0505C41.1909 23.0505 40.8878 23.1592 40.6704 23.3766C40.453 23.5826 40.2928 23.9258 40.1898 24.4063C40.0869 24.8869 40.0354 25.539 40.0354 26.3628C40.0354 27.198 40.0869 27.8616 40.1898 28.3536C40.2928 28.8341 40.453 29.1831 40.6704 29.4005C40.8992 29.6179 41.2024 29.7266 41.58 29.7266ZM50.6139 30.8592C49.2752 30.8592 48.2741 30.4245 47.6105 29.5549C46.9584 28.6854 46.6323 27.484 46.6323 25.9509C46.6323 24.4979 46.7238 23.245 46.9069 22.1924C47.1014 21.1398 47.5304 20.2245 48.194 19.4465C48.8691 18.6571 49.8759 18.1765 51.2145 18.0049L53.6172 17.696L53.703 19.9442L51.8324 20.0815C50.4022 20.1845 49.3725 20.5907 48.7432 21.3C48.1254 21.9979 47.8222 23.0162 47.8336 24.3548H47.9709C48.0396 24.0574 48.1883 23.7198 48.4171 23.3423C48.646 22.9647 48.972 22.6329 49.3954 22.3469C49.8301 22.0494 50.3564 21.9007 50.9743 21.9007C52.1184 21.9007 53.0109 22.284 53.6516 23.0505C54.2922 23.8171 54.6126 24.9097 54.6126 26.3285C54.6126 27.7472 54.2522 28.857 53.5314 29.6579C52.8221 30.4588 51.8495 30.8592 50.6139 30.8592ZM50.6139 29.7266C51.1745 29.7266 51.5692 29.4691 51.7981 28.9543C52.0383 28.4394 52.1585 27.5641 52.1585 26.3285C52.1585 25.5047 52.107 24.8583 52.004 24.3892C51.901 23.9086 51.7409 23.5654 51.5235 23.3594C51.3061 23.1421 51.0029 23.0334 50.6139 23.0334C50.0761 23.0334 49.6871 23.2851 49.4469 23.7885C49.2066 24.2919 49.0865 25.047 49.0865 26.0539C49.0865 27.3925 49.2009 28.3421 49.4297 28.9028C49.6585 29.452 50.0532 29.7266 50.6139 29.7266ZM56.1636 22.0895H58L58.3089 22.8617H58.3604C58.3604 22.8389 58.4575 22.7473 58.6521 22.5872C58.8465 22.4155 59.1155 22.2611 59.4587 22.1238C59.802 21.975 60.2139 21.9007 60.6944 21.9007C61.7126 21.9007 62.5136 22.2897 63.0971 23.0677C63.6806 23.8457 63.9724 24.8926 63.9724 26.2083C63.9724 27.1351 63.8351 27.9532 63.5605 28.6625C63.2859 29.3604 62.8911 29.9039 62.3763 30.2929C61.8727 30.6705 61.272 30.8592 60.5743 30.8592C60.1281 30.8592 59.7505 30.8078 59.4416 30.7048C59.1327 30.6133 58.898 30.516 58.7379 30.413C58.5776 30.2986 58.4977 30.23 58.4977 30.2071H58.4462V34.961L56.1636 35.0296V22.0895ZM59.7162 29.5549C60.1509 29.5549 60.4941 29.452 60.7459 29.246C61.009 29.0401 61.2034 28.7025 61.3294 28.2335C61.4552 27.7529 61.5182 27.0951 61.5182 26.2598C61.5182 25.4704 61.4552 24.8583 61.3294 24.4235C61.2149 23.9773 61.0377 23.6684 60.7974 23.4967C60.5684 23.3251 60.2654 23.2393 59.8878 23.2393C59.6132 23.2393 59.367 23.2908 59.1498 23.3938C58.9439 23.4967 58.7779 23.6054 58.6521 23.7198C58.5376 23.8343 58.469 23.9201 58.4462 23.9773V28.9886C58.469 29.0229 58.5261 29.0858 58.6178 29.1774C58.7093 29.2575 58.8465 29.3433 59.0297 29.4348C59.2241 29.5149 59.4528 29.5549 59.7162 29.5549ZM68.9823 30.8592C67.7008 30.8592 66.711 30.4702 66.0133 29.6922C65.3268 28.9142 64.9836 27.8101 64.9836 26.38C64.9836 24.9498 65.3268 23.8457 66.0133 23.0677C66.711 22.2897 67.7008 21.9007 68.9823 21.9007C70.2751 21.9007 71.2649 22.2897 71.9514 23.0677C72.6491 23.8457 72.9982 24.9498 72.9982 26.38C72.9982 27.7987 72.6378 28.9028 71.917 29.6922C71.2075 30.4702 70.2292 30.8592 68.9823 30.8592ZM68.9823 29.7266C69.3599 29.7266 69.6573 29.6179 69.8747 29.4005C70.1035 29.1831 70.2695 28.8341 70.3724 28.3536C70.4754 27.8731 70.5269 27.2152 70.5269 26.38C70.5269 25.5447 70.4754 24.8869 70.3724 24.4063C70.2695 23.9258 70.1091 23.5826 69.8919 23.3766C69.6744 23.1592 69.3711 23.0505 68.9823 23.0505C68.5932 23.0505 68.2899 23.1592 68.0727 23.3766C67.8553 23.5826 67.6952 23.9258 67.5922 24.4063C67.4892 24.8869 67.4377 25.539 67.4377 26.3628C67.4377 27.198 67.4892 27.8616 67.5922 28.3536C67.6952 28.8341 67.8553 29.1831 68.0727 29.4005C68.3015 29.6179 68.6048 29.7266 68.9823 29.7266ZM28.6486 44.6146V37.2864H26.1773L26.1602 36.0336H33.3854V37.2864H30.914V44.6146H28.6486ZM34.6104 36.0336H37.8884C39.1012 36.0336 39.9821 36.2452 40.5313 36.6686C41.0805 37.0805 41.3551 37.6354 41.3551 38.3333C41.3551 39.1914 40.8517 39.8207 39.8448 40.2211C40.3483 40.3584 40.7716 40.5872 41.1148 40.9076C41.4695 41.2165 41.6469 41.617 41.6469 42.1089C41.6469 42.9098 41.3608 43.5277 40.7888 43.9624C40.2167 44.3971 39.2613 44.6146 37.9227 44.6146H34.6104V36.0336ZM38.1458 39.8607C38.1458 39.8836 38.2316 39.8607 38.4032 39.7921C38.5749 39.712 38.7293 39.569 38.8666 39.363C39.0039 39.1456 39.0726 38.8424 39.0726 38.4534C39.0726 37.5267 38.6664 37.0633 37.8541 37.0633H36.893V39.8607H38.1458ZM37.8712 43.5849C38.3746 43.5849 38.7408 43.4419 38.9696 43.1558C39.1984 42.8698 39.3128 42.4865 39.3128 42.006C39.3128 41.1135 38.8723 40.6673 37.9914 40.6673H36.893V43.5849H37.8712ZM46.6414 44.8034C45.36 44.8034 44.3703 44.4143 43.6724 43.6364C42.9859 42.8584 42.6427 41.7543 42.6427 40.3241C42.6427 38.8939 42.9859 37.7898 43.6724 37.0118C44.3703 36.2338 45.36 35.8448 46.6414 35.8448C47.9343 35.8448 48.924 36.2338 49.6104 37.0118C50.3084 37.7898 50.6573 38.8939 50.6573 40.3241C50.6573 41.7428 50.2969 42.8469 49.5761 43.6364C48.8668 44.4143 47.8885 44.8034 46.6414 44.8034ZM46.6414 43.6707C47.019 43.6707 47.3164 43.562 47.5338 43.3446C47.7626 43.1272 47.9286 42.7783 48.0315 42.2977C48.1345 41.8172 48.186 41.1593 48.186 40.3241C48.186 39.4889 48.1345 38.831 48.0315 38.3505C47.9286 37.8699 47.7684 37.5267 47.551 37.3207C47.3336 37.1033 47.0304 36.9947 46.6414 36.9947C46.2524 36.9947 45.9492 37.1033 45.7318 37.3207C45.5144 37.5267 45.3543 37.8699 45.2513 38.3505C45.1483 38.831 45.0968 39.4832 45.0968 40.3069C45.0968 41.1422 45.1483 41.8057 45.2513 42.2977C45.3543 42.7783 45.5144 43.1272 45.7318 43.3446C45.9606 43.562 46.2638 43.6707 46.6414 43.6707ZM52.1914 36.0336H54.0278L54.3367 36.8059H54.3882C54.3882 36.783 54.4855 36.6915 54.6799 36.5313C54.8743 36.3597 55.1433 36.2052 55.4865 36.0679C55.8298 35.9192 56.2417 35.8448 56.7222 35.8448C57.7404 35.8448 58.5414 36.2338 59.1249 37.0118C59.7084 37.7898 60.0002 38.8367 60.0002 40.1525C60.0002 41.0792 59.8629 41.8973 59.5883 42.6066C59.3137 43.3046 58.9189 43.848 58.4041 44.237C57.9008 44.6146 57.3001 44.8034 56.6021 44.8034C56.1559 44.8034 55.7783 44.7519 55.4694 44.6489C55.1605 44.5575 54.9258 44.4601 54.7657 44.3572C54.6057 44.2427 54.5255 44.1741 54.5255 44.1512H54.474V48.9051L52.1914 48.9737V36.0336ZM55.744 43.4991C56.1787 43.4991 56.5219 43.3961 56.7737 43.1901C57.0368 42.9842 57.2314 42.6467 57.3572 42.1776C57.483 41.6971 57.546 41.0392 57.546 40.204C57.546 39.4145 57.483 38.8024 57.3572 38.3676C57.2427 37.9214 57.0655 37.6125 56.8252 37.4409C56.5964 37.2693 56.2932 37.1834 55.9156 37.1834C55.641 37.1834 55.3951 37.2349 55.1776 37.3379C54.9717 37.4409 54.8057 37.5496 54.6799 37.664C54.5654 37.7784 54.4968 37.8642 54.474 37.9214V42.9327C54.4968 42.967 54.5542 43.03 54.6456 43.1215C54.737 43.2016 54.8743 43.2874 55.0575 43.3789C55.2519 43.459 55.4809 43.4991 55.744 43.4991ZM65.0273 44.8034C63.7573 44.8034 62.7675 44.4545 62.0583 43.7565C61.3602 43.0471 61.0114 41.9545 61.0114 40.4785C61.0114 38.9912 61.3546 37.8528 62.0411 37.0633C62.7276 36.2624 63.6543 35.862 64.8213 35.862C65.8854 35.862 66.7092 36.1995 67.2927 36.8745C67.8877 37.5381 68.1851 38.4935 68.1851 39.7406C68.1851 40.0266 68.1623 40.2669 68.1164 40.4614C68.0821 40.6559 68.0593 40.776 68.0478 40.8218H63.4312C63.4427 41.8515 63.5913 42.5838 63.8774 43.0185C64.1748 43.4419 64.6497 43.6535 65.3019 43.6535C65.691 43.6535 66.0342 43.5734 66.3316 43.4133C66.629 43.2416 66.8636 43.0586 67.0352 42.8641C67.2069 42.6581 67.2927 42.5437 67.2927 42.5208L68.065 43.1215C68.065 43.1673 67.9448 43.3332 67.7046 43.6192C67.4758 43.9052 67.1326 44.1741 66.6748 44.4258C66.2286 44.6776 65.6794 44.8034 65.0273 44.8034ZM66.057 39.7063V39.3115C66.057 38.442 65.9656 37.8356 65.7824 37.4924C65.5993 37.1377 65.2791 36.9603 64.8213 36.9603C64.5009 36.9603 64.2435 37.0404 64.049 37.2006C63.8659 37.3608 63.723 37.6411 63.62 38.0415C63.517 38.4306 63.454 38.9855 63.4312 39.7063H66.057ZM69.672 44.6146V36.0336H71.9546V39.6205H74.6147V36.0336H76.8972V44.6146H74.6147V40.7875H71.9546V44.6146H69.672ZM78.9569 44.6146V36.0336H81.2395V41.6799L84.3801 36.0336H86.3709V44.6146H84.0884V38.6251L80.7418 44.6146H78.9569ZM91.91 44.8034C90.64 44.8034 89.6502 44.4545 88.9409 43.7565C88.2429 43.0471 87.8941 41.9545 87.8941 40.4785C87.8941 38.9912 88.2373 37.8528 88.9238 37.0633C89.6103 36.2624 90.537 35.862 91.704 35.862C92.7681 35.862 93.5918 36.1995 94.1753 36.8745C94.7704 37.5381 95.0678 38.4935 95.0678 39.7406C95.0678 40.0266 95.045 40.2669 94.9991 40.4614C94.9648 40.6559 94.942 40.776 94.9305 40.8218H90.3139C90.3254 41.8515 90.474 42.5838 90.7601 43.0185C91.0575 43.4419 91.5324 43.6535 92.1846 43.6535C92.5737 43.6535 92.9169 43.5734 93.2143 43.4133C93.5117 43.2416 93.7463 43.0586 93.9179 42.8641C94.0895 42.6581 94.1753 42.5437 94.1753 42.5208L94.9476 43.1215C94.9476 43.1673 94.8275 43.3332 94.5872 43.6192C94.3585 43.9052 94.0153 44.1741 93.5575 44.4258C93.1113 44.6776 92.5621 44.8034 91.91 44.8034ZM92.9397 39.7063V39.3115C92.9397 38.442 92.8482 37.8356 92.6651 37.4924C92.4819 37.1377 92.1618 36.9603 91.704 36.9603C91.3836 36.9603 91.1261 37.0404 90.9317 37.2006C90.7486 37.3608 90.6057 37.6411 90.5027 38.0415C90.3997 38.4306 90.3367 38.9855 90.3139 39.7063H92.9397Z" fill="url(#paint1_linear)"/>
</g>
<defs>
<filter id="filter0_d" x="-3.05176" y="-1" width="51.01" height="51.0056" filterUnits="userSpaceOnUse" color-interpolation-filters="sRGB">
<feFlood flood-opacity="0" result="BackgroundImageFix"/>
<feColorMatrix in="SourceAlpha" type="matrix" values="0 0 0 0 0 0 0 0 0 0 0 0 0 0 0 0 0 0 127 0"/>
<feOffset/>
<feGaussianBlur stdDeviation="3.5"/>
<feColorMatrix type="matrix" values="0 0 0 0 0 0 0 0 0 0.458824 0 0 0 0 1 0 0 0 0.1 0"/>
<feBlend mode="normal" in2="BackgroundImageFix" result="effect1_dropShadow"/>
<feBlend mode="normal" in="SourceGraphic" in2="effect1_dropShadow" result="shape"/>
</filter>
<filter id="filter1_f" x="1.94824" y="4" width="41.01" height="41.0056" filterUnits="userSpaceOnUse" color-interpolation-filters="sRGB">
<feFlood flood-opacity="0" result="BackgroundImageFix"/>
<feBlend mode="normal" in="SourceGraphic" in2="BackgroundImageFix" result="shape"/>
<feGaussianBlur stdDeviation="1" result="effect1_foregroundBlur"/>
</filter>
<linearGradient id="paint0_linear" x1="58.2564" y1="12.4358" x2="22.4568" y2="43.0098" gradientUnits="userSpaceOnUse">
<stop stop-color="#0075FF"/>
<stop offset="1" stop-color="#F2FCFF" stop-opacity="0"/>
</linearGradient>
<linearGradient id="paint1_linear" x1="25.9885" y1="30.6705" x2="95.7092" y2="30.6705" gradientUnits="userSpaceOnUse">
<stop stop-color="#F96900"/>
<stop offset="0.336458" stop-color="#F9005A"/>
<stop offset="0.675" stop-color="#0075FF"/>
<stop offset="1" stop-color="#870AEB"/>
</linearGradient>
<clipPath id="clip0">
<rect width="95" height="48" fill="white"/>
</clipPath>
</defs>
</svg>
