<svg width="109" height="64" viewBox="0 0 109 64" fill="none" xmlns="http://www.w3.org/2000/svg">
<g clip-path="url(#clip0)">
<g filter="url(#filter0_f)">
<path d="M25.4574 58.2146C39.121 58.2146 50.1975 47.0445 50.1975 33.2655C50.1975 19.4865 39.121 8.31635 25.4574 8.31635C11.7938 8.31635 0.717285 19.4865 0.717285 33.2655C0.717285 47.0445 11.7938 58.2146 25.4574 58.2146Z" fill="#F96900"/>
<g filter="url(#filter1_f)">
<path d="M25.4574 58.2146C39.121 58.2146 50.1975 47.0445 50.1975 33.2655C50.1975 19.4865 39.121 8.31635 25.4574 8.31635C11.7938 8.31635 0.717285 19.4865 0.717285 33.2655C0.717285 47.0445 11.7938 58.2146 25.4574 58.2146Z" fill="url(#paint0_linear)"/>
</g>
</g>
<g filter="url(#filter2_f)">
<path d="M51.1938 11.7494C54.4437 8.20858 62.7295 4.27938 69.8726 16.8893C77.0157 29.4993 87.2104 18.9741 91.4144 12.1353" stroke="#F9005A" stroke-width="4"/>
</g>
<path d="M30.6462 39.9158H32.1837C32.8262 38.558 33.2775 36.8998 33.5376 34.9404C33.813 32.9657 33.9506 30.1656 33.9506 26.5401H42.5559V39.9158H44.4146L43.8639 45.6317H42.074L41.5692 41.5819H33.3999L32.482 45.6317H30.8986L30.6462 39.9158ZM39.3892 39.9158V28.2063H35.8094C35.7788 31.1838 35.6258 33.5596 35.3504 35.3338C35.0751 37.0925 34.6467 38.6199 34.0654 39.9158H39.3892ZM50.9658 41.8365C49.2522 41.8365 47.9292 41.3118 46.9959 40.2629C46.078 39.2139 45.619 37.7249 45.619 35.7966C45.619 33.8682 46.078 32.3794 46.9959 31.3304C47.9292 30.2813 49.2522 29.7568 50.9658 29.7568C52.6943 29.7568 54.0177 30.2813 54.9356 31.3304C55.869 32.3794 56.3354 33.8682 56.3354 35.7966C56.3354 37.7098 55.8535 39.1984 54.8898 40.2629C53.9414 41.3118 52.6334 41.8365 50.9658 41.8365ZM50.9658 40.3092C51.4706 40.3092 51.8682 40.1627 52.159 39.8695C52.4649 39.5762 52.6868 39.1058 52.8245 38.4579C52.9622 37.8099 53.031 36.923 53.031 35.7966C53.031 34.6704 52.9622 33.7833 52.8245 33.1354C52.6868 32.4874 52.4727 32.0246 52.182 31.7469C51.8912 31.4538 51.486 31.3072 50.9658 31.3072C50.4455 31.3072 50.0403 31.4538 49.7495 31.7469C49.4588 32.0246 49.2447 32.4874 49.107 33.1354C48.9693 33.7833 48.9005 34.6627 48.9005 35.7735C48.9005 36.8998 48.9693 37.7944 49.107 38.4579C49.2447 39.1058 49.4588 39.5762 49.7495 39.8695C50.0554 40.1627 50.4609 40.3092 50.9658 40.3092ZM63.045 41.8365C61.2551 41.8365 59.9167 41.2504 59.0292 40.0778C58.1572 38.9051 57.7212 37.2853 57.7212 35.2181C57.7212 33.2588 57.8435 31.5695 58.0884 30.1502C58.3483 28.7308 58.922 27.4966 59.8095 26.4476C60.7119 25.3831 62.0583 24.7351 63.8482 24.5037L67.0608 24.0872L67.1756 27.1187L64.6743 27.3038C62.7621 27.4426 61.3853 27.9903 60.5438 28.9468C59.7177 29.8879 59.3121 31.2609 59.3276 33.066H59.5111C59.6029 32.6649 59.8019 32.2097 60.1078 31.7006C60.4136 31.1915 60.8496 30.7441 61.4158 30.3584C61.997 29.9573 62.7008 29.7568 63.5269 29.7568C65.0569 29.7568 66.2501 30.2736 67.1067 31.3072C67.9633 32.3409 68.3918 33.8142 68.3918 35.7272C68.3918 37.6403 67.9099 39.1366 66.9461 40.2166C65.9977 41.2966 64.6972 41.8365 63.045 41.8365ZM63.045 40.3092C63.7948 40.3092 64.3226 39.9621 64.6284 39.2678C64.9497 38.5736 65.1103 37.3934 65.1103 35.7272C65.1103 34.6164 65.0415 33.7448 64.9038 33.1122C64.7661 32.4643 64.552 32.0015 64.2612 31.7238C63.9705 31.4306 63.5653 31.2841 63.045 31.2841C62.3261 31.2841 61.8059 31.6235 61.4846 32.3023C61.1633 32.9811 61.0027 33.9993 61.0027 35.3569C61.0027 37.162 61.1558 38.4423 61.4617 39.1984C61.7675 39.9389 62.2953 40.3092 63.045 40.3092ZM70.4656 30.0113H72.921L73.3341 31.0527H73.4029C73.4029 31.0218 73.5327 30.8984 73.793 30.6824C74.053 30.451 74.4126 30.2427 74.8715 30.0576C75.3305 29.857 75.8812 29.7568 76.5237 29.7568C77.8852 29.7568 78.9562 30.2813 79.7364 31.3304C80.5166 32.3794 80.9067 33.791 80.9067 35.5652C80.9067 36.8148 80.7231 37.918 80.356 38.8744C79.9888 39.8156 79.461 40.5482 78.7726 41.0728C78.0992 41.5819 77.2961 41.8365 76.3631 41.8365C75.7665 41.8365 75.2616 41.7671 74.8486 41.6282C74.4355 41.5049 74.1218 41.3737 73.9077 41.2348C73.6933 41.0804 73.5865 40.9879 73.5865 40.9571H73.5176V47.3672L70.4656 47.4598V30.0113ZM75.2157 40.0778C75.797 40.0778 76.2559 39.9389 76.5926 39.6612C76.9443 39.3835 77.2043 38.9283 77.3728 38.2959C77.541 37.6479 77.6252 36.761 77.6252 35.6346C77.6252 34.5701 77.541 33.7448 77.3728 33.1585C77.2197 32.5569 76.9827 32.1403 76.6614 31.9089C76.3552 31.6775 75.9501 31.5618 75.4452 31.5618C75.0781 31.5618 74.7489 31.6312 74.4585 31.7701C74.1831 31.9089 73.9612 32.0554 73.793 32.2097C73.6399 32.364 73.5481 32.4797 73.5176 32.5569V39.3141C73.5481 39.3604 73.6245 39.4454 73.7471 39.5687C73.8694 39.6768 74.053 39.7925 74.2979 39.9158C74.5578 40.0239 74.8636 40.0778 75.2157 40.0778ZM87.6055 41.8365C85.892 41.8365 84.5686 41.3118 83.6356 40.2629C82.7177 39.2139 82.2588 37.7249 82.2588 35.7966C82.2588 33.8682 82.7177 32.3794 83.6356 31.3304C84.5686 30.2813 85.892 29.7568 87.6055 29.7568C89.3341 29.7568 90.6575 30.2813 91.5754 31.3304C92.5084 32.3794 92.9752 33.8682 92.9752 35.7966C92.9752 37.7098 92.4933 39.1984 91.5295 40.2629C90.5808 41.3118 89.2728 41.8365 87.6055 41.8365ZM87.6055 40.3092C88.1104 40.3092 88.508 40.1627 88.7988 39.8695C89.1046 39.5762 89.3266 39.1058 89.4643 38.4579C89.602 37.8099 89.6708 36.923 89.6708 35.7966C89.6708 34.6704 89.602 33.7833 89.4643 33.1354C89.3266 32.4874 89.1122 32.0246 88.8217 31.7469C88.531 31.4538 88.1254 31.3072 87.6055 31.3072C87.0853 31.3072 86.6798 31.4538 86.3893 31.7469C86.0985 32.0246 85.8845 32.4874 85.7468 33.1354C85.6091 33.7833 85.5403 34.6627 85.5403 35.7735C85.5403 36.8998 85.6091 37.7944 85.7468 38.4579C85.8845 39.1058 86.0985 39.5762 86.3893 39.8695C86.6952 40.1627 87.1007 40.3092 87.6055 40.3092ZM99.6848 41.8365C97.9867 41.8365 96.6633 41.3661 95.7149 40.4249C94.7816 39.4685 94.3151 37.995 94.3151 36.0049C94.3151 33.9993 94.7741 32.4643 95.692 31.3998C96.6099 30.3199 97.849 29.7799 99.4094 29.7799C100.832 29.7799 101.934 30.235 102.714 31.1452C103.509 32.04 103.907 33.3282 103.907 35.0098C103.907 35.3955 103.876 35.7195 103.815 35.9818C103.769 36.2439 103.739 36.4059 103.724 36.4677H97.5507C97.5658 37.8562 97.7648 38.8437 98.1473 39.4298C98.545 40.0007 99.18 40.286 100.052 40.286C100.572 40.286 101.031 40.1779 101.429 39.9621C101.826 39.7306 102.14 39.4837 102.37 39.2215C102.599 38.9438 102.714 38.7894 102.714 38.7587L103.746 39.5687C103.746 39.6305 103.586 39.8539 103.265 40.2397C102.958 40.6256 102.499 40.9879 101.888 41.3274C101.291 41.6669 100.557 41.8365 99.6848 41.8365ZM101.062 34.9635V34.4313C101.062 33.2588 100.939 32.4411 100.695 31.9783C100.45 31.5001 100.021 31.2609 99.4094 31.2609C98.981 31.2609 98.6368 31.3689 98.3768 31.5849C98.1319 31.8009 97.9408 32.1789 97.8031 32.7188C97.6654 33.2434 97.5812 33.9916 97.5507 34.9635H101.062ZM30.2791 58.7412H31.7936C32.2678 57.4915 32.5814 56.1186 32.7344 54.622C32.8874 53.1254 32.9639 51.1895 32.9639 48.8136H40.4218V58.7412H42.0511L41.7068 63.8091H40.2612L39.7334 60.3842H32.6656L31.9772 63.8091H30.5085L30.2791 58.7412ZM37.3698 58.7412V50.4566H34.662C34.6467 52.2772 34.5778 53.8352 34.4555 55.1311C34.3331 56.4115 34.0883 57.6148 33.7212 58.7412H37.3698ZM48.3444 60.6388C46.6463 60.6388 45.3228 60.1683 44.3745 59.2271C43.4412 58.2708 42.9747 56.7973 42.9747 54.8072C42.9747 52.8015 43.4336 51.2666 44.3515 50.2021C45.2694 49.122 46.5086 48.5822 48.069 48.5822C49.4917 48.5822 50.5932 49.0374 51.3734 49.9475C52.1691 50.8424 52.5667 52.1304 52.5667 53.8121C52.5667 54.1979 52.5362 54.5219 52.4749 54.784C52.429 55.0462 52.3985 55.2082 52.3831 55.27H46.2103C46.2257 56.6585 46.4243 57.6459 46.8069 58.2321C47.2045 58.803 47.8395 59.0883 48.7115 59.0883C49.2318 59.0883 49.6907 58.9802 50.0884 58.7643C50.486 58.5329 50.7997 58.2859 51.0292 58.0238C51.2587 57.7461 51.3734 57.5917 51.3734 57.561L52.4061 58.3709C52.4061 58.4327 52.2454 58.6562 51.9242 59.042C51.6183 59.4278 51.1594 59.7901 50.5473 60.1296C49.9507 60.4692 49.2164 60.6388 48.3444 60.6388ZM49.7212 53.7658V53.2336C49.7212 52.0609 49.5989 51.2434 49.3541 50.7806C49.1092 50.3022 48.6811 50.0632 48.069 50.0632C47.6405 50.0632 47.2963 50.1713 47.0364 50.3872C46.7915 50.6031 46.6004 50.9813 46.4627 51.5211C46.325 52.0458 46.2407 52.7939 46.2103 53.7658H49.7212ZM53.9812 60.6388C53.7976 60.6388 53.5986 60.6156 53.3845 60.5693L53.4993 58.718C53.5602 58.7336 53.652 58.7412 53.7747 58.7412C54.723 58.7412 55.396 57.8925 55.794 56.1956C56.2071 54.4832 56.4136 52.0226 56.4136 48.8136H63.2519V60.3842H60.1999V50.5029H58.1347C58.0579 53.5883 57.6832 56.0492 57.0102 57.8849C56.3369 59.7207 55.3272 60.6388 53.9812 60.6388ZM70.6639 60.6388C68.9504 60.6388 67.627 60.1141 66.694 59.0652C65.7761 58.0162 65.3172 56.5272 65.3172 54.5989C65.3172 52.6706 65.7761 51.1816 66.694 50.1326C67.627 49.0837 68.9504 48.559 70.6639 48.559C72.3925 48.559 73.7159 49.0837 74.6338 50.1326C75.5668 51.1816 76.0336 52.6706 76.0336 54.5989C76.0336 56.512 75.5517 58.0007 74.5879 59.0652C73.6392 60.1141 72.3312 60.6388 70.6639 60.6388ZM70.6639 59.1114C71.1688 59.1114 71.5664 58.965 71.8572 58.6718C72.163 58.3785 72.385 57.9081 72.5227 57.2601C72.6603 56.6122 72.7292 55.7252 72.7292 54.5989C72.7292 53.4726 72.6603 52.5856 72.5227 51.9376C72.385 51.2897 72.1706 50.8269 71.8801 50.5492C71.5893 50.2559 71.1838 50.1095 70.6639 50.1095C70.1437 50.1095 69.7381 50.2559 69.4477 50.5492C69.1569 50.8269 68.9429 51.2897 68.8052 51.9376C68.6675 52.5856 68.5987 53.465 68.5987 54.5758C68.5987 55.7021 68.6675 56.5966 68.8052 57.2601C68.9429 57.9081 69.1569 58.3785 69.4477 58.6718C69.7536 58.965 70.1591 59.1114 70.6639 59.1114Z" fill="#295463"/>
</g>
<defs>
<filter id="filter0_f" x="-1.28271" y="6.31635" width="53.4803" height="53.8983" filterUnits="userSpaceOnUse" color-interpolation-filters="sRGB">
<feFlood flood-opacity="0" result="BackgroundImageFix"/>
<feBlend mode="normal" in="SourceGraphic" in2="BackgroundImageFix" result="shape"/>
<feGaussianBlur stdDeviation="1" result="effect1_foregroundBlur"/>
</filter>
<filter id="filter1_f" x="-3.28271" y="4.31635" width="57.4803" height="57.8983" filterUnits="userSpaceOnUse" color-interpolation-filters="sRGB">
<feFlood flood-opacity="0" result="BackgroundImageFix"/>
<feBlend mode="normal" in="SourceGraphic" in2="BackgroundImageFix" result="shape"/>
<feGaussianBlur stdDeviation="2" result="effect1_foregroundBlur"/>
</filter>
<filter id="filter2_f" x="47.7203" y="4.25409" width="47.3979" height="22.5289" filterUnits="userSpaceOnUse" color-interpolation-filters="sRGB">
<feFlood flood-opacity="0" result="BackgroundImageFix"/>
<feBlend mode="normal" in="SourceGraphic" in2="BackgroundImageFix" result="shape"/>
<feGaussianBlur stdDeviation="1" result="effect1_foregroundBlur"/>
</filter>
<linearGradient id="paint0_linear" x1="73.3242" y1="16.9943" x2="25.1182" y2="57.8141" gradientUnits="userSpaceOnUse">
<stop stop-color="#F81B6C"/>
<stop offset="1" stop-color="#F7D06F" stop-opacity="0.39"/>
</linearGradient>
<clipPath id="clip0">
<rect width="109" height="64" fill="white"/>
</clipPath>
</defs>
</svg>
