<svg width="598" height="399" viewBox="0 0 598 399" fill="none" xmlns="http://www.w3.org/2000/svg">
<g clip-path="url(#clip0)">
<path d="M542.129 301.46C542.799 301.136 543.469 300.813 544.139 300.49C556.195 294.131 560.213 286.263 558.092 273.113C555.971 259.91 551.674 247.3 546.929 234.852C535.041 203.38 519.301 173.687 502.501 144.479C497.701 136.126 491.561 128.635 483.468 122.923C472.082 114.947 459.021 113.007 445.681 115.163C421.737 118.989 397.569 119.096 373.401 120.336C363.243 120.875 353.308 122.438 343.54 125.348C325.68 130.629 312.117 141.03 302.349 156.442C294.033 169.537 287.335 183.495 279.744 196.967C277.232 201.386 274.776 205.805 272.376 210.278C271.595 211.733 270.534 212.541 268.916 213.08C245.864 220.248 223.594 229.301 202.217 240.241C201.659 240.51 201.101 240.834 200.487 241.157C192.729 245.145 189.045 251.396 189.436 259.857C190.552 258.509 191.668 257.324 193.454 256.623C200.487 253.929 212.487 261.689 211.873 268.533C211.036 278.395 206.124 285.778 197.975 291.382C195.91 292.783 193.622 292.729 191.501 291.167C191.556 294.184 192.394 297.094 193.454 299.897C194.626 299.681 195.798 299.358 197.026 299.304C205.343 299.142 213.38 297.418 221.362 295.154C224.208 294.346 227.111 293.592 230.125 293.861C233.864 294.131 237.436 296.717 238.608 299.951C239.836 303.507 237.548 305.501 235.204 307.495C233.697 308.842 231.855 309.759 229.957 310.513C220.692 314.285 211.036 316.387 200.933 316.064C201.157 316.603 201.436 317.141 201.659 317.68C203.78 319.944 205.678 322.369 207.966 324.417C217.12 332.608 228.227 335.949 240.45 336.434C245.753 336.65 250.999 336.542 256.246 335.895C252.618 327.919 252.171 319.566 253.511 311.106C255.074 301.352 258.925 292.783 267.632 286.963C287.279 273.814 316.805 282.76 325.456 304.316C328.917 312.884 328.135 321.183 324.34 329.374C328.526 329.698 332.656 328.943 336.842 328.943C359.894 328.943 382.89 328.997 405.941 328.889C414.202 328.836 422.462 328.674 430.723 328.297C436.528 328.027 442.388 327.434 448.193 326.895C455.449 326.195 462.761 325.333 470.017 324.578C468.398 320.86 467.449 317.034 466.947 312.992C466.5 309.435 467.058 305.932 466.891 302.376C463.989 304.154 460.863 305.34 457.347 305.825C451.374 306.687 445.346 306.687 439.374 307.226C437.142 307.441 434.742 307.926 432.565 306.849C431.728 307.01 430.89 307.172 430.109 307.28C429.328 307.441 428.49 307.819 427.709 307.765C421.458 307.657 415.206 308.681 408.955 308.357C407.002 308.465 405.104 308.627 403.15 308.735C400.471 311.321 397.234 311.591 393.885 310.567C392.601 310.19 391.653 310.19 390.481 310.513C383.95 312.184 377.476 312.561 371.28 309.435C367.652 309.543 364.024 309.543 360.452 309.92C358.778 310.082 358.22 309.705 357.661 308.25C353.085 295.639 348.452 283.083 344.712 270.203C339.577 252.581 336.229 234.744 336.954 216.368C336.563 214.32 337.122 212.326 337.345 210.332C337.68 207.961 337.959 205.643 338.294 203.272C337.959 202.895 338.015 202.572 338.461 202.302C339.019 199.662 339.41 197.021 340.136 194.381C348.285 163.232 366.257 140.868 399.802 132.461C411.02 129.659 422.239 128.15 433.514 132.192C442.165 135.263 449.254 140.598 455.449 147.011C462.928 154.718 469.012 163.34 473.421 173.04C473.868 173.687 474.426 174.333 474.761 175.034C482.463 190.608 486.929 206.991 487.933 224.182C488.715 237.654 488.045 251.073 484.417 264.222C483.356 268.102 482.296 272.036 481.235 275.916C489.217 271.389 497.645 269.233 507.022 269.988C523.152 271.335 537.776 283.514 541.125 298.873C541.236 299.681 541.181 300.759 542.129 301.46Z" fill="#73A2D5"/>
<path d="M470.072 324.417C462.816 325.171 455.505 326.033 448.249 326.734C442.444 327.273 436.639 327.865 430.779 328.135C422.518 328.512 414.258 328.728 405.997 328.728C382.945 328.835 359.95 328.782 336.898 328.782C332.712 328.782 328.582 329.59 324.396 329.213C322.777 331.692 321.326 334.386 319.428 336.65C309.326 348.775 296.544 355.188 280.135 352.331C269.586 350.499 261.716 344.625 256.302 335.68C251.055 336.326 245.753 336.38 240.506 336.218C228.283 335.787 217.175 332.446 208.022 324.201C205.733 322.153 203.78 319.728 201.715 317.465C183.296 318.866 164.877 320.644 146.626 323.339C119.834 327.327 93.5456 332.985 68.0941 342.146C66.1406 342.847 64.4103 344.086 62.2335 344.194C61.3405 348.775 61.5079 353.625 58.8288 357.774C60.3916 361.331 63.6289 363.594 66.0847 366.504C68.6522 369.576 68.0383 371.893 64.2986 373.456C61.2847 374.696 58.1032 375.235 54.8101 374.857C54.5311 375.019 54.3078 375.127 54.0287 375.289C56.0381 380.408 54.3636 382.564 48.6705 382.079C47.9449 382.025 47.2194 381.863 46.4938 381.701C40.1867 380.085 33.6005 379.169 27.5167 376.744C31.5354 380.3 36.6145 381.863 41.6937 383.264C55.3125 387.037 69.3778 388.653 83.3315 390.755C136.746 398.838 190.552 399.808 244.469 398.569C281.697 397.707 318.814 395.767 355.931 393.288C384.955 391.294 413.923 388.707 442.835 385.474C470.519 382.402 498.203 378.737 525.664 373.995C544.585 370.762 563.674 368.121 582.26 363.271C585.944 362.301 589.516 361.062 592.809 359.122C599.898 354.972 599.898 348.99 592.809 344.895C587.06 341.607 580.586 340.098 574.167 338.643C559.878 335.41 545.478 332.554 531.134 329.536C529.683 329.644 528.901 330.668 527.952 331.53C519.357 338.859 509.533 343.009 497.924 341.931C485.477 340.799 476.212 334.817 470.072 324.417ZM88.913 354.11C91.9828 354.056 95.0526 354.325 97.955 355.242C101.862 356.481 104.262 358.96 104.206 361.654C104.15 364.187 101.806 366.397 97.7318 367.475C91.313 369.199 84.8943 369.199 78.4756 367.582C76.1873 366.989 74.0662 366.127 72.2802 364.618C67.8708 360.9 69.0429 354.972 74.5128 353.032C77.1919 352.116 79.9826 352.224 82.4385 353.248C84.6711 354.11 86.7362 354.218 88.913 354.11ZM525.72 360.038C523.543 360.038 519.748 359.175 517.236 357.774C513.552 355.673 512.771 350.823 516.287 348.883C519.636 346.996 523.487 345.434 527.283 344.949C533.366 344.194 539.004 346.242 544.139 349.529C547.153 351.469 547.097 353.84 543.915 355.565C538.78 358.313 533.311 360.038 525.72 360.038ZM225.157 339.506C229.176 339.452 232.636 340.152 235.483 342.416C237.827 344.248 239.948 346.565 239.446 349.691C238.943 353.086 235.65 353.625 232.915 354.271C227.055 355.619 221.641 354.649 217.064 350.715C213.045 347.266 213.882 342.631 218.738 340.637C220.915 339.775 223.203 339.452 225.157 339.506ZM328.917 376.474C328.917 376.582 328.917 376.69 328.917 376.797C330.759 376.797 332.6 376.744 334.498 376.797C336.452 376.851 337.735 377.821 337.735 379.761C337.735 381.755 336.34 382.671 334.442 382.618C330.759 382.618 327.019 382.51 323.335 382.348C321.438 382.24 320.154 381.163 320.21 379.222C320.265 377.39 321.717 376.582 323.447 376.474C325.177 376.366 327.075 376.474 328.917 376.474ZM480.621 341.769C482.575 341.769 484.528 341.661 486.482 341.769C488.38 341.877 489.273 343.116 489.44 344.787C489.608 346.188 488.826 347.427 487.375 347.481C483.133 347.643 478.835 347.697 474.593 347.481C472.807 347.374 471.914 345.865 472.026 344.194C472.138 342.47 473.365 341.769 475.096 341.769C476.938 341.769 478.78 341.769 480.621 341.769ZM397.848 371.947C397.848 371.893 397.792 371.893 397.848 371.947C397.569 371.947 397.29 371.947 397.011 372.001C394.89 372.325 392.992 372.109 392.546 369.63C392.155 367.582 393.494 366.397 396.397 366.073C399.076 365.804 401.755 365.588 404.434 365.265C406.667 364.942 408.174 365.696 408.453 367.852C408.732 369.953 407.337 370.977 405.327 371.193C402.816 371.462 400.304 371.678 397.848 371.947ZM330.312 343.547C328.861 343.655 327.577 343.763 326.293 343.817C324.396 343.925 323.224 343.062 323.056 341.23C322.889 339.506 323.782 338.266 325.624 337.943C328.638 337.404 331.707 337.35 334.777 337.781C336.619 338.051 337.791 338.913 337.68 340.745C337.568 342.631 336.34 343.655 334.387 343.709C332.935 343.763 331.54 343.601 330.312 343.547ZM179.445 342.847C181.845 342.47 183.575 343.17 183.798 345.703C184.021 348.29 182.068 348.775 180.003 349.044C176.933 349.421 174.142 348.613 171.631 346.889C169.9 345.703 169.454 344.194 170.626 342.47C171.742 340.853 173.361 340.691 174.979 341.715C176.375 342.577 177.826 343.116 179.445 342.847ZM256.19 378.522C257.809 378.414 259.092 379.33 259.26 381.216C259.427 382.995 258.478 384.126 256.637 384.396C254.627 384.665 252.618 384.935 250.609 385.096C248.822 385.258 247.539 384.504 247.204 382.671C246.869 380.731 247.818 379.546 249.771 379.222C251.781 378.953 253.79 378.791 256.19 378.522ZM128.653 348.128C126.588 348.344 124.802 347.966 124.523 345.649C124.244 343.224 125.695 342.308 128.039 342.2C129.769 342.092 131.556 341.823 133.286 341.661C135.295 341.5 136.467 342.577 136.69 344.41C136.858 346.242 135.742 347.266 133.956 347.535C132.169 347.805 130.383 347.966 128.653 348.128Z" fill="#B3C5E5"/>
<path d="M231.855 55.6682C237.325 55.6682 242.459 54.6443 246.534 50.872C247.818 49.6864 248.487 50.6025 249.381 51.0875C253.79 53.8359 258.367 56.1532 263.669 56.7999C269.083 57.5004 274.051 56.3148 278.237 52.8659C279.465 51.842 280.246 51.842 281.53 52.7581C287.335 56.9076 293.642 60.0871 301.065 60.626C308.879 61.2188 315.577 56.9076 316.916 50.387C317.14 49.3631 317.419 48.1236 317.028 47.2075C315.8 44.2974 316.693 42.7885 319.54 41.2796C323.447 39.124 325.065 34.3278 324.005 30.5555C322.889 26.6755 319.093 23.7654 314.293 23.2265C311.391 22.9032 308.544 23.0648 305.753 23.8732C304.47 24.2504 303.744 24.3043 303.465 22.6876C302.349 17.2986 298.944 13.9575 293.363 12.8258C287.279 11.5863 282.311 13.5802 278.627 18.2686C277.065 20.2626 276.451 19.9392 275 18.2686C270.255 12.7719 264.395 9.80795 256.804 11.9635C253.232 12.9874 250.218 14.9814 248.487 18.2686C247.65 19.8315 246.925 19.7237 245.473 19.1309C238.776 16.3286 231.855 14.9275 224.543 16.7058C218.403 18.1609 215.222 21.6098 214.385 27.6455C214.273 28.6155 213.826 28.9388 212.989 29.3699C206.18 32.765 204.394 39.3934 208.58 45.6986C210.589 48.7703 213.38 50.872 216.729 52.3809C221.529 54.5365 226.608 55.6143 231.855 55.6682Z" fill="#B2C5E4"/>
<path d="M510.985 33.6272C509.031 31.3638 507.301 29.4238 505.124 27.861C497.701 22.5259 488.212 24.1426 483.412 31.7411C482.463 33.1961 481.793 32.9266 480.566 32.4416C474.035 29.8549 467.337 28.1843 460.249 30.1244C454.612 31.6872 450.928 34.9206 450.593 40.8484C450.537 41.8723 449.979 42.1418 449.198 42.5729C443.225 45.5369 441.272 51.3031 444.174 57.0693C445.291 59.2787 446.798 61.2727 448.919 62.6199C457.235 68.0089 466.277 69.5717 475.989 66.8233C477.105 66.5 478.445 66.0689 479.17 65.2605C481.905 62.2427 484.249 63.4822 487.096 65.2066C492.398 68.44 498.147 70.38 504.566 69.0867C507.468 68.4939 510.147 67.47 512.268 65.53C513.664 64.2366 514.445 64.6138 515.673 65.53C521.031 69.3561 526.836 72.3201 533.59 73.0206C536.994 73.344 540.287 72.8051 543.301 71.2423C548.604 68.4939 550.892 63.4822 549.385 57.8776C548.995 56.5304 549.05 55.7759 550.557 55.237C551.897 54.752 552.902 53.8359 553.906 52.8659C559.264 47.3691 557.255 39.5551 549.943 37.0762C546.315 35.8367 542.632 36.1061 538.948 37.13C537.664 37.5073 536.994 37.4534 536.659 35.9445C535.599 30.6094 532.194 27.4299 526.724 26.2982C521.143 25.1665 516.734 27.1065 513.106 31.1483C512.324 31.795 511.766 32.6033 510.985 33.6272Z" fill="#B2C5E4"/>
<path d="M58.7171 357.828C61.3962 353.679 61.2288 348.829 62.1218 344.248C66.9219 319.405 70.8289 294.454 70.3824 269.072C70.2708 264.491 69.8801 259.964 69.601 255.384C60.5032 257.97 51.2379 259.264 41.6936 258.671C39.461 258.509 37.2843 258.24 35.3307 257.108C34.7726 260.934 34.1586 264.707 33.6005 268.533C32.819 278.287 31.2004 287.933 29.9725 297.633C27.2376 319.081 24.4469 340.583 21.6003 362.032C21.4329 363.433 21.3212 364.726 22.6049 365.696C30.6423 365.642 38.5122 364.295 46.3821 362.84C46.8286 358.906 47.1076 354.972 47.7216 351.092C51.6286 325.602 54.0287 300.004 54.9217 274.245C55.0333 271.173 55.2008 268.156 55.3682 265.084C55.424 263.521 56.038 262.443 57.8241 262.443C59.5543 262.443 59.9451 263.629 59.8892 265.03C59.8892 265.677 59.8892 266.269 59.8334 266.916C59.3311 279.472 58.7171 291.975 57.7124 304.531C56.652 317.573 55.0333 330.56 53.4147 343.547C52.6333 349.583 50.9589 355.511 51.0147 361.654C53.917 360.954 56.5961 359.876 58.7171 357.828Z" fill="#73A1D4"/>
<path d="M470.072 324.417C476.268 334.817 485.477 340.799 497.812 341.931C509.422 343.009 519.301 338.859 527.841 331.53C528.789 330.722 529.627 329.644 531.022 329.536C530.743 328.728 531.245 328.189 531.692 327.65C537.664 320.429 542.018 312.561 541.571 302.914C541.571 302.429 541.906 301.944 542.073 301.406C541.18 300.705 541.236 299.627 541.013 298.711C537.664 283.406 523.041 271.173 506.91 269.826C497.533 269.072 489.105 271.227 481.124 275.754C477.328 278.934 473.979 282.49 471.635 286.855C469.068 291.705 467.951 296.933 466.891 302.214C467.058 305.771 466.556 309.273 466.947 312.83C467.449 316.872 468.398 320.698 470.072 324.417ZM502.668 290.412C509.757 290.197 515.617 293.592 518.185 299.304C520.808 305.178 519.022 312.722 513.887 317.626C508.696 322.584 501.329 322.908 495.747 318.327C491.059 314.501 488.826 309.597 488.994 303.615C489.273 295.801 494.575 290.628 502.668 290.412Z" fill="#295463"/>
<path d="M51.9078 52.327C51.9637 68.6017 63.4615 80.4575 79.4245 80.5652C91.4805 80.6191 101.583 73.2362 104.988 61.8655C108.504 49.9558 103.983 38.3695 93.155 32.0644C86.8479 28.3999 80.0943 25.921 72.5035 27.2682C59.9452 29.4238 51.9078 39.2857 51.9078 52.327Z" fill="#F4CF6E"/>
<path d="M96.727 205.859C95.834 205.32 94.9409 205.105 93.9363 205.697C88.8013 208.392 83.3314 210.547 78.3639 213.673C77.8616 216.044 75.8522 216.853 73.9545 217.769C63.9637 222.727 52.8565 224.613 42.5308 228.762C40.4656 229.624 39.461 228.277 39.2377 226.337C38.3447 219.763 37.954 213.134 38.1214 206.506C38.1773 204.889 38.3447 203.272 40.5215 203.272C42.9215 203.218 42.6982 205.051 42.6424 206.56C42.475 211.517 42.8099 216.421 43.2006 221.325C43.2564 222.242 42.8657 224.02 45.0425 223.158C42.8099 219.331 43.8704 215.29 44.5401 211.41C46.2704 201.871 44.2052 192.979 40.2982 184.303C39.1819 185.111 38.233 186.081 37.3958 187.159C30.9213 195.189 26.7352 204.35 23.7212 213.996C21.8793 219.816 21.656 225.798 23.4979 231.726C24.9491 236.468 27.1259 240.726 31.8702 243.205C33.3214 242.073 34.7725 242.45 36.3354 242.989C41.1912 244.767 46.2146 245.36 51.4054 244.821C58.159 244.121 64.466 242.073 70.6056 239.432C72.001 238.84 73.3964 238.462 74.9034 238.786C86.4571 234.259 96.7828 228.116 104.429 218.361C104.653 216.044 103.648 214.266 102.141 212.541C100.355 210.386 98.5689 208.122 96.727 205.859Z" fill="#EC7C94"/>
<path d="M31.9259 243.205C27.1817 240.726 25.005 236.415 23.5538 231.726C21.7119 225.798 21.9351 219.816 23.777 213.996C26.791 204.35 30.9213 195.189 37.4516 187.159C38.2888 186.081 39.2377 185.111 40.354 184.303C39.74 182.525 40.4656 181.177 41.9726 180.207C36.0004 179.345 30.5864 180.692 25.6747 183.872C27.5166 185.058 27.7399 186.566 27.0143 188.56C26.2329 190.662 25.8421 192.872 25.1723 195.027C22.9398 201.925 21.8793 209.2 19.0886 215.936C16.7444 221.595 11.2187 224.235 5.07905 222.942C4.35346 222.78 3.62793 222.673 2.90233 222.565C1.73022 227.361 0.390633 232.211 0.558075 237.223C1.33948 237.061 2.23254 236.684 2.95813 236.792C7.81401 237.546 12.6141 238.301 17.47 239.217C20.0933 239.702 21.3212 241.48 21.377 244.067C21.4886 248.863 19.3676 252.905 16.8001 256.785C15.349 258.994 13.3955 260.503 10.6047 260.827C17.0234 266.916 24.7259 269.395 33.6004 268.479C34.1585 264.653 34.7725 260.88 35.3307 257.054C33.9911 253.821 34.9399 250.588 35.2748 247.354C33.5446 246.492 31.0887 246.115 31.9259 243.205Z" fill="#F3CD6E"/>
<path d="M200.933 315.956C211.036 316.279 220.692 314.177 229.957 310.405C231.855 309.651 233.641 308.735 235.204 307.387C237.492 305.393 239.836 303.346 238.608 299.843C237.492 296.609 233.92 294.077 230.125 293.753C227.111 293.538 224.208 294.238 221.362 295.047C213.38 297.31 205.399 299.034 197.026 299.196C195.854 299.196 194.682 299.573 193.454 299.789C191.389 306.256 194.961 313.962 200.933 315.956Z" fill="#B4C6E6"/>
<path d="M191.501 291.059C193.622 292.622 195.91 292.675 197.975 291.274C206.068 285.67 211.036 278.341 211.873 268.425C212.431 261.581 200.431 253.767 193.454 256.515C191.724 257.162 190.552 258.402 189.436 259.749C188.431 261.366 187.538 263.036 187.594 265.03C187.761 272.036 187.873 278.987 189.38 285.885C189.715 287.502 190.608 289.065 191.222 290.628C191.333 290.735 191.445 290.897 191.501 291.059Z" fill="#F4CF6E"/>
<path d="M63.2382 168.998C63.7405 167.005 64.6893 165.172 65.8614 163.448C66.6987 162.208 66.5871 160.699 66.4754 159.244C66.1405 153.909 60.5032 146.85 55.3125 145.125C50.8473 143.67 46.0472 145.179 42.5309 149.436C38.4006 154.448 36.7819 160.214 37.9541 166.573C38.6796 170.561 39.4611 171.154 43.5914 171.37C44.0379 169.915 45.4891 169.591 46.6612 168.567C47.0519 170.076 47.331 171.531 49.1728 171.423C50.1217 171.37 50.7357 170.938 51.0147 170.022C51.5729 168.136 50.1775 167.543 48.6705 166.897C49.0612 166.412 49.3403 166.035 49.6194 165.711C53.6938 160.969 53.6939 161.023 58.773 164.633C59.2753 165.011 59.666 165.226 59.6102 166.088C59.3311 169.214 59.9451 169.591 63.2382 168.998Z" fill="#295463"/>
<path d="M50.4008 178.968C48.838 179.184 47.1635 179.237 45.824 180.207C45.9356 180.639 45.9356 181.124 46.2147 181.447C51.1822 188.183 52.4101 195.889 52.5218 203.865C52.6334 209.631 51.6845 215.29 51.3496 221.002C56.7637 219.493 62.2893 218.308 67.201 215.559C66.9778 210.979 66.7545 206.398 66.4755 201.871C65.9731 193.895 64.5219 186.189 59.9451 179.345C59.4986 179.884 59.0521 180.423 58.6614 181.07C57.6567 182.848 56.1497 183.603 54.0846 183.225C52.131 182.848 51.0706 181.663 50.9031 179.776C50.5682 179.561 50.0101 179.507 50.345 178.86L50.4008 178.968Z" fill="#EC7C94"/>
<path d="M2.90224 222.619C3.62783 222.727 4.35337 222.888 5.07897 222.996C11.2186 224.289 16.7443 221.595 19.0886 215.99C21.8793 209.254 22.9397 201.979 25.1723 195.081C25.8421 192.926 26.2328 190.716 27.0143 188.614C27.7399 186.674 27.4608 185.111 25.6747 183.926C22.1025 184.465 19.8699 186.782 17.5815 189.153C9.76743 197.344 4.35343 206.775 1.50687 217.607C0.948719 219.655 1.11616 221.272 2.90224 222.619Z" fill="#575978"/>
<path d="M46.4379 362.84C38.568 364.241 30.6981 365.642 22.6608 365.696C21.7678 370.384 22.6608 374.318 27.4051 376.743C33.5447 379.169 40.075 380.031 46.3821 381.701C47.1077 381.863 47.8332 382.025 48.5588 382.079C54.1961 382.564 55.9264 380.408 53.9171 375.288C51.8519 375.504 50.7914 374.157 49.6751 372.81C47.2751 369.899 46.7728 366.397 46.4379 362.84Z" fill="#F3CD6E"/>
<path d="M35.3307 247.408C34.9958 250.641 34.0469 253.875 35.3865 257.108C37.34 258.24 39.5168 258.509 41.7494 258.671C51.2379 259.264 60.5032 257.97 69.6568 255.384C72.6708 253.929 73.5638 251.611 72.894 248.54C72.5591 247.085 72.4475 245.522 72.2243 244.067C70.9405 243.905 69.88 244.552 68.7637 244.983C57.8798 249.079 46.8285 250.911 35.3307 247.408Z" fill="#EC7C94"/>
<path d="M10.6048 260.88C13.3956 260.557 15.4049 259.048 16.8003 256.839C19.3119 252.959 21.4887 248.917 21.3771 244.121C21.3213 241.588 20.0934 239.81 17.4701 239.271C12.67 238.355 7.81414 237.6 2.95826 236.846C2.17685 236.738 1.3396 237.115 0.558197 237.277C-0.334839 238.893 -0.0557652 240.618 0.279123 242.289C1.22797 247.947 3.40476 253.174 6.92109 257.809C7.86994 259.102 8.98622 260.288 10.6048 260.88Z" fill="#575978"/>
<path d="M51.3496 221.056C51.6845 215.344 52.6334 209.685 52.5217 203.919C52.3543 195.943 51.1264 188.237 46.2147 181.501C45.9914 181.178 45.9914 180.639 45.824 180.261C44.5402 179.723 43.2565 179.507 41.9169 180.261C40.3541 181.231 39.6285 182.525 40.2983 184.357C44.2053 193.033 46.2705 201.925 44.5402 211.464C43.8146 215.344 42.8099 219.385 45.0425 223.212C47.1635 222.457 49.2287 221.757 51.3496 221.056Z" fill="#575978"/>
<path d="M51.3496 221.056C49.2287 221.757 47.1077 222.457 45.0426 223.158C42.8658 224.02 43.2565 222.242 43.2007 221.325C42.81 216.421 42.4751 211.464 42.6425 206.56C42.6983 205.051 42.9216 203.218 40.5216 203.272C38.3448 203.326 38.1774 204.889 38.1215 206.506C37.9541 213.134 38.3448 219.763 39.2378 226.337C39.5169 228.277 40.4657 229.571 42.5309 228.762C52.8008 224.613 63.9638 222.727 73.9546 217.769C75.8523 216.799 77.8617 215.99 78.364 213.673C78.1408 213.404 77.9175 213.188 77.6384 212.919C76.6338 212.434 75.5733 212.272 74.457 212.218C72.336 213.889 69.936 215.128 67.2011 215.667C62.2893 218.361 56.7637 219.547 51.3496 221.056Z" fill="#295463"/>
<path d="M67.201 215.613C69.936 215.02 72.2802 213.835 74.457 212.164C73.0616 201.386 70.6057 190.878 67.0894 180.585C65.8057 178.429 64.4661 176.327 61.6754 175.735C60.3358 176.597 59.8893 177.89 60.0009 179.399C64.6336 186.243 66.0289 193.949 66.5313 201.925C66.8103 206.506 66.9778 211.032 67.201 215.613Z" fill="#575978"/>
<path d="M60.0008 179.399C59.8892 177.89 60.3915 176.651 61.6752 175.735C62.6241 173.579 63.6846 171.423 63.2381 168.998C59.8892 169.645 59.331 169.214 59.5543 166.196C59.6101 165.334 59.2194 165.118 58.7171 164.741C53.6379 161.077 53.638 161.077 49.5635 165.819C49.2844 166.142 49.0053 166.519 48.6146 167.004C50.1216 167.597 51.517 168.244 50.9588 170.13C50.6798 170.992 50.0658 171.477 49.1169 171.531C47.275 171.639 46.996 170.184 46.6053 168.675C45.3773 169.645 43.982 170.022 43.5355 171.477C45.1541 174.549 47.889 176.705 50.4007 179.022L50.3449 178.968C50.7914 178.699 51.1821 178.86 51.4054 179.184C51.4612 179.291 51.0705 179.615 50.903 179.83C51.0705 181.77 52.1309 182.956 54.0845 183.279C56.1496 183.656 57.6566 182.848 58.6613 181.124C59.052 180.477 59.5543 179.938 60.0008 179.399ZM54.6984 175.357C54.0286 175.357 53.1356 174.711 53.0798 173.31C53.024 171.855 56.1496 170.076 58.5496 170.13C60.0008 170.184 60.7822 171.046 60.7822 172.34C60.7822 173.741 57.8798 175.357 54.6984 175.357Z" fill="#F0CDB8"/>
<path d="M35.3307 247.408C46.8286 250.911 57.8799 249.025 68.7638 244.929C69.8801 244.498 70.9406 243.851 72.2243 244.013C72.615 243.69 72.9499 243.151 73.3964 242.989C75.7406 242.181 76.1872 240.78 74.9034 238.786C73.3964 238.462 72.001 238.786 70.6057 239.432C64.466 242.073 58.159 244.121 51.4054 244.821C46.2146 245.36 41.1913 244.767 36.3354 242.989C34.7726 242.45 33.3214 242.073 31.8702 243.205C31.0888 246.115 33.5447 246.492 35.3307 247.408Z" fill="#295463"/>
<path d="M96.727 205.859C98.5689 208.122 100.299 210.386 102.197 212.541C103.704 214.266 104.653 216.098 104.485 218.361C107.723 215.559 109.955 212.056 111.518 208.176C112.076 206.829 112.355 205.428 112.355 203.973C112.355 201.817 111.964 199.716 109.899 198.584C107.834 197.452 105.936 198.584 104.262 199.823C101.695 201.817 99.2387 203.865 96.727 205.859Z" fill="#F0CDB8"/>
<path d="M28.0749 60.0871C32.5959 60.0871 37.1727 60.0871 41.6937 60.0871C43.3682 60.0871 44.7636 59.7638 44.8194 57.8777C44.931 55.8298 43.5356 55.3448 41.6937 55.2909C32.4843 55.237 23.3307 55.1832 14.1212 55.0754C12.391 55.0754 11.1631 55.6682 11.1072 57.4465C11.1072 59.2788 12.3352 59.8716 14.0654 59.8716C18.6981 59.8716 23.3307 59.8716 27.9633 59.8716C28.0749 59.9794 28.0749 60.0332 28.0749 60.0871Z" fill="#EBC569"/>
<path d="M45.1542 43.4352C46.2147 43.4891 46.9403 43.1118 47.331 42.3035C47.7775 41.3335 47.8333 40.3635 47.0519 39.5551C46.717 39.1779 46.1589 38.8545 45.6565 38.6929C37.1727 35.7289 28.8563 32.4955 20.7073 28.7771C19.1445 28.0227 17.7492 28.346 16.912 29.8549C16.1864 31.2561 16.8003 32.2261 18.1957 32.8728C26.6795 36.6989 35.3866 40.1479 44.2053 43.1657C44.5402 43.3274 44.9309 43.3813 45.1542 43.4352Z" fill="#EBC569"/>
<path d="M59.8894 82.1281C58.6056 82.2359 57.88 82.8825 57.2661 83.6909C52.5218 90.3732 47.3311 96.6783 41.638 102.606C40.41 103.9 39.9635 105.301 41.4147 106.594C43.0333 108.049 44.2613 106.917 45.3775 105.732C51.1265 99.6423 56.4288 93.1755 61.3405 86.3854C62.0103 85.4693 62.5684 84.5531 62.0103 83.4214C61.6196 82.5592 60.6708 82.3436 59.8894 82.1281Z" fill="#EBC569"/>
<path d="M142.272 53.782C143.779 53.7281 145.007 52.9198 145.119 51.2492C145.286 49.6325 144.002 49.2014 142.607 49.0397C134.625 48.0697 126.644 47.0458 118.662 46.0219C117.044 45.8063 115.537 45.8602 115.313 47.8003C115.146 49.6325 116.318 50.5486 118.16 50.7642C123.965 51.4109 129.769 52.1114 135.518 52.812C137.695 53.1353 139.928 53.4587 142.272 53.782Z" fill="#EBC569"/>
<path d="M70.9406 113.438C70.829 115.324 71.5546 116.348 73.229 116.51C74.9035 116.725 75.5733 115.701 75.9081 114.354C77.471 107.025 78.5314 99.6961 79.257 92.2594C79.4245 90.8043 78.7547 89.7265 77.1919 89.6188C75.4058 89.4571 74.5128 90.481 74.2895 92.1516C73.6198 97.325 72.8941 102.445 72.1127 107.618C71.7778 109.72 71.2755 111.714 70.9406 113.438Z" fill="#EBC569"/>
<path d="M98.4573 90.1037C98.848 91.2893 99.2387 92.5288 99.6294 93.7143C101.583 99.5883 103.592 105.516 105.49 111.39C105.992 112.899 106.662 114.085 108.56 113.815C110.29 113.546 111.016 112.468 110.513 110.905C108.169 103.738 105.713 96.5705 103.257 89.4032C102.755 88.002 101.583 87.517 100.132 87.8942C98.9596 88.2176 98.4573 89.0259 98.4573 90.1037Z" fill="#EBC569"/>
<path d="M58.6056 25.5977C60.0568 25.3283 61.2289 24.5738 60.5591 22.7415C57.9917 15.8975 55.3684 9.10743 52.6893 2.31732C52.0753 0.700624 50.7915 0.161726 49.1171 0.808404C47.5543 1.45508 47.6101 2.64066 48.1124 3.9879C50.6241 10.4547 53.08 16.9215 55.5916 23.3882C56.0382 24.6816 56.7637 25.6516 58.6056 25.5977Z" fill="#EBC569"/>
<path d="M111.518 73.0746C111.462 74.2063 112.076 74.9069 113.025 75.4458C118.662 78.9486 124.076 82.7748 129.267 86.8165C130.718 87.9482 132.17 88.1637 133.397 86.7087C134.793 85.1459 133.677 84.122 132.393 83.152C127.035 79.0025 121.509 75.0685 115.704 71.4579C113.583 70.1107 111.574 70.919 111.518 73.0746Z" fill="#EBC569"/>
<path d="M110.625 31.5256C110.737 32.3878 111.016 33.1961 111.909 33.6812C112.858 34.22 113.639 33.8967 114.476 33.3578C119.834 29.5316 124.858 25.2743 129.435 20.532C130.607 19.2926 130.83 17.9453 129.49 16.7598C128.207 15.5742 126.979 16.1131 125.862 17.1909C121.565 21.5559 116.988 25.5438 112.02 29.2083C111.239 29.7472 110.625 30.4478 110.625 31.5256Z" fill="#EBC569"/>
<path d="M85.0059 19.8853C85.0617 21.6098 85.7314 22.4721 87.1268 22.6876C88.4106 22.9032 89.4152 22.4182 89.6943 21.1787C91.2571 14.9814 92.8199 8.83794 94.327 2.58673C94.606 1.29337 93.713 0.377245 92.3734 0.0539065C91.1455 -0.269432 90.0292 0.161686 89.6943 1.40115C88.0199 7.70626 86.4571 13.9575 85.0059 19.8853Z" fill="#EBC569"/>
<path d="M67.0894 180.585C70.6057 190.878 73.0615 201.44 74.4569 212.164C75.5732 212.218 76.6336 212.38 77.6383 212.865C76.8011 206.29 76.0755 199.716 74.2894 193.303C73.1173 189.099 71.1638 185.273 68.8196 181.609C68.3731 180.962 67.9266 180.531 67.0894 180.585Z" fill="#EC7C94"/>
<path d="M191.556 291.113C191.445 290.951 191.333 290.735 191.221 290.574C191.166 290.843 191.11 291.113 191.556 291.113Z" fill="#73A2D5"/>
<path d="M473.31 172.932C464.882 177.513 459.858 184.734 456.398 193.141C454.277 198.314 452.937 203.703 452.658 209.254C452.602 210.116 452.379 210.601 451.653 210.925C451.821 211.733 452.156 212.487 452.156 213.296C452.1 224.451 453.607 235.606 452.323 246.815C451.598 252.959 448.919 256.03 442.611 257.162C435.3 258.455 428.044 256.893 420.788 256.246C419.56 256.354 418.276 256.408 417.048 256.623C411.02 257.432 404.881 258.024 401.197 263.791C401.141 266.108 401.978 268.479 400.471 270.635C402.202 280.874 405.327 290.789 408.564 300.705C408.843 301.567 409.625 302.537 409.123 303.238C407.783 304.962 408.564 306.633 408.899 308.357C415.151 308.681 421.402 307.657 427.653 307.765C428.434 307.765 429.272 307.441 430.053 307.28C425.979 302.591 423.244 297.202 421.569 291.382C419.616 284.538 421.569 280.928 428.323 278.125C433.011 276.185 437.979 275.646 443.002 275.054C446.128 274.676 449.309 274.353 452.379 273.868C465.216 271.766 472.026 265.246 474.984 252.474C476.714 244.875 476.714 237.169 477.049 229.409C477.384 220.355 477.105 211.302 475.765 202.302C474.705 195.135 472.696 188.237 469.57 181.663C468.733 179.884 468.23 178.052 470.575 177.136C472.919 176.166 473.644 178.106 474.314 179.722C475.319 182.148 476.435 184.519 477.217 186.998C484.138 209.146 483.859 231.672 479.617 254.144C476.993 268.048 467.784 276.077 453.384 278.556C451.486 278.88 449.532 279.095 447.579 279.365C441.942 280.119 436.249 280.389 430.946 282.49C426.146 284.323 425.309 286.209 427.039 290.843C428.602 294.993 430.276 299.088 432.732 302.807C433.681 304.262 434.016 305.609 432.565 306.902C434.797 307.98 437.142 307.495 439.374 307.28C445.346 306.741 451.374 306.687 457.347 305.878C460.807 305.393 463.933 304.208 466.891 302.43C467.896 297.148 469.012 291.921 471.635 287.071C473.979 282.706 477.328 279.149 481.124 275.97C482.184 272.09 483.245 268.156 484.305 264.276C487.933 251.126 488.603 237.708 487.821 224.235C486.817 207.045 482.352 190.662 474.649 175.088C474.314 174.226 473.756 173.579 473.31 172.932Z" fill="#B4C6E6"/>
<path d="M256.302 335.787C261.716 344.679 269.586 350.607 280.135 352.439C296.544 355.295 309.326 348.882 319.428 336.757C321.326 334.494 322.777 331.799 324.396 329.32C328.191 321.129 328.973 312.83 325.512 304.262C316.861 282.706 287.279 273.706 267.688 286.909C259.037 292.729 255.13 301.352 253.567 311.052C252.227 319.459 252.674 327.758 256.302 335.787ZM289.065 329.213C288.618 329.213 288.116 329.213 287.67 329.213C279.074 328.835 273.604 323.554 273.214 315.363C272.879 307.926 278.237 301.783 286.163 300.651C294.646 299.412 299.67 302.807 302.405 311.645C305.251 320.914 299 329.159 289.065 329.213Z" fill="#295463"/>
<path d="M432.621 306.741C434.128 305.447 433.793 304.1 432.788 302.645C430.276 298.927 428.658 294.831 427.095 290.681C425.365 286.047 426.202 284.161 431.002 282.329C436.36 280.281 442.053 279.957 447.635 279.203C449.588 278.933 451.486 278.772 453.44 278.395C467.784 275.862 477.049 267.886 479.673 253.983C483.914 231.511 484.194 208.985 477.272 186.836C476.491 184.357 475.375 181.986 474.37 179.561C473.7 177.998 473.031 176.058 470.631 176.974C468.286 177.944 468.789 179.722 469.626 181.501C472.751 188.075 474.705 194.973 475.821 202.141C477.217 211.14 477.496 220.194 477.105 229.247C476.826 236.953 476.826 244.714 475.04 252.312C472.082 265.03 465.272 271.604 452.435 273.706C449.309 274.191 446.184 274.515 443.058 274.892C438.09 275.538 433.067 276.023 428.379 277.963C421.625 280.766 419.672 284.376 421.625 291.22C423.3 297.04 426.035 302.429 430.109 307.118C430.946 307.01 431.783 306.848 432.621 306.741Z" fill="#295463"/>
<path d="M336.954 216.26C338.238 216.529 338.238 217.607 338.405 218.577C339.633 225.529 346.164 231.026 353.978 231.726C361.178 232.319 368.992 227.684 371.28 221.433C371.392 221.218 371.336 220.894 371.336 220.625C370.499 219.978 369.606 219.385 368.769 218.685C366.648 216.96 366.759 215.559 369.103 214.104C370.164 213.457 371.336 212.972 372.452 212.38C371.615 205.374 366.201 199.769 358.778 198.207C351.633 196.698 343.987 199.985 340.303 205.967C339.41 207.422 339.354 209.47 337.401 210.224C337.122 212.218 336.508 214.212 336.954 216.26ZM355.317 224.235C350.015 224.235 345.605 219.924 345.605 214.805C345.661 209.793 350.015 205.59 355.206 205.482C360.396 205.374 365.029 209.793 365.029 214.805C365.085 219.978 360.675 224.235 355.317 224.235Z" fill="#295463"/>
<path d="M382.611 290.304C382.89 292.675 383.839 294.993 383.56 297.418C383.56 298.226 384.341 299.304 383.504 299.843C382.722 300.328 381.829 299.519 381.048 299.088C380.713 298.927 380.434 298.711 380.155 298.496C376.192 298.711 372.899 300.436 370.443 303.346C368.601 305.501 369.717 307.495 371.28 309.327C377.531 312.453 383.95 312.076 390.481 310.405C391.653 310.082 392.657 310.082 393.885 310.459C397.234 311.537 400.471 311.267 403.151 308.627C403.262 303.992 401.978 299.573 401.364 295.047C401.253 294.023 400.583 293.214 399.746 292.622C396.285 293.645 393.774 296.124 390.815 297.957C388.081 299.627 387.969 299.681 387.69 296.663C386.741 286.694 385.904 276.724 385.067 266.754C384.062 265.246 382.778 264.868 381.159 265.731C380.88 271.551 382.276 277.263 382.276 283.029C382.722 285.454 383.225 287.879 382.611 290.304Z" fill="#295463"/>
<path d="M399.801 292.675C400.639 293.322 401.253 294.077 401.42 295.1C402.034 299.627 403.374 304.046 403.206 308.681C405.16 308.573 407.057 308.411 409.011 308.303C408.676 306.579 407.895 304.908 409.234 303.184C409.792 302.483 408.955 301.46 408.676 300.651C405.439 290.789 402.257 280.874 400.583 270.634C400.025 270.688 399.467 270.742 398.908 270.742C399.188 278.017 399.467 285.346 399.801 292.675Z" fill="#010101"/>
<path d="M338.238 203.165C338.629 202.895 338.74 202.572 338.405 202.195C338.015 202.464 337.903 202.787 338.238 203.165Z" fill="#295463"/>
<path d="M46.438 362.84C46.8287 366.397 47.331 369.899 49.6752 372.81C50.7357 374.157 51.852 375.504 53.9171 375.288C54.1962 375.127 54.4194 375.019 54.6985 374.857C55.5915 373.618 55.7032 372.486 54.4194 371.355C51.5729 368.714 50.6799 365.373 51.0148 361.654C50.959 355.511 52.6334 349.583 53.4148 343.547C55.0334 330.56 56.652 317.573 57.7125 304.531C58.7171 292.029 59.3311 279.472 59.8334 266.916C59.8334 266.269 59.8334 265.677 59.8893 265.03C59.9451 263.629 59.5544 262.443 57.8241 262.443C56.0381 262.443 55.4241 263.521 55.3683 265.084C55.2566 268.156 55.0334 271.173 54.9218 274.245C54.0287 300.004 51.6287 325.602 47.7217 351.092C47.1078 354.972 46.8287 358.96 46.438 362.84Z" fill="#295463"/>
<path d="M88.913 354.11C86.6805 354.218 84.6153 354.11 82.4385 353.194C79.9826 352.17 77.1919 352.008 74.5128 352.978C69.0429 354.918 67.8708 360.846 72.2802 364.564C74.0663 366.073 76.1873 366.99 78.4757 367.528C84.8944 369.145 91.3689 369.145 97.7318 367.421C101.806 366.343 104.206 364.133 104.206 361.601C104.262 358.906 101.862 356.427 97.955 355.188C95.0526 354.325 92.0387 354.002 88.913 354.11ZM96.6155 361.385C90.42 363.487 84.5037 363.163 78.6431 361.169C77.9175 360.954 77.2477 360.684 77.0803 359.822C77.0245 359.337 77.1919 358.906 77.6384 358.744C78.4757 358.421 79.2571 358.475 79.871 359.283C80.7083 360.469 81.8804 360.792 83.2757 360.523C87.7409 359.714 92.0387 360.253 96.6155 361.385Z" fill="#295463"/>
<path d="M525.72 360.038C533.366 360.038 538.78 358.313 543.86 355.511C547.041 353.786 547.097 351.415 544.083 349.475C539.004 346.188 533.311 344.14 527.227 344.895C523.431 345.38 519.58 346.942 516.231 348.829C512.771 350.769 513.496 355.619 517.18 357.72C519.748 359.229 523.543 360.092 525.72 360.038ZM521.199 353.032C531.971 349.745 531.748 350.715 535.822 352.709C531.078 354.325 526.557 354.487 521.199 353.032Z" fill="#295463"/>
<path d="M225.157 339.506C223.203 339.398 220.915 339.775 218.738 340.637C213.882 342.631 213.045 347.266 217.064 350.715C221.641 354.649 227.11 355.673 232.915 354.271C235.65 353.625 238.887 353.032 239.446 349.691C239.948 346.565 237.827 344.248 235.483 342.416C232.636 340.206 229.176 339.506 225.157 339.506ZM221.92 346.996C225.938 345.11 229.901 345.595 232.134 348.344C228.506 349.152 225.213 348.829 221.92 346.996Z" fill="#295463"/>
<path d="M51.0148 361.708C50.6799 365.427 51.573 368.714 54.4195 371.408C55.6474 372.594 55.5916 373.672 54.6986 374.911C57.9917 375.288 61.1731 374.75 64.1871 373.51C67.9267 371.947 68.5407 369.684 65.9732 366.558C63.5732 363.648 60.2801 361.385 58.7173 357.828C56.5963 359.876 53.9172 360.954 51.0148 361.708Z" fill="#F3CD6E"/>
<path d="M328.917 376.474C327.075 376.474 325.177 376.366 323.335 376.528C321.605 376.636 320.21 377.444 320.098 379.276C320.042 381.216 321.326 382.294 323.224 382.402C326.907 382.617 330.647 382.671 334.331 382.671C336.229 382.671 337.624 381.755 337.624 379.815C337.624 377.875 336.34 376.905 334.387 376.851C332.545 376.797 330.703 376.851 328.805 376.851C328.917 376.69 328.917 376.582 328.917 376.474Z" fill="#295463"/>
<path d="M480.621 341.769C478.78 341.769 476.882 341.769 475.04 341.769C473.31 341.769 472.082 342.523 471.97 344.194C471.858 345.865 472.807 347.427 474.538 347.481C478.78 347.697 483.077 347.589 487.319 347.481C488.826 347.427 489.552 346.188 489.384 344.787C489.217 343.116 488.268 341.877 486.426 341.769C484.528 341.661 482.575 341.769 480.621 341.769Z" fill="#295463"/>
<path d="M397.848 371.947C400.36 371.678 402.816 371.462 405.327 371.193C407.337 370.977 408.732 369.953 408.453 367.852C408.174 365.642 406.611 364.942 404.434 365.265C401.755 365.642 399.076 365.804 396.397 366.073C393.494 366.397 392.211 367.582 392.546 369.63C392.992 372.163 394.89 372.325 397.011 372.001C397.29 371.947 397.569 371.947 397.848 371.947C397.792 371.893 397.848 371.893 397.848 371.947Z" fill="#295463"/>
<path d="M330.312 343.547C331.54 343.601 332.935 343.763 334.331 343.709C336.284 343.655 337.512 342.631 337.624 340.745C337.735 338.913 336.563 338.051 334.721 337.781C331.652 337.35 328.638 337.404 325.568 337.943C323.726 338.266 322.833 339.506 323 341.23C323.168 343.009 324.34 343.925 326.238 343.817C327.577 343.763 328.861 343.655 330.312 343.547Z" fill="#295463"/>
<path d="M179.445 342.847C177.77 343.116 176.375 342.631 174.979 341.715C173.361 340.691 171.742 340.799 170.626 342.47C169.454 344.14 169.9 345.649 171.631 346.889C174.142 348.613 176.933 349.421 180.003 349.044C182.012 348.829 184.021 348.29 183.798 345.703C183.575 343.17 181.845 342.416 179.445 342.847Z" fill="#295463"/>
<path d="M256.19 378.522C253.79 378.791 251.781 378.899 249.771 379.222C247.818 379.546 246.869 380.731 247.204 382.671C247.539 384.504 248.823 385.204 250.609 385.096C252.618 384.935 254.627 384.665 256.637 384.396C258.479 384.126 259.427 382.995 259.26 381.216C259.092 379.33 257.809 378.468 256.19 378.522Z" fill="#295463"/>
<path d="M128.653 348.128C130.383 347.913 132.17 347.805 133.9 347.535C135.686 347.266 136.802 346.242 136.635 344.41C136.467 342.523 135.295 341.5 133.23 341.661C131.5 341.769 129.714 342.092 127.983 342.2C125.695 342.362 124.188 343.224 124.467 345.649C124.802 348.02 126.588 348.344 128.653 348.128Z" fill="#295463"/>
<path d="M502.668 290.412C494.575 290.628 489.217 295.801 488.994 303.669C488.826 309.597 491.059 314.555 495.747 318.381C501.329 322.908 508.696 322.584 513.887 317.68C519.022 312.776 520.752 305.232 518.185 299.358C515.617 293.592 509.757 290.197 502.668 290.412Z" fill="#F4CF6E"/>
<path d="M50.9031 179.776C51.0705 179.561 51.4612 179.237 51.4054 179.13C51.1822 178.752 50.7914 178.645 50.3449 178.914C50.01 179.507 50.5682 179.615 50.9031 179.776Z" fill="black"/>
<path d="M54.6986 175.357C57.88 175.357 60.7824 173.741 60.7824 172.34C60.7824 171.046 60.001 170.184 58.5498 170.13C56.1498 170.076 53.0241 171.908 53.08 173.31C53.1358 174.711 54.0288 175.357 54.6986 175.357Z" fill="#295463"/>
<path d="M398.853 270.688C399.411 270.635 399.969 270.635 400.527 270.581C401.978 268.425 401.197 266.054 401.253 263.737C401.197 263.198 401.085 262.659 401.085 262.174C401.309 257.593 403.039 255.977 407.671 256.03C412.025 256.084 416.434 256.192 420.788 256.246C428.044 256.839 435.244 258.455 442.612 257.162C448.919 256.03 451.598 252.959 452.323 246.815C453.607 235.606 452.1 224.451 452.156 213.296C452.156 212.487 451.821 211.733 451.654 210.925C450.593 202.68 449.421 194.434 447.691 186.243C446.965 182.74 445.793 179.345 443.616 176.327C441.663 173.633 438.984 172.016 435.914 170.831C432.453 170.507 429.16 171.046 426.202 172.986C419.56 179.237 418.165 187.483 417.16 195.836C417.104 196.482 417.104 197.075 417.048 197.722C416.658 202.572 415.374 204.027 410.351 204.727C406.388 205.266 402.425 205.643 398.462 206.128C393.048 206.829 387.913 208.23 383.559 211.517C381.829 215.236 380.769 218.9 384.564 222.134C391.15 224.289 397.681 223.319 404.211 221.757C405.439 221.433 406.667 221.056 407.951 220.679C409.681 218.577 412.025 218.308 414.648 218.254C416.937 218.2 419.281 217.769 421.514 217.23C426.481 215.99 429.83 213.188 431.281 208.284C433.235 201.871 432.956 195.35 432.621 188.776C432.565 187.536 432.509 186.297 434.183 186.135C435.746 186.028 436.472 186.998 436.695 188.453C437.197 191.848 437.309 195.243 437.03 198.638C435.858 211.41 434.63 219.601 417.718 222.08C417.606 222.08 417.551 222.08 417.439 222.08C416.937 223.912 415.262 224.182 413.755 224.559C408.844 225.906 403.988 227.307 399.02 228.439C385.625 231.511 377.755 239.756 374.629 252.528C373.959 255.33 373.457 258.132 372.787 260.934C372.285 263.09 372.843 264.383 375.299 264.707C376.583 264.868 377.811 265.299 379.038 265.623C379.708 265.623 380.378 265.677 381.104 265.677C382.722 264.814 384.006 265.246 385.011 266.701C389.811 267.617 394.388 268.91 398.853 270.688Z" fill="#ED86AF"/>
<path d="M439.43 161.454C440.323 158.544 440.323 155.634 439.263 152.778C438.537 150.784 438.872 149.814 440.937 148.844C443.337 147.712 444.007 145.125 442.947 142.808C441.942 140.599 438.705 138.766 436.751 140.006C431.839 143.077 425.644 143.94 421.793 148.628C419.895 150.891 418.667 153.317 418.332 156.119C418.165 157.789 418.388 159.46 420.788 159.514C421.179 159.46 421.514 159.46 421.904 159.352C425.253 158.436 426.76 159.837 426.035 163.232C425.867 164.094 426.035 164.849 426.816 165.334C427.653 165.927 428.546 165.819 429.439 165.388C430.109 165.011 430.5 164.148 431.56 164.364C434.798 165.064 437.253 163.502 439.43 161.454Z" fill="#295463"/>
<path d="M384.62 222.134C380.769 218.9 381.829 215.236 383.615 211.517C379.82 211.194 376.136 212.056 372.452 212.326C371.336 212.919 370.164 213.404 369.103 214.05C366.759 215.451 366.647 216.906 368.768 218.631C369.606 219.278 370.499 219.924 371.336 220.571C375.634 221.918 380.043 222.888 384.62 222.134Z" fill="#F0CDB8"/>
<path d="M439.43 161.454C437.198 163.502 434.798 165.064 431.504 164.418C430.444 164.202 430.053 165.064 429.383 165.442C428.49 165.927 427.653 165.981 426.76 165.388C425.979 164.849 425.811 164.148 425.979 163.286C426.704 159.891 425.197 158.49 421.848 159.406C421.514 159.514 421.123 159.514 420.732 159.568C420.788 160.43 420.9 161.346 420.955 162.208C422.462 161.777 423.579 162.154 423.802 163.771C423.969 165.011 423.69 166.142 421.96 166.034C421.514 166.951 421.848 167.651 422.574 168.244C423.635 166.25 425.532 166.843 427.207 166.951C428.211 167.004 428.825 167.705 428.881 168.729C428.881 169.753 428.267 170.346 427.318 170.669C426.481 170.938 425.421 170.4 424.807 171.37C425.309 171.908 426.314 171.962 426.258 172.986C429.216 171.046 432.453 170.507 435.97 170.831C438.202 168.136 439.374 164.957 439.43 161.454Z" fill="#F0CDB8"/>
<path d="M424.807 171.423C425.421 170.507 426.481 171.046 427.318 170.723C428.267 170.399 428.881 169.807 428.881 168.783C428.881 167.759 428.267 167.058 427.207 167.004C425.532 166.897 423.635 166.304 422.574 168.298C422.574 169.807 423.523 170.723 424.807 171.423Z" fill="#295463"/>
<path d="M422.016 166.034C423.746 166.142 424.025 165.011 423.858 163.771C423.635 162.208 422.518 161.777 421.011 162.208C419.225 164.364 419.504 165.442 422.016 166.034Z" fill="#295463"/>
<path d="M420.788 256.246C416.434 256.192 412.025 256.084 407.671 256.03C402.983 255.976 401.253 257.593 401.085 262.174C401.085 262.713 401.197 263.252 401.253 263.737C404.881 257.97 411.076 257.432 417.104 256.569C418.332 256.408 419.56 256.354 420.788 256.246Z" fill="#010101"/>
<path d="M289.065 329.213C299.056 329.159 305.307 320.914 302.405 311.645C299.67 302.861 294.591 299.412 286.163 300.651C278.293 301.783 272.879 307.98 273.214 315.363C273.604 323.554 279.074 328.782 287.67 329.213C288.116 329.213 288.563 329.213 289.065 329.213Z" fill="#F4CF6E"/>
<path d="M417.439 222.134C417.551 222.134 417.606 222.134 417.718 222.134C434.63 219.655 435.858 211.464 437.03 198.692C437.365 195.297 437.253 191.902 436.695 188.507C436.472 187.051 435.802 186.081 434.184 186.189C432.509 186.297 432.509 187.59 432.621 188.83C433.011 195.351 433.235 201.871 431.281 208.338C429.774 213.242 426.425 216.098 421.514 217.284C419.281 217.823 416.937 218.254 414.648 218.308C412.081 218.361 409.681 218.631 407.951 220.733C410.741 223.697 414.258 221.972 417.439 222.134Z" fill="#295463"/>
<path d="M381.159 265.784C380.49 265.784 379.82 265.731 379.094 265.731C379.708 270.581 379.597 275.485 381.215 280.173C381.494 281.035 381.327 282.113 381.383 283.083C381.662 283.083 381.997 283.083 382.276 283.083C382.276 277.263 380.88 271.551 381.159 265.784Z" fill="#F0CDB8"/>
<path d="M380.155 298.549C380.434 298.765 380.713 298.98 381.048 299.142C381.829 299.519 382.722 300.382 383.504 299.897C384.397 299.358 383.559 298.28 383.559 297.472C382.332 297.633 381.159 297.795 380.155 298.549Z" fill="#F0CDB8"/>
<path d="M382.332 283.083C382.052 283.083 381.718 283.083 381.439 283.083C381.159 285.616 382.89 287.825 382.666 290.358C383.225 287.879 382.722 285.454 382.332 283.083Z" fill="#EC7C94"/>
<path d="M398.853 270.688C394.387 268.91 389.811 267.617 385.066 266.808C385.959 276.778 386.797 286.748 387.69 296.717C387.969 299.735 388.08 299.681 390.815 298.011C393.773 296.232 396.285 293.699 399.746 292.675C399.467 285.346 399.188 278.017 398.853 270.688Z" fill="#F0CDB8"/>
<path d="M96.6154 361.385C91.9828 360.253 87.6851 359.714 83.3315 360.469C81.9362 360.684 80.764 360.361 79.9268 359.229C79.3686 358.421 78.5314 358.367 77.6942 358.69C77.2477 358.852 77.0244 359.283 77.1361 359.768C77.2477 360.63 77.9733 360.9 78.6989 361.115C84.5036 363.163 90.42 363.433 96.6154 361.385Z" fill="#B2C5E4"/>
<path d="M521.199 353.032C526.557 354.541 531.078 354.325 535.822 352.709C531.748 350.715 531.971 349.745 521.199 353.032Z" fill="#B2C5E4"/>
<path d="M221.92 346.996C225.213 348.882 228.506 349.206 232.134 348.344C229.957 345.595 225.938 345.056 221.92 346.996Z" fill="#B2C5E4"/>
</g>
<defs>
<clipPath id="clip0">
<rect width="598" height="399" fill="white" transform="matrix(-1 0 0 1 598 0)"/>
</clipPath>
</defs>
</svg>
