<svg width="21" height="21" viewBox="0 0 21 21" fill="none" xmlns="http://www.w3.org/2000/svg">
<path fill-rule="evenodd" clip-rule="evenodd" d="M2.97546 1.28623C3.19071 1.07096 3.44927 0.90391 3.734 0.796178C4.01873 0.688446 4.32311 0.642488 4.62695 0.661354C4.93079 0.68022 5.22715 0.763478 5.49636 0.905606C5.76558 1.04773 6.00149 1.24548 6.18846 1.48573L8.39477 4.32336C8.80033 4.84311 8.9434 5.52167 8.78327 6.16085L8.10996 8.85542C8.07494 8.99524 8.07673 9.14174 8.11514 9.28066C8.15355 9.41959 8.22728 9.5462 8.32915 9.64817L11.3531 12.6709C11.4551 12.7727 11.5817 12.8465 11.7207 12.8849C11.8596 12.9233 12.0061 12.9251 12.1459 12.89L14.8391 12.2167C15.155 12.1378 15.4847 12.1318 15.8033 12.1991C16.1219 12.2664 16.421 12.4053 16.678 12.6052L19.5156 14.8115C20.5354 15.6043 20.6299 17.1124 19.7164 18.0245L18.4433 19.2977C17.5337 20.2072 16.1726 20.6075 14.9035 20.1613C11.6569 19.0186 8.70919 17.1596 6.27902 14.7223C3.84124 12.2923 1.98183 9.34457 0.838708 6.09786C0.392458 4.82867 0.792771 3.46761 1.70233 2.55673L2.97546 1.28492V1.28623Z" fill="#086788"/>
</svg>
