<svg width="23" height="19" viewBox="0 0 23 19" fill="none" xmlns="http://www.w3.org/2000/svg">
<path fill-rule="evenodd" clip-rule="evenodd" d="M17.618 18.7902C17.9266 19.0068 18.3243 19.061 18.6788 18.928C19.0334 18.794 19.2941 18.4938 19.3726 18.13C20.2054 14.2502 22.2255 4.43 22.9836 0.900742C23.0411 0.634742 22.9452 0.358291 22.7344 0.180641C22.5236 0.00299088 22.2313 -0.0483093 21.9706 0.0476408C17.9524 1.52204 5.57775 6.1248 0.519786 7.98015C0.198752 8.09795 -0.0101602 8.40385 0.000381268 8.7392C0.011881 9.0755 0.239959 9.36715 0.56866 9.465C2.83698 10.1376 5.81446 11.0734 5.81446 11.0734C5.81446 11.0734 7.20593 15.2391 7.93137 17.3576C8.02241 17.6236 8.23228 17.8326 8.50923 17.9048C8.78522 17.9761 9.08038 17.901 9.28642 17.7082C10.4517 16.6176 12.2534 14.9313 12.2534 14.9313C12.2534 14.9313 15.6764 17.4194 17.618 18.7902ZM7.06697 10.5471L8.67598 15.8082L9.03342 12.4765C9.03342 12.4765 15.25 6.91805 18.7938 3.7498C18.8973 3.6567 18.9117 3.5009 18.8255 3.39164C18.7402 3.28239 18.583 3.25674 18.4651 3.33084C14.3578 5.931 7.06697 10.5471 7.06697 10.5471Z" fill="#086788"/>
</svg>
